Merriweather35-LightNarrow.ufo
<glyph name="exclam" format="2">
  <advance width="710"/>
  <unicode hex="0021"/>
  <outline>
    <contour>
      <point x="440" y="1798" type="line"/>
      <point x="246" y="1798" type="line"/>
      <point x="296" y="460" type="line"/>
      <point x="398" y="460" type="line"/>
    </contour>
    <contour>
      <point x="232" y="88" type="curve" smooth="yes"/>
      <point x="232" y="20"/>
      <point x="286" y="-22"/>
      <point x="344" y="-22" type="curve" smooth="yes"/>
      <point x="414" y="-22"/>
      <point x="478" y="30"/>
      <point x="478" y="108" type="curve" smooth="yes"/>
      <point x="478" y="166"/>
      <point x="444" y="218"/>
      <point x="364" y="218" type="curve" smooth="yes"/>
      <point x="300" y="218"/>
      <point x="232" y="162"/>
    </contour>
  </outline>
</glyph>
<glyph name="one" format="2">
  <advance width="828"/>
  <unicode hex="0031"/>
  <outline>
    <contour>
      <point x="378" y="102" type="line"/>
      <point x="148" y="86" type="line"/>
      <point x="148" y="0" type="line"/>
      <point x="756" y="0" type="line"/>
      <point x="756" y="86" type="line"/>
      <point x="540" y="102" type="line"/>
      <point x="540" y="1484" type="line"/>
      <point x="444" y="1504" type="line"/>
      <point x="442" y="1504" type="line"/>
      <point x="348" y="1424"/>
      <point x="233" y="1350"/>
      <point x="110" y="1320" type="curve"/>
      <point x="130" y="1234" type="line"/>
      <point x="208" y="1246"/>
      <point x="329" y="1280"/>
      <point x="378" y="1304" type="curve"/>
    </contour>
  </outline>
</glyph>
<glyph name="seven" format="2">
  <advance width="1105"/>
  <unicode hex="0037"/>
  <outline>
    <contour>
      <point x="540" y="-2" type="line"/>
      <point x="1026" y="1442" type="line"/>
      <point x="992" y="1486" type="line"/>
      <point x="140" y="1486" type="line"/>
      <point x="100" y="1120" type="line"/>
      <point x="198" y="1102" type="line"/>
      <point x="268" y="1352" type="line"/>
      <point x="886" y="1358" type="line"/>
      <point x="710" y="894"/>
      <point x="529" y="436"/>
      <point x="349" y="0" type="curve"/>
    </contour>
  </outline>
</glyph>
<glyph name="eight" format="2">
  <advance width="1188"/>
  <unicode hex="0038"/>
  <outline>
    <contour>
      <point x="125" y="368" type="curve" smooth="yes"/>
      <point x="125" y="88"/>
      <point x="374" y="-18"/>
      <point x="588" y="-18" type="curve" smooth="yes"/>
      <point x="835" y="-18"/>
      <point x="1063" y="152"/>
      <point x="1063" y="384" type="curve" smooth="yes"/>
      <point x="1063" y="569"/>
      <point x="920" y="674"/>
      <point x="733" y="770" type="curve"/>
      <point x="896" y="870"/>
      <point x="1004" y="1016"/>
      <point x="1004" y="1174" type="curve" smooth="yes"/>
      <point x="1004" y="1378"/>
      <point x="833" y="1504"/>
      <point x="604" y="1504" type="curve" smooth="yes"/>
      <point x="336" y="1504"/>
      <point x="182" y="1317"/>
      <point x="182" y="1123" type="curve" smooth="yes"/>
      <point x="182" y="985"/>
      <point x="259" y="843"/>
      <point x="429" y="761" type="curve"/>
      <point x="223" y="689"/>
      <point x="125" y="504"/>
    </contour>
    <contour>
      <point x="322" y="1170" type="curve" smooth="yes"/>
      <point x="322" y="1326"/>
      <point x="447" y="1422"/>
      <point x="596" y="1422" type="curve" smooth="yes"/>
      <point x="757" y="1422"/>
      <point x="866" y="1314"/>
      <point x="866" y="1128" type="curve" smooth="yes"/>
      <point x="866" y="998"/>
      <point x="772" y="879"/>
      <point x="647" y="815" type="curve"/>
      <point x="473" y="906"/>
      <point x="322" y="1004"/>
    </contour>
    <contour>
      <point x="904" y="348" type="curve" smooth="yes"/>
      <point x="904" y="180"/>
      <point x="751" y="70"/>
      <point x="605" y="70" type="curve" smooth="yes"/>
      <point x="405" y="70"/>
      <point x="278" y="198"/>
      <point x="278" y="402" type="curve" smooth="yes"/>
      <point x="278" y="526"/>
      <point x="380" y="672"/>
      <point x="508" y="722" type="curve"/>
      <point x="708" y="625"/>
      <point x="904" y="520"/>
    </contour>
  </outline>
</glyph>
<glyph name="nine" format="2">
  <advance width="1178"/>
  <unicode hex="0039"/>
  <outline>
    <contour>
      <point x="580" y="1504" type="curve" smooth="yes"/>
      <point x="285" y="1504"/>
      <point x="103" y="1264"/>
      <point x="103" y="982" type="curve" smooth="yes"/>
      <point x="103" y="710"/>
      <point x="247" y="500"/>
      <point x="538" y="500" type="curve" smooth="yes"/>
      <point x="690" y="500"/>
      <point x="796" y="584"/>
      <point x="853" y="658" type="curve"/>
      <point x="781" y="364"/>
      <point x="627" y="106"/>
      <point x="283" y="-18" type="curve"/>
      <point x="321" y="-94" type="line"/>
      <point x="743" y="2"/>
      <point x="1055" y="422"/>
      <point x="1055" y="874" type="curve" smooth="yes"/>
      <point x="1055" y="1226"/>
      <point x="888" y="1504"/>
    </contour>
    <contour>
      <point x="540" y="604" type="curve" smooth="yes"/>
      <point x="386" y="604"/>
      <point x="277" y="732"/>
      <point x="277" y="1018" type="curve" smooth="yes"/>
      <point x="277" y="1208"/>
      <point x="371" y="1414"/>
      <point x="568" y="1414" type="curve" smooth="yes"/>
      <point x="798" y="1414"/>
      <point x="878" y="1148"/>
      <point x="878" y="914" type="curve" smooth="yes"/>
      <point x="878" y="890"/>
      <point x="876" y="816"/>
      <point x="874" y="792" type="curve"/>
      <point x="842" y="718"/>
      <point x="736" y="604"/>
    </contour>
  </outline>
</glyph>
<glyph name="greater" format="2">
  <advance width="1174"/>
  <unicode hex="003E"/>
  <outline>
    <contour>
      <point x="1030" y="548" type="line"/>
      <point x="1030" y="654" type="line"/>
      <point x="208" y="1150" type="line"/>
      <point x="208" y="1000" type="line"/>
      <point x="888" y="601" type="line"/>
      <point x="208" y="203" type="line"/>
      <point x="208" y="54" type="line"/>
    </contour>
  </outline>
</glyph>
<glyph name="at" format="2">
  <advance width="1856"/>
  <unicode hex="0040"/>
  <outline>
    <contour>
      <point x="114" y="365" type="curve" smooth="yes"/>
      <point x="114" y="-161"/>
      <point x="388" y="-500"/>
      <point x="805" y="-500" type="curve" smooth="yes"/>
      <point x="981" y="-500"/>
      <point x="1156" y="-439"/>
      <point x="1251" y="-358" type="curve"/>
      <point x="1224" y="-290" type="line"/>
      <point x="1148" y="-345"/>
      <point x="982" y="-386"/>
      <point x="848" y="-386" type="curve" smooth="yes"/>
      <point x="477" y="-386"/>
      <point x="237" y="-81"/>
      <point x="237" y="389" type="curve" smooth="yes"/>
      <point x="237" y="961"/>
      <point x="591" y="1390"/>
      <point x="1050" y="1390" type="curve" smooth="yes"/>
      <point x="1358" y="1390"/>
      <point x="1651" y="1201"/>
      <point x="1651" y="748" type="curve" smooth="yes"/>
      <point x="1651" y="335"/>
      <point x="1393" y="102"/>
      <point x="1299" y="102" type="curve" smooth="yes"/>
      <point x="1247" y="102"/>
      <point x="1226" y="157"/>
      <point x="1238" y="318" type="curve" smooth="yes"/>
      <point x="1251" y="513"/>
      <point x="1297" y="782"/>
      <point x="1333" y="972" type="curve"/>
      <point x="1295" y="988"/>
      <point x="1264" y="1001"/>
      <point x="1241" y="1006" type="curve" smooth="yes"/>
      <point x="1224" y="1009"/>
      <point x="1215" y="997"/>
      <point x="1202" y="958" type="curve"/>
      <point x="1140" y="996"/>
      <point x="1050" y="1016"/>
      <point x="984" y="1016" type="curve" smooth="yes"/>
      <point x="696" y="1016"/>
      <point x="522" y="634"/>
      <point x="522" y="361" type="curve" smooth="yes"/>
      <point x="522" y="126"/>
      <point x="650" y="-26"/>
      <point x="769" y="-26" type="curve" smooth="yes"/>
      <point x="910" y="-26"/>
      <point x="1044" y="196"/>
      <point x="1128" y="431" type="curve"/>
      <point x="1105" y="300"/>
      <point x="1100" y="194"/>
      <point x="1103" y="149" type="curve" smooth="yes"/>
      <point x="1111" y="33"/>
      <point x="1175" y="-26"/>
      <point x="1246" y="-26" type="curve" smooth="yes"/>
      <point x="1394" y="-26"/>
      <point x="1760" y="243"/>
      <point x="1760" y="781" type="curve" smooth="yes"/>
      <point x="1760" y="1262"/>
      <point x="1464" y="1504"/>
      <point x="1090" y="1504" type="curve" smooth="yes"/>
      <point x="586" y="1504"/>
      <point x="114" y="1055"/>
    </contour>
    <contour>
      <point x="669" y="411" type="curve" smooth="yes"/>
      <point x="669" y="642"/>
      <point x="770" y="898"/>
      <point x="947" y="898" type="curve" smooth="yes"/>
      <point x="1012" y="898"/>
      <point x="1129" y="865"/>
      <point x="1164" y="826" type="curve"/>
      <point x="1153" y="753"/>
      <point x="1126" y="654"/>
      <point x="1107" y="595" type="curve" smooth="yes"/>
      <point x="1020" y="324"/>
      <point x="889" y="120"/>
      <point x="797" y="120" type="curve" smooth="yes"/>
      <point x="720" y="120"/>
      <point x="669" y="247"/>
    </contour>
  </outline>
</glyph>
<glyph name="D" format="2">
  <advance width="1226"/>
  <unicode hex="0044"/>
  <anchor x="706" y="0" name="bottom"/>
  <anchor x="706" y="744" name="center"/>
  <anchor x="736" y="-166" name="mark0"/>
  <anchor x="706" y="1486" name="top"/>
  <outline>
    <contour>
      <point x="196" y="104" type="line"/>
      <point x="50" y="86" type="line"/>
      <point x="50" y="0" type="line"/>
      <point x="280" y="0" type="line" smooth="yes"/>
      <point x="396" y="0"/>
      <point x="435" y="-13"/>
      <point x="531" y="-15" type="curve" smooth="yes"/>
      <point x="900" y="-25"/>
      <point x="1184" y="298"/>
      <point x="1184" y="788" type="curve" smooth="yes"/>
      <point x="1184" y="1196"/>
      <point x="990" y="1502"/>
      <point x="578" y="1502" type="curve" smooth="yes"/>
      <point x="458" y="1502"/>
      <point x="400" y="1486"/>
      <point x="278" y="1486" type="curve" smooth="yes"/>
      <point x="54" y="1486" type="line"/>
      <point x="54" y="1400" type="line"/>
      <point x="196" y="1378" type="line"/>
    </contour>
    <contour>
      <point x="355" y="98" type="curve"/>
      <point x="356" y="1394" type="line"/>
      <point x="412" y="1396"/>
      <point x="441" y="1406"/>
      <point x="531" y="1406" type="curve" smooth="yes"/>
      <point x="842" y="1406"/>
      <point x="1003" y="1188"/>
      <point x="1003" y="752" type="curve" smooth="yes"/>
      <point x="1003" y="318"/>
      <point x="811" y="86"/>
      <point x="552" y="82" type="curve" smooth="yes"/>
      <point x="460" y="80"/>
      <point x="427" y="80"/>
    </contour>
  </outline>
</glyph>
<glyph name="G" format="2">
  <advance width="1213"/>
  <unicode hex="0047"/>
  <anchor x="727" y="0" name="bottom"/>
  <anchor x="755" y="-166" name="mark0"/>
  <anchor x="787" y="1486" name="top"/>
  <outline>
    <contour>
      <point x="619" y="-22" type="curve" smooth="yes"/>
      <point x="881" y="-22"/>
      <point x="984" y="76"/>
      <point x="1080" y="80" type="curve"/>
      <point x="1080" y="622" type="line"/>
      <point x="1192" y="642" type="line"/>
      <point x="1192" y="748" type="line"/>
      <point x="673" y="748" type="line"/>
      <point x="673" y="642" type="line"/>
      <point x="927" y="622" type="line"/>
      <point x="927" y="166" type="line"/>
      <point x="862" y="110"/>
      <point x="777" y="71"/>
      <point x="630" y="71" type="curve" smooth="yes"/>
      <point x="325" y="71"/>
      <point x="223" y="418"/>
      <point x="223" y="770" type="curve" smooth="yes"/>
      <point x="223" y="1172"/>
      <point x="417" y="1406"/>
      <point x="677" y="1406" type="curve" smooth="yes"/>
      <point x="830" y="1406"/>
      <point x="901" y="1362"/>
      <point x="928" y="1338" type="curve"/>
      <point x="968" y="1108" type="line"/>
      <point x="1070" y="1105" type="line"/>
      <point x="1085" y="1437" type="line"/>
      <point x="1023" y="1453"/>
      <point x="863" y="1502"/>
      <point x="694" y="1502" type="curve" smooth="yes"/>
      <point x="315" y="1502"/>
      <point x="43" y="1220"/>
      <point x="43" y="718" type="curve" smooth="yes"/>
      <point x="43" y="296"/>
      <point x="255" y="-22"/>
    </contour>
  </outline>
</glyph>
<glyph name="I" format="2">
  <advance width="617"/>
  <unicode hex="0049"/>
  <anchor x="309" y="5" name="bottom"/>
  <anchor x="311" y="-171" name="mark0"/>
  <anchor x="492" y="20" name="ogonek"/>
  <anchor x="309" y="1486" name="top"/>
  <anchor x="-1" y="1486" name="topleft"/>
  <outline>
    <contour>
      <point x="228" y="103" type="line"/>
      <point x="64" y="85" type="line"/>
      <point x="64" y="0" type="line"/>
      <point x="553" y="0" type="line"/>
      <point x="553" y="83" type="line"/>
      <point x="389" y="103" type="line"/>
      <point x="389" y="1380" type="line"/>
      <point x="553" y="1401" type="line"/>
      <point x="553" y="1486" type="line"/>
      <point x="64" y="1486" type="line"/>
      <point x="64" y="1401" type="line"/>
      <point x="228" y="1380" type="line"/>
    </contour>
  </outline>
</glyph>
<glyph name="N" format="2">
  <advance width="1382"/>
  <unicode hex="004E"/>
  <anchor x="692" y="0" name="bottom"/>
  <anchor x="711" y="-166" name="mark0"/>
  <anchor x="711" y="1486" name="top"/>
  <outline>
    <contour>
      <point x="234" y="105" type="line"/>
      <point x="97" y="85" type="line"/>
      <point x="97" y="0" type="line"/>
      <point x="501" y="0" type="line"/>
      <point x="501" y="85" type="line"/>
      <point x="342" y="103" type="line"/>
      <point x="342" y="1304" type="line"/>
      <point x="479" y="1038" type="line"/>
      <point x="1072" y="0" type="line"/>
      <point x="1191" y="0" type="line"/>
      <point x="1191" y="1380" type="line"/>
      <point x="1330" y="1401" type="line"/>
      <point x="1330" y="1486" type="line"/>
      <point x="933" y="1486" type="line"/>
      <point x="933" y="1401" type="line"/>
      <point x="1083" y="1380" type="line"/>
      <point x="1083" y="247" type="line"/>
      <point x="985" y="446" type="line"/>
      <point x="397" y="1486" type="line"/>
      <point x="97" y="1486" type="line"/>
      <point x="97" y="1401" type="line"/>
      <point x="142" y="1395"/>
      <point x="189" y="1387"/>
      <point x="234" y="1380" type="curve"/>
    </contour>
  </outline>
</glyph>
<glyph name="O" format="2">
  <advance width="1202"/>
  <unicode hex="004F"/>
  <anchor x="601" y="-21" name="bottom"/>
  <anchor x="604" y="765" name="center"/>
  <anchor x="671" y="20" name="ogonek"/>
  <anchor x="602" y="1486" name="top"/>
  <anchor x="15" y="1486" name="topleft"/>
  <anchor x="909" y="1486" name="topright"/>
  <outline>
    <contour>
      <point x="589" y="-22" type="curve" smooth="yes"/>
      <point x="913" y="-15"/>
      <point x="1160" y="287"/>
      <point x="1160" y="756" type="curve" smooth="yes"/>
      <point x="1160" y="1206"/>
      <point x="971" y="1502"/>
      <point x="617" y="1502" type="curve" smooth="yes"/>
      <point x="293" y="1502"/>
      <point x="42" y="1204"/>
      <point x="42" y="732" type="curve" smooth="yes"/>
      <point x="42" y="284"/>
      <point x="231" y="-29"/>
    </contour>
    <contour>
      <point x="602" y="1409" type="curve" smooth="yes"/>
      <point x="844" y="1409"/>
      <point x="979" y="1138"/>
      <point x="979" y="756" type="curve" smooth="yes"/>
      <point x="979" y="302"/>
      <point x="826" y="71"/>
      <point x="598" y="71" type="curve" smooth="yes"/>
      <point x="356" y="71"/>
      <point x="223" y="351"/>
      <point x="223" y="732" type="curve" smooth="yes"/>
      <point x="223" y="1186"/>
      <point x="374" y="1409"/>
    </contour>
  </outline>
</glyph>
<glyph name="S" format="2">
  <advance width="1066"/>
  <unicode hex="0053"/>
  <anchor x="521" y="0" name="bottom"/>
  <anchor x="580" y="1486" name="top"/>
  <outline>
    <contour>
      <point x="529" y="-14" type="curve" smooth="yes"/>
      <point x="861" y="-14"/>
      <point x="1020" y="197"/>
      <point x="1020" y="401" type="curve" smooth="yes"/>
      <point x="1020" y="639"/>
      <point x="791" y="725"/>
      <point x="611" y="819" type="curve" smooth="yes"/>
      <point x="441" y="908"/>
      <point x="262" y="983"/>
      <point x="262" y="1153" type="curve" smooth="yes"/>
      <point x="262" y="1313"/>
      <point x="388" y="1401"/>
      <point x="569" y="1401" type="curve" smooth="yes"/>
      <point x="674" y="1401"/>
      <point x="774" y="1368"/>
      <point x="800" y="1344" type="curve"/>
      <point x="833" y="1098" type="line"/>
      <point x="926" y="1098" type="line"/>
      <point x="937" y="1423" type="line"/>
      <point x="883" y="1433"/>
      <point x="742" y="1494"/>
      <point x="578" y="1494" type="curve" smooth="yes"/>
      <point x="294" y="1494"/>
      <point x="123" y="1344"/>
      <point x="123" y="1122" type="curve" smooth="yes"/>
      <point x="123" y="867"/>
      <point x="380" y="773"/>
      <point x="532" y="699" type="curve" smooth="yes"/>
      <point x="694" y="620"/>
      <point x="873" y="535"/>
      <point x="873" y="361" type="curve" smooth="yes"/>
      <point x="873" y="193"/>
      <point x="741" y="83"/>
      <point x="538" y="83" type="curve" smooth="yes"/>
      <point x="411" y="83"/>
      <point x="282" y="126"/>
      <point x="240" y="170" type="curve"/>
      <point x="212" y="429" type="line"/>
      <point x="116" y="429" type="line"/>
      <point x="101" y="77" type="line"/>
      <point x="158" y="71"/>
      <point x="320" y="-14"/>
    </contour>
  </outline>
</glyph>
<glyph name="T" format="2">
  <advance width="1195"/>
  <unicode hex="0054"/>
  <anchor x="614" y="0" name="bottom"/>
  <anchor x="614" y="744" name="center"/>
  <anchor x="614" y="1486" name="top"/>
  <outline>
    <contour>
      <point x="516" y="104" type="line"/>
      <point x="240" y="86" type="line"/>
      <point x="240" y="0" type="line"/>
      <point x="961" y="0" type="line"/>
      <point x="961" y="86" type="line"/>
      <point x="679" y="104" type="line"/>
      <point x="679" y="1396" type="line"/>
      <point x="991" y="1384" type="line"/>
      <point x="1055" y="978" type="line"/>
      <point x="1165" y="978" type="line"/>
      <point x="1131" y="1486" type="line"/>
      <point x="64" y="1486" type="line"/>
      <point x="30" y="978" type="line"/>
      <point x="140" y="978" type="line"/>
      <point x="204" y="1384" type="line"/>
      <point x="516" y="1396" type="line"/>
    </contour>
  </outline>
</glyph>
<glyph name="Y" format="2">
  <advance width="1181"/>
  <unicode hex="0059"/>
  <anchor x="588" y="0" name="bottom"/>
  <anchor x="558" y="-166" name="mark0"/>
  <anchor x="608" y="1486" name="top"/>
  <anchor x="-12" y="1486" name="topleft"/>
  <outline>
    <contour>
      <point x="510" y="104" type="line"/>
      <point x="284" y="86" type="line"/>
      <point x="284" y="0" type="line"/>
      <point x="895" y="0" type="line"/>
      <point x="895" y="86" type="line"/>
      <point x="671" y="106" type="line"/>
      <point x="671" y="574" type="line"/>
      <point x="1059" y="1378" type="line"/>
      <point x="1176" y="1400" type="line"/>
      <point x="1176" y="1486" type="line"/>
      <point x="757" y="1486" type="line"/>
      <point x="757" y="1400" type="line"/>
      <point x="925" y="1378" type="line"/>
      <point x="679" y="812" type="line"/>
      <point x="608" y="652" type="line"/>
      <point x="536" y="812" type="line"/>
      <point x="295" y="1378" type="line"/>
      <point x="463" y="1400" type="line"/>
      <point x="463" y="1486" type="line"/>
      <point x="5" y="1486" type="line"/>
      <point x="5" y="1400" type="line"/>
      <point x="109" y="1376" type="line"/>
      <point x="510" y="572" type="line"/>
    </contour>
  </outline>
</glyph>
<glyph name="b" format="2">
  <advance width="1038"/>
  <unicode hex="0062"/>
  <anchor x="477" y="0" name="bottom"/>
  <anchor x="511" y="-166" name="mark0"/>
  <anchor x="642" y="1110" name="top"/>
  <outline>
    <contour>
      <point x="5" y="1531" type="line"/>
      <point x="150" y="1514" type="line"/>
      <point x="150" y="54" type="line"/>
      <point x="172" y="31"/>
      <point x="328" y="-22"/>
      <point x="477" y="-22" type="curve" smooth="yes"/>
      <point x="786" y="-22"/>
      <point x="970" y="243"/>
      <point x="971" y="591" type="curve" smooth="yes"/>
      <point x="972" y="956"/>
      <point x="797" y="1140"/>
      <point x="576" y="1140" type="curve" smooth="yes"/>
      <point x="412" y="1140"/>
      <point x="339" y="1046"/>
      <point x="306" y="997" type="curve"/>
      <point x="306" y="1610" type="line"/>
      <point x="270" y="1638" type="line"/>
      <point x="267" y="1638" type="line"/>
      <point x="5" y="1604" type="line"/>
    </contour>
    <contour>
      <point x="536" y="1018" type="curve" smooth="yes"/>
      <point x="682" y="1018"/>
      <point x="799" y="887"/>
      <point x="801" y="568" type="curve" smooth="yes"/>
      <point x="803" y="222"/>
      <point x="668" y="80"/>
      <point x="490" y="78" type="curve" smooth="yes"/>
      <point x="409" y="77"/>
      <point x="324" y="105"/>
      <point x="306" y="141" type="curve"/>
      <point x="306" y="876" type="line"/>
      <point x="343" y="944"/>
      <point x="419" y="1018"/>
    </contour>
  </outline>
</glyph>
<glyph name="d" format="2">
  <advance width="1040"/>
  <unicode hex="0064"/>
  <anchor x="522" y="-15" name="bottom"/>
  <anchor x="515" y="576" name="center"/>
  <anchor x="333" y="1158" name="top"/>
  <anchor x="1018" y="1110" name="topright"/>
  <outline>
    <contour>
      <point x="465" y="-22" type="curve" smooth="yes"/>
      <point x="626" y="-22"/>
      <point x="703" y="72"/>
      <point x="742" y="138" type="curve"/>
      <point x="742" y="67" type="line" smooth="yes"/>
      <point x="742" y="-4"/>
      <point x="763" y="-18"/>
      <point x="819" y="-18" type="curve" smooth="yes"/>
      <point x="885" y="-18"/>
      <point x="945" y="0"/>
      <point x="991" y="12" type="curve"/>
      <point x="991" y="89" type="line"/>
      <point x="888" y="89" type="line"/>
      <point x="888" y="1610" type="line"/>
      <point x="853" y="1638" type="line"/>
      <point x="849" y="1638" type="line"/>
      <point x="555" y="1604" type="line"/>
      <point x="555" y="1534" type="line"/>
      <point x="732" y="1514" type="line"/>
      <point x="732" y="1120" type="line"/>
      <point x="689" y="1131"/>
      <point x="628" y="1140"/>
      <point x="562" y="1140" type="curve" smooth="yes"/>
      <point x="252" y="1140"/>
      <point x="67" y="875"/>
      <point x="67" y="528" type="curve" smooth="yes"/>
      <point x="67" y="162"/>
      <point x="241" y="-22"/>
    </contour>
    <contour>
      <point x="504" y="100" type="curve" smooth="yes"/>
      <point x="356" y="100"/>
      <point x="237" y="228"/>
      <point x="237" y="551" type="curve" smooth="yes"/>
      <point x="237" y="896"/>
      <point x="370" y="1040"/>
      <point x="548" y="1040" type="curve" smooth="yes"/>
      <point x="629" y="1040"/>
      <point x="714" y="1013"/>
      <point x="732" y="977" type="curve"/>
      <point x="732" y="242" type="line"/>
      <point x="695" y="174"/>
      <point x="619" y="100"/>
    </contour>
  </outline>
</glyph>
<glyph name="e" format="2">
  <advance width="904"/>
  <unicode hex="0065"/>
  <anchor x="440" y="5" name="bottom"/>
  <anchor x="481" y="-171" name="mark0"/>
  <anchor x="570" y="20" name="ogonek"/>
  <anchor x="476" y="1110" name="top"/>
  <outline>
    <contour>
      <point x="478" y="-22" type="curve" smooth="yes"/>
      <point x="633" y="-22"/>
      <point x="760" y="41"/>
      <point x="823" y="119" type="curve"/>
      <point x="793" y="192" type="line"/>
      <point x="741" y="138"/>
      <point x="634" y="90"/>
      <point x="517" y="90" type="curve" smooth="yes"/>
      <point x="318" y="90"/>
      <point x="225" y="278"/>
      <point x="223" y="569" type="curve"/>
      <point x="845" y="569" type="line"/>
      <point x="853" y="613"/>
      <point x="856" y="661"/>
      <point x="856" y="744" type="curve"/>
      <point x="847" y="1005"/>
      <point x="712" y="1140"/>
      <point x="506" y="1140" type="curve" smooth="yes"/>
      <point x="249" y="1140"/>
      <point x="52" y="902"/>
      <point x="52" y="560" type="curve" smooth="yes"/>
      <point x="52" y="218"/>
      <point x="200" y="-22"/>
    </contour>
    <contour>
      <point x="224" y="662" type="line"/>
      <point x="239" y="940"/>
      <point x="341" y="1039"/>
      <point x="493" y="1039" type="curve" smooth="yes"/>
      <point x="620" y="1039"/>
      <point x="691" y="914"/>
      <point x="691" y="750" type="curve" smooth="yes"/>
      <point x="691" y="722"/>
      <point x="690" y="697"/>
      <point x="687" y="662" type="curve"/>
    </contour>
  </outline>
</glyph>
<glyph name="f" format="2">
  <advance width="693"/>
  <unicode hex="0066"/>
  <anchor x="477" y="1483" name="top"/>
  <outline>
    <contour>
      <point x="227" y="101" type="line"/>
      <point x="78" y="85" type="line"/>
      <point x="78" y="0" type="line"/>
      <point x="577" y="0" type="line"/>
      <point x="577" y="85" type="line"/>
      <point x="383" y="99" type="line"/>
      <point x="383" y="991" type="line"/>
      <point x="628" y="991" type="line"/>
      <point x="628" y="1110" type="line"/>
      <point x="383" y="1110" type="line"/>
      <point x="383" y="1261" type="line" smooth="yes"/>
      <point x="383" y="1425"/>
      <point x="421" y="1510"/>
      <point x="551" y="1510" type="curve" smooth="yes"/>
      <point x="629" y="1510"/>
      <point x="687" y="1488"/>
      <point x="705" y="1474" type="curve"/>
      <point x="705" y="1635" type="line"/>
      <point x="686" y="1643"/>
      <point x="662" y="1651"/>
      <point x="607" y="1651" type="curve" smooth="yes"/>
      <point x="414" y="1651"/>
      <point x="227" y="1455"/>
      <point x="227" y="1210" type="curve" smooth="yes"/>
      <point x="227" y="1108" type="line"/>
      <point x="58" y="1070" type="line"/>
      <point x="58" y="991" type="line"/>
      <point x="227" y="991" type="line"/>
    </contour>
  </outline>
</glyph>
<glyph name="m" format="2">
  <advance width="1715"/>
  <unicode hex="006D"/>
  <anchor x="954" y="0" name="bottom"/>
  <anchor x="954" y="1110" name="top"/>
  <outline>
    <contour>
      <point x="48" y="0" type="line"/>
      <point x="440" y="0" type="line"/>
      <point x="440" y="86" type="line"/>
      <point x="318" y="102" type="line"/>
      <point x="318" y="880" type="line"/>
      <point x="383" y="942"/>
      <point x="497" y="1014"/>
      <point x="593" y="1014" type="curve" smooth="yes"/>
      <point x="772" y="1014"/>
      <point x="778" y="857"/>
      <point x="778" y="668" type="curve" smooth="yes"/>
      <point x="778" y="102" type="line"/>
      <point x="667" y="86" type="line"/>
      <point x="667" y="0" type="line"/>
      <point x="1058" y="0" type="line"/>
      <point x="1058" y="86" type="line"/>
      <point x="936" y="102" type="line"/>
      <point x="936" y="666" type="line" smooth="yes"/>
      <point x="936" y="762"/>
      <point x="935" y="820"/>
      <point x="927" y="870" type="curve"/>
      <point x="1001" y="942"/>
      <point x="1114" y="1013"/>
      <point x="1212" y="1013" type="curve" smooth="yes"/>
      <point x="1389" y="1013"/>
      <point x="1396" y="857"/>
      <point x="1396" y="664" type="curve" smooth="yes"/>
      <point x="1396" y="102" type="line"/>
      <point x="1285" y="86" type="line"/>
      <point x="1285" y="0" type="line"/>
      <point x="1679" y="0" type="line"/>
      <point x="1679" y="86" type="line"/>
      <point x="1554" y="102" type="line"/>
      <point x="1554" y="670" type="line" smooth="yes"/>
      <point x="1554" y="930"/>
      <point x="1526" y="1135"/>
      <point x="1269" y="1135" type="curve" smooth="yes"/>
      <point x="1148" y="1135"/>
      <point x="992" y="1041"/>
      <point x="910" y="957" type="curve"/>
      <point x="865" y="1073"/>
      <point x="795" y="1136"/>
      <point x="654" y="1136" type="curve" smooth="yes"/>
      <point x="529" y="1136"/>
      <point x="374" y="1041"/>
      <point x="298" y="961" type="curve"/>
      <point x="301" y="1102" type="line"/>
      <point x="264" y="1134" type="line"/>
      <point x="256" y="1134" type="line"/>
      <point x="32" y="1102" type="line"/>
      <point x="32" y="1014" type="line"/>
      <point x="161" y="980" type="line"/>
      <point x="161" y="102" type="line"/>
      <point x="48" y="86" type="line"/>
    </contour>
  </outline>
</glyph>
<glyph name="r" format="2">
  <advance width="838"/>
  <unicode hex="0072"/>
  <anchor x="286" y="0" name="bottom"/>
  <anchor x="444" y="1110" name="top"/>
  <outline>
    <contour>
      <point x="32" y="0" type="line"/>
      <point x="620" y="0" type="line"/>
      <point x="620" y="82" type="line"/>
      <point x="354" y="98" type="line"/>
      <point x="354" y="830" type="line"/>
      <point x="416" y="876"/>
      <point x="524" y="956"/>
      <point x="696" y="956" type="curve" smooth="yes"/>
      <point x="740" y="956"/>
      <point x="780" y="944"/>
      <point x="788" y="938" type="curve"/>
      <point x="788" y="1106" type="line"/>
      <point x="774" y="1110"/>
      <point x="756" y="1114"/>
      <point x="728" y="1114" type="curve" smooth="yes"/>
      <point x="508" y="1114"/>
      <point x="358" y="918"/>
      <point x="334" y="892" type="curve"/>
      <point x="330" y="892" type="line"/>
      <point x="334" y="1070" type="line"/>
      <point x="334" y="1102" type="line"/>
      <point x="296" y="1134" type="line"/>
      <point x="292" y="1134" type="line"/>
      <point x="38" y="1102" type="line"/>
      <point x="38" y="1012" type="line"/>
      <point x="192" y="978" type="line"/>
      <point x="192" y="96" type="line"/>
      <point x="32" y="84" type="line"/>
    </contour>
  </outline>
</glyph>
<glyph name="t" format="2">
  <advance width="634"/>
  <unicode hex="0074"/>
  <anchor x="354" y="0" name="bottom"/>
  <anchor x="311" y="576" name="center"/>
  <anchor x="363" y="-171" name="mark0"/>
  <anchor x="262" y="1309" name="top"/>
  <anchor x="506" y="1110" name="topright"/>
  <outline>
    <contour>
      <point x="338" y="-18" type="curve"/>
      <point x="438" y="-18"/>
      <point x="581" y="40"/>
      <point x="632" y="84" type="curve"/>
      <point x="608" y="158" type="line"/>
      <point x="571" y="136"/>
      <point x="479" y="106"/>
      <point x="411" y="106" type="curve" smooth="yes"/>
      <point x="307" y="106"/>
      <point x="307" y="150"/>
      <point x="307" y="344" type="curve" smooth="yes"/>
      <point x="307" y="991" type="line"/>
      <point x="581" y="991" type="line"/>
      <point x="581" y="1110" type="line"/>
      <point x="307" y="1110" type="line"/>
      <point x="306" y="1394" type="line"/>
      <point x="216" y="1394" type="line"/>
      <point x="208" y="1358"/>
      <point x="179" y="1212"/>
      <point x="163" y="1163" type="curve" smooth="yes"/>
      <point x="152" y="1131"/>
      <point x="141" y="1114"/>
      <point x="124" y="1102" type="curve" smooth="yes"/>
      <point x="108" y="1092"/>
      <point x="57" y="1079"/>
      <point x="22" y="1070" type="curve"/>
      <point x="22" y="991" type="line"/>
      <point x="150" y="991" type="line"/>
      <point x="150" y="205" type="line" smooth="yes"/>
      <point x="150" y="46"/>
      <point x="205" y="-18"/>
    </contour>
  </outline>
</glyph>
<glyph name="u" format="2">
  <advance width="1248"/>
  <unicode hex="0075"/>
  <anchor x="610" y="0" name="bottom"/>
  <anchor x="630" y="-166" name="mark0"/>
  <anchor x="1022" y="20" name="ogonek"/>
  <anchor x="582" y="1110" name="top"/>
  <anchor x="1090" y="1110" name="topright"/>
  <outline>
    <contour>
      <point x="988" y="-18" type="curve" smooth="yes"/>
      <point x="1058" y="-18"/>
      <point x="1110" y="0"/>
      <point x="1154" y="12" type="curve"/>
      <point x="1156" y="88" type="line"/>
      <point x="1032" y="88" type="line"/>
      <point x="1032" y="1110" type="line"/>
      <point x="986" y="1134" type="line"/>
      <point x="984" y="1134" type="line"/>
      <point x="718" y="1108" type="line"/>
      <point x="718" y="1034" type="line"/>
      <point x="870" y="1000" type="line"/>
      <point x="870" y="228" type="line"/>
      <point x="808" y="174"/>
      <point x="694" y="100"/>
      <point x="564" y="100" type="curve" smooth="yes"/>
      <point x="378" y="100"/>
      <point x="340" y="198"/>
      <point x="340" y="436" type="curve" smooth="yes"/>
      <point x="340" y="1110" type="line"/>
      <point x="304" y="1134" type="line"/>
      <point x="302" y="1134" type="line"/>
      <point x="60" y="1108" type="line"/>
      <point x="60" y="1034" type="line"/>
      <point x="178" y="1000" type="line"/>
      <point x="178" y="412" type="line" smooth="yes"/>
      <point x="178" y="108"/>
      <point x="268" y="-22"/>
      <point x="514" y="-22" type="curve" smooth="yes"/>
      <point x="662" y="-22"/>
      <point x="808" y="72"/>
      <point x="888" y="144" type="curve"/>
      <point x="888" y="66" type="line" smooth="yes"/>
      <point x="888" y="-2"/>
      <point x="924" y="-18"/>
    </contour>
  </outline>
</glyph>
<glyph name="v" format="2">
  <advance width="966"/>
  <unicode hex="0076"/>
  <outline>
    <contour>
      <point x="-2" y="1029" type="line"/>
      <point x="77" y="1003" type="line"/>
      <point x="414" y="-16" type="line"/>
      <point x="543" y="-16" type="line"/>
      <point x="889" y="1003" type="line"/>
      <point x="977" y="1029" type="line"/>
      <point x="977" y="1110" type="line"/>
      <point x="640" y="1110" type="line"/>
      <point x="640" y="1029" type="line"/>
      <point x="758" y="1003" type="line"/>
      <point x="569" y="397" type="line"/>
      <point x="501" y="121" type="line"/>
      <point x="422" y="407" type="line"/>
      <point x="253" y="1003" type="line"/>
      <point x="377" y="1029" type="line"/>
      <point x="377" y="1110" type="line"/>
      <point x="-2" y="1110" type="line"/>
    </contour>
  </outline>
</glyph>
<glyph name="exclamdown" format="2">
  <advance width="710"/>
  <unicode hex="00A1"/>
  <outline>
    <contour>
      <point x="108" y="-515" type="line"/>
      <point x="302" y="-515" type="line"/>
      <point x="252" y="823" type="line"/>
      <point x="150" y="823" type="line"/>
    </contour>
    <contour>
      <point x="316" y="1195" type="curve" smooth="yes"/>
      <point x="316" y="1263"/>
      <point x="262" y="1305"/>
      <point x="204" y="1305" type="curve" smooth="yes"/>
      <point x="134" y="1305"/>
      <point x="70" y="1253"/>
      <point x="70" y="1175" type="curve" smooth="yes"/>
      <point x="70" y="1117"/>
      <point x="104" y="1065"/>
      <point x="184" y="1065" type="curve" smooth="yes"/>
      <point x="248" y="1065"/>
      <point x="316" y="1121"/>
    </contour>
  </outline>
</glyph>
<glyph name="cent" format="2">
  <advance width="1008"/>
  <unicode hex="00A2"/>
  <outline>
    <contour>
      <point x="127" y="542" type="curve" smooth="yes"/>
      <point x="128" y="238"/>
      <point x="268" y="16"/>
      <point x="479" y="-16" type="curve"/>
      <point x="469" y="-238" type="line"/>
      <point x="576" y="-238" type="line"/>
      <point x="587" y="-22" type="line"/>
      <point x="698" y="-11"/>
      <point x="811" y="44"/>
      <point x="873" y="120" type="curve"/>
      <point x="843" y="184" type="line"/>
      <point x="792" y="142"/>
      <point x="700" y="92"/>
      <point x="593" y="92" type="curve" smooth="yes"/>
      <point x="422" y="92"/>
      <point x="291" y="255"/>
      <point x="293" y="604" type="curve" smooth="yes"/>
      <point x="295" y="870"/>
      <point x="406" y="1046"/>
      <point x="573" y="1046" type="curve" smooth="yes"/>
      <point x="645" y="1046"/>
      <point x="705" y="1032"/>
      <point x="714" y="986" type="curve" smooth="yes"/>
      <point x="751" y="795" type="line"/>
      <point x="849" y="795" type="line"/>
      <point x="855" y="1081" type="line"/>
      <point x="817" y="1098"/>
      <point x="748" y="1125"/>
      <point x="665" y="1137" type="curve"/>
      <point x="680" y="1364" type="line"/>
      <point x="570" y="1364" type="line"/>
      <point x="557" y="1139" type="line"/>
      <point x="272" y="1106"/>
      <point x="126" y="841"/>
    </contour>
  </outline>
</glyph>
<glyph name="brokenbar" format="2">
  <advance width="735"/>
  <unicode hex="00A6"/>
  <outline>
    <contour>
      <point x="438" y="1738" type="line"/>
      <point x="298" y="1738" type="line"/>
      <point x="298" y="928" type="line"/>
      <point x="438" y="928" type="line"/>
    </contour>
    <contour>
      <point x="438" y="626" type="line"/>
      <point x="298" y="626" type="line"/>
      <point x="298" y="-182" type="line"/>
      <point x="438" y="-182" type="line"/>
    </contour>
  </outline>
</glyph>
<glyph name="section" format="2">
  <advance width="1204"/>
  <unicode hex="00A7"/>
  <outline>
    <contour>
      <point x="287" y="240" type="line"/>
      <point x="188" y="240" type="line"/>
      <point x="169" y="-106" type="line"/>
      <point x="228" y="-112"/>
      <point x="365" y="-198"/>
      <point x="579" y="-198" type="curve" smooth="yes"/>
      <point x="880" y="-198"/>
      <point x="1017" y="-26"/>
      <point x="1017" y="137" type="curve" smooth="yes"/>
      <point x="1017" y="231"/>
      <point x="972" y="300"/>
      <point x="909" y="358" type="curve"/>
      <point x="994" y="432"/>
      <point x="1046" y="523"/>
      <point x="1046" y="629" type="curve" smooth="yes"/>
      <point x="1046" y="869"/>
      <point x="798" y="985"/>
      <point x="655" y="1050" type="curve" smooth="yes"/>
      <point x="500" y="1121"/>
      <point x="348" y="1183"/>
      <point x="348" y="1348" type="curve" smooth="yes"/>
      <point x="348" y="1479"/>
      <point x="444" y="1542"/>
      <point x="607" y="1542" type="curve" smooth="yes"/>
      <point x="718" y="1542"/>
      <point x="789" y="1513"/>
      <point x="811" y="1492" type="curve"/>
      <point x="857" y="1254" type="line"/>
      <point x="950" y="1254" type="line"/>
      <point x="960" y="1572" type="line"/>
      <point x="902" y="1583"/>
      <point x="788" y="1644"/>
      <point x="616" y="1644" type="curve" smooth="yes"/>
      <point x="365" y="1644"/>
      <point x="199" y="1514"/>
      <point x="199" y="1319" type="curve" smooth="yes"/>
      <point x="199" y="1224"/>
      <point x="238" y="1150"/>
      <point x="295" y="1088" type="curve"/>
      <point x="212" y="1024"/>
      <point x="166" y="949"/>
      <point x="166" y="826" type="curve" smooth="yes"/>
      <point x="166" y="575"/>
      <point x="362" y="468"/>
      <point x="529" y="395" type="curve" smooth="yes"/>
      <point x="676" y="331"/>
      <point x="865" y="263"/>
      <point x="865" y="100" type="curve" smooth="yes"/>
      <point x="865" y="-12"/>
      <point x="773" y="-98"/>
      <point x="589" y="-98" type="curve" smooth="yes"/>
      <point x="466" y="-98"/>
      <point x="365" y="-59"/>
      <point x="320" y="-12" type="curve"/>
    </contour>
    <contour>
      <point x="616" y="528" type="curve" smooth="yes"/>
      <point x="427" y="616"/>
      <point x="307" y="687"/>
      <point x="307" y="861" type="curve" smooth="yes"/>
      <point x="307" y="936"/>
      <point x="329" y="981"/>
      <point x="370" y="1025" type="curve"/>
      <point x="435" y="977"/>
      <point x="519" y="939"/>
      <point x="572" y="916" type="curve" smooth="yes"/>
      <point x="758" y="834"/>
      <point x="890" y="763"/>
      <point x="890" y="595" type="curve" smooth="yes"/>
      <point x="890" y="524"/>
      <point x="866" y="466"/>
      <point x="824" y="420" type="curve"/>
      <point x="733" y="473"/>
      <point x="693" y="492"/>
    </contour>
  </outline>
</glyph>
<glyph name="micro" format="2">
  <advance width="1236"/>
  <unicode hex="00B5"/>
  <outline>
    <contour>
      <point x="227" y="-364" type="line"/>
      <point x="371" y="-364" type="line"/>
      <point x="371" y="94" type="line"/>
      <point x="422" y="22"/>
      <point x="520" y="-20"/>
      <point x="612" y="-20" type="curve" smooth="yes"/>
      <point x="729" y="-20"/>
      <point x="831" y="57"/>
      <point x="877" y="154" type="curve"/>
      <point x="877" y="48" type="line" smooth="yes"/>
      <point x="877" y="-4"/>
      <point x="908" y="-26"/>
      <point x="960" y="-26" type="curve" smooth="yes"/>
      <point x="1017" y="-26"/>
      <point x="1095" y="-10"/>
      <point x="1131" y="8" type="curve"/>
      <point x="1131" y="86" type="line"/>
      <point x="1020" y="86" type="line"/>
      <point x="1020" y="1108" type="line"/>
      <point x="994" y="1130" type="line"/>
      <point x="733" y="1106" type="line"/>
      <point x="733" y="1044" type="line"/>
      <point x="864" y="1002" type="line"/>
      <point x="864" y="258" type="line"/>
      <point x="838" y="206"/>
      <point x="759" y="102"/>
      <point x="619" y="102" type="curve" smooth="yes"/>
      <point x="451" y="102"/>
      <point x="382" y="250"/>
      <point x="382" y="318" type="curve" smooth="yes"/>
      <point x="382" y="1108" type="line"/>
      <point x="349" y="1130" type="line"/>
      <point x="114" y="1104" type="line"/>
      <point x="114" y="1046" type="line"/>
      <point x="227" y="1002" type="line"/>
    </contour>
  </outline>
</glyph>
<glyph name="eth" format="2">
  <advance width="1144"/>
  <unicode hex="00F0"/>
  <outline>
    <contour>
      <point x="578" y="-22" type="curve" smooth="yes"/>
      <point x="930" y="-22"/>
      <point x="1062" y="370"/>
      <point x="1062" y="646" type="curve" smooth="yes"/>
      <point x="1062" y="1084"/>
      <point x="870" y="1408"/>
      <point x="530" y="1622" type="curve"/>
      <point x="546" y="1546" type="line"/>
      <point x="726" y="1720" type="line"/>
      <point x="646" y="1784" type="line"/>
      <point x="460" y="1598" type="line"/>
      <point x="532" y="1622" type="line"/>
      <point x="424" y="1682"/>
      <point x="320" y="1716"/>
      <point x="194" y="1756" type="curve"/>
      <point x="160" y="1668" type="line"/>
      <point x="232" y="1648"/>
      <point x="390" y="1588"/>
      <point x="452" y="1536" type="curve"/>
      <point x="472" y="1622" type="line"/>
      <point x="270" y="1428" type="line"/>
      <point x="358" y="1368" type="line"/>
      <point x="556" y="1566" type="line"/>
      <point x="450" y="1534" type="line"/>
      <point x="638" y="1432"/>
      <point x="744" y="1254"/>
      <point x="812" y="1096" type="curve"/>
      <point x="764" y="1120"/>
      <point x="680" y="1140"/>
      <point x="596" y="1140" type="curve" smooth="yes"/>
      <point x="330" y="1140"/>
      <point x="84" y="932"/>
      <point x="84" y="518" type="curve" smooth="yes"/>
      <point x="84" y="248"/>
      <point x="234" y="-22"/>
    </contour>
    <contour>
      <point x="582" y="74" type="curve" smooth="yes"/>
      <point x="344" y="74"/>
      <point x="262" y="332"/>
      <point x="262" y="530" type="curve" smooth="yes"/>
      <point x="262" y="856"/>
      <point x="396" y="1052"/>
      <point x="592" y="1052" type="curve" smooth="yes"/>
      <point x="728" y="1052"/>
      <point x="812" y="1002"/>
      <point x="840" y="972" type="curve"/>
      <point x="856" y="922"/>
      <point x="884" y="790"/>
      <point x="884" y="634" type="curve" smooth="yes"/>
      <point x="884" y="344"/>
      <point x="794" y="74"/>
    </contour>
  </outline>
</glyph>
<glyph name="eogonek" format="2">
  <advance width="1051"/>
  <unicode hex="0119"/>
  <anchor x="670" y="20" name="_ogonek"/>
  <anchor x="518" y="0" name="bottom"/>
  <anchor x="572" y="-166" name="mark0"/>
  <anchor x="670" y="20" name="ogonek"/>
  <anchor x="582" y="1110" name="top"/>
  <outline>
    <contour>
      <point x="552" y="-486" type="curve" smooth="yes"/>
      <point x="714" y="-486"/>
      <point x="790" y="-428"/>
      <point x="840" y="-394" type="curve"/>
      <point x="838" y="-304" type="line"/>
      <point x="804" y="-324"/>
      <point x="716" y="-382"/>
      <point x="624" y="-382" type="curve" smooth="yes"/>
      <point x="530" y="-382"/>
      <point x="478" y="-350"/>
      <point x="478" y="-254" type="curve" smooth="yes"/>
      <point x="478" y="-168"/>
      <point x="628" y="-38"/>
      <point x="748" y="10" type="curve"/>
      <point x="830" y="36"/>
      <point x="902" y="76"/>
      <point x="946" y="120" type="curve"/>
      <point x="914" y="194" type="line"/>
      <point x="852" y="140"/>
      <point x="720" y="92"/>
      <point x="606" y="92" type="curve" smooth="yes"/>
      <point x="368" y="92"/>
      <point x="244" y="298"/>
      <point x="244" y="568" type="curve"/>
      <point x="956" y="568" type="line"/>
      <point x="966" y="612"/>
      <point x="968" y="668"/>
      <point x="968" y="744" type="curve"/>
      <point x="958" y="1002"/>
      <point x="820" y="1140"/>
      <point x="584" y="1140" type="curve" smooth="yes"/>
      <point x="290" y="1140"/>
      <point x="72" y="904"/>
      <point x="72" y="560" type="curve" smooth="yes"/>
      <point x="72" y="218"/>
      <point x="238" y="-22"/>
      <point x="554" y="-22" type="curve"/>
      <point x="436" y="-92"/>
      <point x="328" y="-182"/>
      <point x="328" y="-300" type="curve" smooth="yes"/>
      <point x="328" y="-428"/>
      <point x="440" y="-486"/>
    </contour>
    <contour>
      <point x="246" y="662" type="line"/>
      <point x="264" y="940"/>
      <point x="384" y="1038"/>
      <point x="544" y="1038" type="curve" smooth="yes"/>
      <point x="722" y="1038"/>
      <point x="792" y="914"/>
      <point x="794" y="750" type="curve" smooth="yes"/>
      <point x="794" y="722"/>
      <point x="792" y="690"/>
      <point x="788" y="662" type="curve"/>
    </contour>
  </outline>
</glyph>
<glyph name="iogonek" format="2">
  <advance width="513"/>
  <unicode hex="012F"/>
  <anchor x="312" y="0" name="bottom"/>
  <anchor x="306" y="-166" name="mark0"/>
  <anchor x="392" y="20" name="ogonek"/>
  <anchor x="256" y="1496" name="top"/>
  <outline>
    <contour>
      <point x="226" y="-486" type="curve" smooth="yes"/>
      <point x="339" y="-486"/>
      <point x="403" y="-428"/>
      <point x="445" y="-390" type="curve"/>
      <point x="445" y="-304" type="line"/>
      <point x="417" y="-324"/>
      <point x="352" y="-364"/>
      <point x="273" y="-364" type="curve" smooth="yes"/>
      <point x="210" y="-364"/>
      <point x="166" y="-322"/>
      <point x="166" y="-238" type="curve" smooth="yes"/>
      <point x="166" y="-156"/>
      <point x="240" y="-53"/>
      <point x="339" y="0" type="curve"/>
      <point x="270" y="43" type="line"/>
      <point x="226" y="0" type="line"/>
      <point x="114" y="-65"/>
      <point x="29" y="-196"/>
      <point x="29" y="-302" type="curve" smooth="yes"/>
      <point x="29" y="-444"/>
      <point x="144" y="-486"/>
    </contour>
    <component base="i"/>
  </outline>
</glyph>
<glyph name="eng" format="2">
  <advance width="1280"/>
  <unicode hex="014B"/>
  <outline>
    <contour>
      <point x="190" y="102" type="line"/>
      <point x="54" y="86" type="line"/>
      <point x="54" y="0" type="line"/>
      <point x="494" y="0" type="line"/>
      <point x="494" y="86" type="line"/>
      <point x="350" y="102" type="line"/>
      <point x="350" y="880" type="line"/>
      <point x="434" y="944"/>
      <point x="572" y="1012"/>
      <point x="684" y="1012" type="curve" smooth="yes"/>
      <point x="880" y="1012"/>
      <point x="910" y="904"/>
      <point x="910" y="674" type="curve" smooth="yes"/>
      <point x="910" y="44" type="line" smooth="yes"/>
      <point x="910" y="-178"/>
      <point x="874" y="-346"/>
      <point x="748" y="-382" type="curve"/>
      <point x="720" y="-392"/>
      <point x="662" y="-402"/>
      <point x="642" y="-398" type="curve"/>
      <point x="650" y="-482" type="line"/>
      <point x="662" y="-490"/>
      <point x="740" y="-490"/>
      <point x="756" y="-490" type="curve"/>
      <point x="956" y="-474"/>
      <point x="1072" y="-310"/>
      <point x="1072" y="22" type="curve" smooth="yes"/>
      <point x="1072" y="674" type="line" smooth="yes"/>
      <point x="1072" y="996"/>
      <point x="1010" y="1138"/>
      <point x="752" y="1138" type="curve" smooth="yes"/>
      <point x="602" y="1138"/>
      <point x="418" y="1042"/>
      <point x="330" y="966" type="curve"/>
      <point x="332" y="1022" type="line"/>
      <point x="332" y="1104" type="line"/>
      <point x="294" y="1136" type="line"/>
      <point x="288" y="1136" type="line"/>
      <point x="32" y="1104" type="line"/>
      <point x="32" y="1014" type="line"/>
      <point x="190" y="980" type="line"/>
    </contour>
  </outline>
</glyph>
<glyph name="OE" format="2">
  <advance width="2017"/>
  <unicode hex="0152"/>
  <outline>
    <contour>
      <point x="978" y="64" type="curve"/>
      <point x="978" y="0" type="line"/>
      <point x="1894" y="0" type="line"/>
      <point x="1970" y="342" type="line"/>
      <point x="1876" y="368" type="line"/>
      <point x="1760" y="118" type="line"/>
      <point x="1140" y="98" type="line"/>
      <point x="1140" y="720" type="line"/>
      <point x="1512" y="714" type="line"/>
      <point x="1536" y="542" type="line"/>
      <point x="1638" y="542" type="line"/>
      <point x="1638" y="984" type="line"/>
      <point x="1536" y="984" type="line"/>
      <point x="1512" y="820" type="line"/>
      <point x="1140" y="814" type="line"/>
      <point x="1140" y="1390" type="line"/>
      <point x="1678" y="1380" type="line"/>
      <point x="1732" y="1186" type="line"/>
      <point x="1826" y="1186" type="line"/>
      <point x="1798" y="1486" type="line"/>
      <point x="978" y="1486" type="line"/>
      <point x="978" y="1456" type="line"/>
      <point x="900" y="1494"/>
      <point x="810" y="1512"/>
      <point x="710" y="1510" type="curve" smooth="yes"/>
      <point x="340" y="1502"/>
      <point x="42" y="1206"/>
      <point x="42" y="734" type="curve" smooth="yes"/>
      <point x="42" y="286"/>
      <point x="276" y="-24"/>
      <point x="680" y="-16" type="curve"/>
      <point x="788" y="-12"/>
      <point x="888" y="14"/>
    </contour>
    <contour>
      <point x="692" y="78" type="curve" smooth="yes"/>
      <point x="390" y="78"/>
      <point x="220" y="374"/>
      <point x="220" y="734" type="curve" smooth="yes"/>
      <point x="220" y="1174"/>
      <point x="410" y="1418"/>
      <point x="696" y="1418" type="curve" smooth="yes"/>
      <point x="828" y="1418"/>
      <point x="916" y="1378"/>
      <point x="978" y="1318" type="curve"/>
      <point x="978" y="192" type="line"/>
      <point x="908" y="118"/>
      <point x="812" y="78"/>
    </contour>
  </outline>
</glyph>
<glyph name="Tbar" format="2">
  <advance width="1362"/>
  <unicode hex="0166"/>
  <anchor x="614" y="0" name="bottom"/>
  <anchor x="614" y="744" name="center"/>
  <anchor x="614" y="1486" name="top"/>
  <outline>
    <contour>
      <point x="1022" y="746" type="line"/>
      <point x="348" y="746" type="line"/>
      <point x="348" y="638" type="line"/>
      <point x="1022" y="638" type="line"/>
    </contour>
    <component base="T"/>
  </outline>
</glyph>
<glyph name="Schwa" format="2">
  <advance width="1202"/>
  <unicode hex="018F"/>
  <outline>
    <contour>
      <point x="563" y="-22" type="curve" smooth="yes"/>
      <point x="903" y="-22"/>
      <point x="1160" y="292"/>
      <point x="1160" y="752" type="curve" smooth="yes"/>
      <point x="1160" y="1198"/>
      <point x="946" y="1502"/>
      <point x="609" y="1502" type="curve" smooth="yes"/>
      <point x="351" y="1502"/>
      <point x="243" y="1430"/>
      <point x="139" y="1424" type="curve"/>
      <point x="128" y="1138" type="line"/>
      <point x="226" y="1138" type="line"/>
      <point x="260" y="1298" type="line"/>
      <point x="314" y="1346"/>
      <point x="403" y="1404"/>
      <point x="580" y="1404" type="curve" smooth="yes"/>
      <point x="820" y="1404"/>
      <point x="989" y="1164"/>
      <point x="1004" y="762" type="curve"/>
      <point x="105" y="762" type="line"/>
      <point x="96" y="716"/>
      <point x="96" y="650"/>
      <point x="96" y="568" type="curve"/>
      <point x="103" y="192"/>
      <point x="284" y="-22"/>
    </contour>
    <contour>
      <point x="602" y="86" type="curve" smooth="yes"/>
      <point x="360" y="86"/>
      <point x="254" y="334"/>
      <point x="254" y="554" type="curve" smooth="yes"/>
      <point x="254" y="592"/>
      <point x="256" y="628"/>
      <point x="262" y="664" type="curve"/>
      <point x="1004" y="664" type="line"/>
      <point x="994" y="252"/>
      <point x="821" y="86"/>
    </contour>
  </outline>
</glyph>
<glyph name="florin" format="2">
  <advance width="877"/>
  <unicode hex="0192"/>
  <outline>
    <contour>
      <point x="103" y="990" type="line"/>
      <point x="284" y="990" type="line"/>
      <point x="184" y="-348" type="line"/>
      <point x="338" y="-348" type="line"/>
      <point x="443" y="990" type="line"/>
      <point x="723" y="990" type="line"/>
      <point x="731" y="1108" type="line"/>
      <point x="451" y="1108" type="line"/>
      <point x="466" y="1244" type="line"/>
      <point x="482" y="1462"/>
      <point x="559" y="1516"/>
      <point x="663" y="1516" type="curve" smooth="yes"/>
      <point x="746" y="1516"/>
      <point x="791" y="1500"/>
      <point x="808" y="1488" type="curve"/>
      <point x="824" y="1628" type="line"/>
      <point x="811" y="1636"/>
      <point x="767" y="1646"/>
      <point x="694" y="1646" type="curve" smooth="yes"/>
      <point x="516" y="1646"/>
      <point x="327" y="1484"/>
      <point x="306" y="1188" type="curve"/>
      <point x="296" y="1108" type="line"/>
      <point x="109" y="1062" type="line"/>
    </contour>
  </outline>
</glyph>
<glyph name="Ohorn" format="2">
  <advance width="1202"/>
  <unicode hex="01A0"/>
  <anchor x="1294" y="20" name="ogonek"/>
  <anchor x="601" y="-21" name="bottom"/>
  <anchor x="604" y="765" name="center"/>
  <anchor x="602" y="1486" name="top"/>
  <anchor x="15" y="1486" name="topleft"/>
  <anchor x="909" y="1486" name="topright"/>
  <outline>
    <contour>
      <point x="856" y="1302" type="line"/>
      <point x="1100" y="1302"/>
      <point x="1224" y="1478"/>
      <point x="1224" y="1686" type="curve" smooth="yes"/>
      <point x="1224" y="1700"/>
      <point x="1222" y="1714"/>
      <point x="1220" y="1730" type="curve"/>
      <point x="1070" y="1730" type="line"/>
      <point x="1072" y="1722"/>
      <point x="1072" y="1710"/>
      <point x="1072" y="1696" type="curve" smooth="yes"/>
      <point x="1072" y="1596"/>
      <point x="1014" y="1408"/>
      <point x="822" y="1408" type="curve"/>
    </contour>
    <component base="O"/>
  </outline>
</glyph>
<glyph name="ringhalfright" format="2">
  <unicode hex="02BE"/>
  <outline>
    <contour>
      <point x="0" y="1298" type="line"/>
      <point x="127" y="1298"/>
      <point x="238" y="1396"/>
      <point x="238" y="1532" type="curve" smooth="yes"/>
      <point x="238" y="1668"/>
      <point x="127" y="1766"/>
      <point x="0" y="1766" type="curve"/>
      <point x="0" y="1686" type="line"/>
      <point x="74" y="1686"/>
      <point x="124" y="1624"/>
      <point x="124" y="1532" type="curve" smooth="yes"/>
      <point x="124" y="1440"/>
      <point x="74" y="1378"/>
      <point x="0" y="1378" type="curve"/>
    </contour>
  </outline>
</glyph>
<glyph name="gravecomb" format="2">
  <unicode hex="0300"/>
  <anchor x="0" y="1110" name="_top"/>
  <anchor x="0" y="1756" name="top"/>
  <outline>
    <contour>
      <point x="37" y="1298" type="curve"/>
      <point x="39" y="1298" type="line"/>
      <point x="103" y="1352" type="line"/>
      <point x="-149" y="1738" type="line"/>
      <point x="-293" y="1638" type="line"/>
      <point x="-248" y="1553"/>
      <point x="-59" y="1352"/>
    </contour>
  </outline>
</glyph>
<glyph name="acutecomb" format="2">
  <unicode hex="0301"/>
  <anchor x="0" y="1110" name="_top"/>
  <anchor x="0" y="1500" name="top"/>
  <outline>
    <contour>
      <point x="-37" y="1298" type="line"/>
      <point x="59" y="1352"/>
      <point x="248" y="1553"/>
      <point x="293" y="1638" type="curve"/>
      <point x="149" y="1738" type="line"/>
      <point x="-103" y="1352" type="line"/>
      <point x="-39" y="1298" type="line"/>
    </contour>
  </outline>
</glyph>
<glyph name="hookabovecomb" format="2">
  <unicode hex="0309"/>
  <anchor x="0" y="1110" name="_top"/>
  <anchor x="0" y="1520" name="top"/>
  <outline>
    <contour>
      <point x="-54" y="1252" type="curve"/>
      <point x="52" y="1252" type="line"/>
      <point x="31" y="1310"/>
      <point x="33" y="1350"/>
      <point x="77" y="1386" type="curve" smooth="yes"/>
      <point x="127" y="1427"/>
      <point x="188" y="1471"/>
      <point x="188" y="1578" type="curve" smooth="yes"/>
      <point x="188" y="1706"/>
      <point x="86" y="1784"/>
      <point x="-28" y="1784" type="curve" smooth="yes"/>
      <point x="-84" y="1784"/>
      <point x="-117" y="1774"/>
      <point x="-152" y="1756" type="curve"/>
      <point x="-152" y="1632" type="line"/>
      <point x="-128" y="1644"/>
      <point x="-104" y="1650"/>
      <point x="-72" y="1650" type="curve" smooth="yes"/>
      <point x="-16" y="1650"/>
      <point x="29" y="1608"/>
      <point x="29" y="1556" type="curve" smooth="yes"/>
      <point x="29" y="1468"/>
      <point x="-80" y="1438"/>
      <point x="-80" y="1346" type="curve" smooth="yes"/>
      <point x="-80" y="1306"/>
      <point x="-68" y="1280"/>
    </contour>
  </outline>
</glyph>
<glyph name="hungarumlautcomb" format="2">
  <unicode hex="030B"/>
  <anchor x="0" y="1110" name="_top"/>
  <anchor x="0" y="1606" name="top"/>
  <outline>
    <contour>
      <point x="-166" y="1298" type="line"/>
      <point x="-86" y="1368"/>
      <point x="82" y="1552"/>
      <point x="133" y="1655" type="curve"/>
      <point x="11" y="1738" type="line"/>
      <point x="-232" y="1352" type="line"/>
      <point x="-168" y="1298" type="line"/>
    </contour>
    <contour>
      <point x="210" y="1298" type="line"/>
      <point x="291" y="1368"/>
      <point x="459" y="1552"/>
      <point x="509" y="1655" type="curve"/>
      <point x="387" y="1738" type="line"/>
      <point x="144" y="1352" type="line"/>
      <point x="208" y="1298" type="line"/>
    </contour>
  </outline>
</glyph>
<glyph name="pi" format="2">
  <advance width="1614"/>
  <unicode hex="03C0"/>
  <outline>
    <contour>
      <point x="237" y="82" type="curve"/>
      <point x="314" y="-16" type="line"/>
      <point x="464" y="12"/>
      <point x="561" y="92"/>
      <point x="613" y="422" type="curve" smooth="yes"/>
      <point x="705" y="988" type="line"/>
      <point x="983" y="988" type="line"/>
      <point x="907" y="476"/>
      <point x="881" y="302"/>
      <point x="867" y="154" type="curve"/>
      <point x="863" y="50"/>
      <point x="911" y="-16"/>
      <point x="1002" y="-16" type="curve" smooth="yes"/>
      <point x="1173" y="-16"/>
      <point x="1286" y="156"/>
      <point x="1316" y="290" type="curve"/>
      <point x="1226" y="290" type="line"/>
      <point x="1196" y="172"/>
      <point x="1110" y="110"/>
      <point x="1046" y="110" type="curve" smooth="yes"/>
      <point x="1017" y="110"/>
      <point x="987" y="140"/>
      <point x="990" y="206" type="curve"/>
      <point x="1001" y="286"/>
      <point x="1025" y="378"/>
      <point x="1094" y="988" type="curve"/>
      <point x="1115" y="988" type="line" smooth="yes"/>
      <point x="1259" y="988"/>
      <point x="1369" y="1034"/>
      <point x="1393" y="1204" type="curve"/>
      <point x="1307" y="1204" type="line"/>
      <point x="1275" y="1126"/>
      <point x="1238" y="1110"/>
      <point x="1141" y="1110" type="curve" smooth="yes"/>
      <point x="569" y="1110" type="line" smooth="yes"/>
      <point x="422" y="1110"/>
      <point x="258" y="1014"/>
      <point x="258" y="856" type="curve"/>
      <point x="342" y="842" type="line"/>
      <point x="358" y="904"/>
      <point x="434" y="988"/>
      <point x="538" y="988" type="curve" smooth="yes"/>
      <point x="605" y="988" type="line"/>
      <point x="499" y="466" type="line" smooth="yes"/>
      <point x="462" y="282"/>
      <point x="448" y="144"/>
    </contour>
  </outline>
</glyph>
<glyph name="Lje-cy" format="2">
  <advance width="1718"/>
  <unicode hex="0409"/>
  <outline>
    <contour>
      <point x="110" y="-10" type="curve" smooth="yes"/>
      <point x="204" y="-10"/>
      <point x="273" y="34"/>
      <point x="330" y="133" type="curve" smooth="yes"/>
      <point x="443" y="329"/>
      <point x="504" y="750"/>
      <point x="515" y="1184" type="curve" smooth="yes"/>
      <point x="520" y="1380" type="line"/>
      <point x="816" y="1380" type="line"/>
      <point x="816" y="106" type="line"/>
      <point x="634" y="86" type="line"/>
      <point x="634" y="0" type="line"/>
      <point x="900" y="0" type="line" smooth="yes"/>
      <point x="976" y="0"/>
      <point x="1128" y="-8"/>
      <point x="1187" y="-8" type="curve" smooth="yes"/>
      <point x="1466" y="-8"/>
      <point x="1674" y="191"/>
      <point x="1674" y="507" type="curve" smooth="yes"/>
      <point x="1674" y="790"/>
      <point x="1508" y="924"/>
      <point x="1204" y="924" type="curve" smooth="yes"/>
      <point x="1127" y="924"/>
      <point x="1055" y="915"/>
      <point x="973" y="904" type="curve"/>
      <point x="973" y="1378" type="line"/>
      <point x="1135" y="1400" type="line"/>
      <point x="1135" y="1486" type="line"/>
      <point x="260" y="1486" type="line"/>
      <point x="260" y="1400" type="line"/>
      <point x="411" y="1378" type="line"/>
      <point x="407" y="1195" type="line" smooth="yes"/>
      <point x="397" y="728"/>
      <point x="335" y="392"/>
      <point x="236" y="229" type="curve" smooth="yes"/>
      <point x="203" y="175"/>
      <point x="167" y="152"/>
      <point x="119" y="152" type="curve" smooth="yes"/>
      <point x="54" y="152"/>
      <point x="28" y="156"/>
      <point x="10" y="160" type="curve"/>
      <point x="17" y="0" type="line"/>
      <point x="35" y="-4"/>
      <point x="63" y="-10"/>
    </contour>
    <contour>
      <point x="1142" y="87" type="curve" smooth="yes"/>
      <point x="1068" y="87"/>
      <point x="1003" y="92"/>
      <point x="973" y="99" type="curve"/>
      <point x="973" y="801" type="line"/>
      <point x="1037" y="811"/>
      <point x="1094" y="820"/>
      <point x="1167" y="820" type="curve" smooth="yes"/>
      <point x="1385" y="820"/>
      <point x="1507" y="735"/>
      <point x="1507" y="474" type="curve" smooth="yes"/>
      <point x="1507" y="216"/>
      <point x="1375" y="87"/>
    </contour>
  </outline>
</glyph>
<glyph name="Dzhe-cy" format="2">
  <advance width="1304"/>
  <unicode hex="040F"/>
  <outline>
    <contour>
      <point x="608" y="-360" type="curve"/>
      <point x="722" y="-360" type="line"/>
      <point x="732" y="-240"/>
      <point x="744" y="-120"/>
      <point x="754" y="0" type="curve"/>
      <point x="1246" y="0" type="line"/>
      <point x="1246" y="86" type="line"/>
      <point x="1092" y="104" type="line"/>
      <point x="1092" y="1378" type="line"/>
      <point x="1226" y="1400" type="line"/>
      <point x="1226" y="1486" type="line"/>
      <point x="789" y="1486" type="line"/>
      <point x="789" y="1400" type="line"/>
      <point x="936" y="1378" type="line"/>
      <point x="936" y="107" type="line"/>
      <point x="366" y="107" type="line"/>
      <point x="366" y="1378" type="line"/>
      <point x="535" y="1400" type="line"/>
      <point x="535" y="1486" type="line"/>
      <point x="66" y="1486" type="line"/>
      <point x="66" y="1400" type="line"/>
      <point x="210" y="1378" type="line"/>
      <point x="210" y="106" type="line"/>
      <point x="58" y="86" type="line"/>
      <point x="58" y="0" type="line"/>
      <point x="574" y="0" type="line"/>
      <point x="576" y="-2"/>
      <point x="608" y="-354"/>
    </contour>
  </outline>
</glyph>
<glyph name="Ka-cy" format="2">
  <advance width="1157"/>
  <unicode hex="041A"/>
  <anchor x="1134" y="0" name="bottomright"/>
  <anchor x="602" y="1516" name="top"/>
  <outline>
    <contour>
      <point x="58" y="0" type="line"/>
      <point x="512" y="0" type="line"/>
      <point x="512" y="85" type="line"/>
      <point x="357" y="107" type="line"/>
      <point x="357" y="704" type="line"/>
      <point x="437" y="704" type="line" smooth="yes"/>
      <point x="499" y="704"/>
      <point x="581" y="574"/>
      <point x="665" y="426" type="curve" smooth="yes"/>
      <point x="775" y="229"/>
      <point x="888" y="0"/>
      <point x="959" y="0" type="curve"/>
      <point x="1137" y="0" type="line"/>
      <point x="1137" y="87" type="line"/>
      <point x="1085" y="105" type="line" smooth="yes"/>
      <point x="1022" y="130"/>
      <point x="881" y="369"/>
      <point x="757" y="568" type="curve" smooth="yes"/>
      <point x="691" y="674"/>
      <point x="634" y="754"/>
      <point x="589" y="783" type="curve"/>
      <point x="987" y="1377" type="line"/>
      <point x="1113" y="1399" type="line"/>
      <point x="1113" y="1486" type="line"/>
      <point x="694" y="1486" type="line"/>
      <point x="694" y="1399" type="line"/>
      <point x="849" y="1377" type="line"/>
      <point x="477" y="793" type="line"/>
      <point x="357" y="793" type="line"/>
      <point x="357" y="1377" type="line"/>
      <point x="508" y="1399" type="line"/>
      <point x="508" y="1486" type="line"/>
      <point x="58" y="1486" type="line"/>
      <point x="58" y="1399" type="line"/>
      <point x="198" y="1377" type="line"/>
      <point x="198" y="107" type="line"/>
      <point x="58" y="89" type="line"/>
    </contour>
  </outline>
</glyph>
<glyph name="Pe-cy" format="2">
  <advance width="1303"/>
  <unicode hex="041F"/>
  <anchor x="907" y="0" name="bottomright"/>
  <outline>
    <contour>
      <point x="64" y="1486" type="line"/>
      <point x="64" y="1400" type="line"/>
      <point x="216" y="1378" type="line"/>
      <point x="216" y="104" type="line"/>
      <point x="58" y="86" type="line"/>
      <point x="58" y="0" type="line"/>
      <point x="533" y="0" type="line"/>
      <point x="533" y="86" type="line"/>
      <point x="374" y="104" type="line"/>
      <point x="374" y="1380" type="line"/>
      <point x="929" y="1380" type="line"/>
      <point x="929" y="106" type="line"/>
      <point x="772" y="86" type="line"/>
      <point x="772" y="0" type="line"/>
      <point x="1245" y="0" type="line"/>
      <point x="1245" y="86" type="line"/>
      <point x="1087" y="106" type="line"/>
      <point x="1087" y="1376" type="line"/>
      <point x="1239" y="1400" type="line"/>
      <point x="1239" y="1486" type="line"/>
    </contour>
  </outline>
</glyph>
<glyph name="Ef-cy" format="2">
  <advance width="1474"/>
  <unicode hex="0424"/>
  <outline>
    <contour>
      <point x="482" y="-43" type="line"/>
      <point x="993" y="-43" type="line"/>
      <point x="993" y="39" type="line"/>
      <point x="811" y="62" type="line"/>
      <point x="811" y="225" type="line"/>
      <point x="1209" y="255"/>
      <point x="1432" y="484"/>
      <point x="1432" y="766" type="curve" smooth="yes"/>
      <point x="1432" y="1017"/>
      <point x="1337" y="1273"/>
      <point x="811" y="1292" type="curve"/>
      <point x="811" y="1421" type="line"/>
      <point x="991" y="1442" type="line"/>
      <point x="991" y="1526" type="line"/>
      <point x="482" y="1526" type="line"/>
      <point x="482" y="1442" type="line"/>
      <point x="664" y="1421" type="line"/>
      <point x="664" y="1290" type="line"/>
      <point x="265" y="1265"/>
      <point x="42" y="1041"/>
      <point x="42" y="751" type="curve" smooth="yes"/>
      <point x="42" y="506"/>
      <point x="143" y="244"/>
      <point x="664" y="223" type="curve"/>
      <point x="664" y="64" type="line"/>
      <point x="482" y="43" type="line"/>
    </contour>
    <contour>
      <point x="664" y="307" type="line"/>
      <point x="279" y="333"/>
      <point x="212" y="572"/>
      <point x="212" y="754" type="curve" smooth="yes"/>
      <point x="212" y="977"/>
      <point x="299" y="1184"/>
      <point x="664" y="1207" type="curve"/>
    </contour>
    <contour>
      <point x="811" y="308" type="curve"/>
      <point x="811" y="1208" type="line"/>
      <point x="1193" y="1184"/>
      <point x="1262" y="970"/>
      <point x="1262" y="774" type="curve" smooth="yes"/>
      <point x="1262" y="546"/>
      <point x="1169" y="335"/>
    </contour>
  </outline>
</glyph>
<glyph name="Tse-cy" format="2">
  <advance width="1359"/>
  <unicode hex="0426"/>
  <outline>
    <contour>
      <point x="1145" y="-360" type="curve"/>
      <point x="1249" y="-360" type="line"/>
      <point x="1251" y="-358"/>
      <point x="1301" y="104"/>
      <point x="1301" y="106" type="curve"/>
      <point x="1091" y="106" type="line"/>
      <point x="1091" y="1378" type="line"/>
      <point x="1233" y="1400" type="line"/>
      <point x="1233" y="1486" type="line"/>
      <point x="800" y="1486" type="line"/>
      <point x="800" y="1400" type="line"/>
      <point x="933" y="1378" type="line"/>
      <point x="933" y="104" type="line"/>
      <point x="384" y="104" type="line"/>
      <point x="384" y="1378" type="line"/>
      <point x="563" y="1400" type="line"/>
      <point x="563" y="1486" type="line"/>
      <point x="80" y="1486" type="line"/>
      <point x="80" y="1400" type="line"/>
      <point x="228" y="1378" type="line"/>
      <point x="228" y="108" type="line"/>
      <point x="58" y="84" type="line"/>
      <point x="58" y="0" type="line"/>
      <point x="1127" y="0" type="line"/>
      <point x="1129" y="-14"/>
      <point x="1145" y="-320"/>
    </contour>
  </outline>
</glyph>
<glyph name="Sha-cy" format="2">
  <advance width="1892"/>
  <unicode hex="0428"/>
  <outline>
    <contour>
      <point x="84" y="1486" type="line"/>
      <point x="84" y="1400" type="line"/>
      <point x="230" y="1378" type="line"/>
      <point x="230" y="104" type="line"/>
      <point x="58" y="86" type="line"/>
      <point x="58" y="0" type="line"/>
      <point x="1834" y="0" type="line"/>
      <point x="1834" y="86" type="line"/>
      <point x="1666" y="106" type="line"/>
      <point x="1666" y="1378" type="line"/>
      <point x="1808" y="1400" type="line"/>
      <point x="1808" y="1486" type="line"/>
      <point x="1377" y="1486" type="line"/>
      <point x="1377" y="1400" type="line"/>
      <point x="1510" y="1378" type="line"/>
      <point x="1510" y="107" type="line"/>
      <point x="1026" y="107" type="line"/>
      <point x="1026" y="1378" type="line"/>
      <point x="1161" y="1400" type="line"/>
      <point x="1161" y="1486" type="line"/>
      <point x="739" y="1486" type="line"/>
      <point x="739" y="1400" type="line"/>
      <point x="870" y="1378" type="line"/>
      <point x="870" y="107" type="line"/>
      <point x="386" y="107" type="line"/>
      <point x="386" y="1376" type="line"/>
      <point x="551" y="1400" type="line"/>
      <point x="551" y="1486" type="line"/>
    </contour>
  </outline>
</glyph>
<glyph name="ge-cy" format="2">
  <advance width="909"/>
  <unicode hex="0433"/>
  <anchor x="268" y="0" name="bottomright"/>
  <anchor x="510" y="556" name="center"/>
  <anchor x="510" y="1110" name="top"/>
  <outline>
    <contour>
      <point x="94" y="1110" type="line"/>
      <point x="94" y="1025" type="line"/>
      <point x="230" y="995" type="line"/>
      <point x="230" y="101" type="line"/>
      <point x="91" y="85" type="line"/>
      <point x="91" y="0" type="line"/>
      <point x="591" y="0" type="line"/>
      <point x="591" y="85" type="line"/>
      <point x="386" y="101" type="line"/>
      <point x="386" y="1009" type="line"/>
      <point x="713" y="1001" type="line"/>
      <point x="756" y="709" type="line"/>
      <point x="853" y="709" type="line"/>
      <point x="845" y="1110" type="line"/>
    </contour>
  </outline>
</glyph>
<glyph name="de-cy" format="2">
  <advance width="1081"/>
  <unicode hex="0434"/>
  <outline>
    <contour>
      <point x="1015" y="99" type="curve"/>
      <point x="863" y="99" type="line"/>
      <point x="863" y="995" type="line"/>
      <point x="989" y="1025" type="line"/>
      <point x="989" y="1110" type="line"/>
      <point x="164" y="1110" type="line"/>
      <point x="164" y="1025" type="line"/>
      <point x="300" y="995" type="line"/>
      <point x="300" y="597"/>
      <point x="231" y="149"/>
      <point x="117" y="99" type="curve"/>
      <point x="33" y="99" type="line"/>
      <point x="28" y="-51"/>
      <point x="23" y="-190"/>
      <point x="18" y="-359" type="curve"/>
      <point x="124" y="-359" type="line"/>
      <point x="132" y="-317"/>
      <point x="183" y="-3"/>
      <point x="185" y="0" type="curve"/>
      <point x="848" y="0" type="line"/>
      <point x="853" y="-3"/>
      <point x="868" y="-315"/>
      <point x="871" y="-359" type="curve"/>
      <point x="971" y="-359" type="line"/>
      <point x="987" y="-199"/>
      <point x="1002" y="-45"/>
    </contour>
    <contour>
      <point x="396" y="868" type="curve" smooth="yes"/>
      <point x="399" y="1005" type="line"/>
      <point x="707" y="1005" type="line"/>
      <point x="707" y="99" type="line"/>
      <point x="268" y="99" type="line"/>
      <point x="328" y="191"/>
      <point x="390" y="605"/>
    </contour>
  </outline>
</glyph>
<glyph name="zhe-cy" format="2">
  <advance width="1571"/>
  <unicode hex="0436"/>
  <anchor x="1800" y="0" name="bottomright"/>
  <anchor x="794" y="1110" name="top"/>
  <outline>
    <contour>
      <point x="17" y="0" type="line"/>
      <point x="170" y="0" type="line" smooth="yes"/>
      <point x="309" y="0"/>
      <point x="432" y="534"/>
      <point x="576" y="534" type="curve" smooth="yes"/>
      <point x="709" y="534" type="line"/>
      <point x="709" y="103" type="line"/>
      <point x="570" y="85" type="line"/>
      <point x="570" y="0" type="line"/>
      <point x="1003" y="0" type="line"/>
      <point x="1003" y="85" type="line"/>
      <point x="863" y="103" type="line"/>
      <point x="863" y="534" type="line"/>
      <point x="989" y="534" type="line" smooth="yes"/>
      <point x="1134" y="534"/>
      <point x="1257" y="0"/>
      <point x="1394" y="0" type="curve"/>
      <point x="1554" y="0" type="line"/>
      <point x="1554" y="85" type="line"/>
      <point x="1492" y="103" type="line"/>
      <point x="1411" y="131"/>
      <point x="1289" y="507"/>
      <point x="1126" y="597" type="curve"/>
      <point x="1393" y="995" type="line"/>
      <point x="1513" y="1025" type="line"/>
      <point x="1513" y="1110" type="line"/>
      <point x="1136" y="1110" type="line"/>
      <point x="1136" y="1025" type="line"/>
      <point x="1269" y="995" type="line"/>
      <point x="1035" y="617" type="line"/>
      <point x="863" y="617" type="line"/>
      <point x="863" y="995" type="line"/>
      <point x="997" y="1025" type="line"/>
      <point x="997" y="1110" type="line"/>
      <point x="576" y="1110" type="line"/>
      <point x="576" y="1025" type="line"/>
      <point x="709" y="995" type="line"/>
      <point x="709" y="617" type="line"/>
      <point x="545" y="617" type="line"/>
      <point x="311" y="995" type="line"/>
      <point x="435" y="1025" type="line"/>
      <point x="435" y="1110" type="line"/>
      <point x="58" y="1110" type="line"/>
      <point x="58" y="1025" type="line"/>
      <point x="179" y="995" type="line"/>
      <point x="445" y="597" type="line"/>
      <point x="283" y="507"/>
      <point x="165" y="135"/>
      <point x="79" y="106" type="curve" smooth="yes"/>
      <point x="17" y="85" type="line"/>
    </contour>
  </outline>
</glyph>
<glyph name="ii-cy" format="2">
  <advance width="1176"/>
  <unicode hex="0438"/>
  <anchor x="970" y="0" name="bottomright"/>
  <anchor x="588" y="1110" name="top"/>
  <outline>
    <contour>
      <point x="62" y="0" type="line"/>
      <point x="457" y="0" type="line"/>
      <point x="457" y="85" type="line"/>
      <point x="347" y="101" type="line"/>
      <point x="347" y="136" type="line"/>
      <point x="683" y="611" type="line"/>
      <point x="830" y="831" type="line"/>
      <point x="830" y="101" type="line"/>
      <point x="693" y="85" type="line"/>
      <point x="693" y="0" type="line"/>
      <point x="1114" y="0" type="line"/>
      <point x="1114" y="85" type="line"/>
      <point x="986" y="101" type="line"/>
      <point x="986" y="995" type="line"/>
      <point x="1109" y="1025" type="line"/>
      <point x="1109" y="1110" type="line"/>
      <point x="703" y="1110" type="line"/>
      <point x="703" y="1025" type="line"/>
      <point x="830" y="995" type="line"/>
      <point x="830" y="967" type="line"/>
      <point x="481" y="466" type="line"/>
      <point x="347" y="275" type="line"/>
      <point x="347" y="995" type="line"/>
      <point x="487" y="1025" type="line"/>
      <point x="487" y="1110" type="line"/>
      <point x="65" y="1110" type="line"/>
      <point x="65" y="1025" type="line"/>
      <point x="191" y="995" type="line"/>
      <point x="191" y="101" type="line"/>
      <point x="62" y="85" type="line"/>
    </contour>
  </outline>
</glyph>
<glyph name="ka-cy" format="2">
  <advance width="1090"/>
  <unicode hex="043A"/>
  <anchor x="1193" y="0" name="bottomright"/>
  <anchor x="624" y="556" name="center"/>
  <anchor x="624" y="1110" name="top"/>
  <outline>
    <contour>
      <point x="643" y="597" type="curve"/>
      <point x="913" y="995" type="line"/>
      <point x="1036" y="1025" type="line"/>
      <point x="1036" y="1110" type="line"/>
      <point x="655" y="1110" type="line"/>
      <point x="655" y="1025" type="line"/>
      <point x="785" y="995" type="line"/>
      <point x="548" y="617" type="line"/>
      <point x="376" y="617" type="line"/>
      <point x="376" y="995" type="line"/>
      <point x="517" y="1025" type="line"/>
      <point x="517" y="1110" type="line"/>
      <point x="94" y="1110" type="line"/>
      <point x="94" y="1025" type="line"/>
      <point x="223" y="995" type="line"/>
      <point x="223" y="101" type="line"/>
      <point x="91" y="85" type="line"/>
      <point x="91" y="0" type="line"/>
      <point x="529" y="0" type="line"/>
      <point x="529" y="85" type="line"/>
      <point x="376" y="101" type="line"/>
      <point x="376" y="534" type="line"/>
      <point x="503" y="534" type="line" smooth="yes"/>
      <point x="650" y="534"/>
      <point x="778" y="0"/>
      <point x="917" y="0" type="curve"/>
      <point x="1076" y="0" type="line"/>
      <point x="1076" y="85" type="line"/>
      <point x="1011" y="105" type="line" smooth="yes"/>
      <point x="927" y="131"/>
      <point x="805" y="505"/>
    </contour>
  </outline>
</glyph>
<glyph name="el-cy" format="2">
  <advance width="1074"/>
  <unicode hex="043B"/>
  <anchor x="573" y="-166" name="mark0"/>
  <outline>
    <contour>
      <point x="395" y="897" type="curve" smooth="yes"/>
      <point x="397" y="1003" type="line"/>
      <point x="697" y="1003" type="line"/>
      <point x="697" y="101" type="line"/>
      <point x="561" y="85" type="line"/>
      <point x="561" y="0" type="line"/>
      <point x="983" y="0" type="line"/>
      <point x="983" y="85" type="line"/>
      <point x="852" y="101" type="line"/>
      <point x="852" y="991" type="line"/>
      <point x="980" y="1023" type="line"/>
      <point x="980" y="1110" type="line"/>
      <point x="161" y="1110" type="line"/>
      <point x="161" y="1025" type="line"/>
      <point x="300" y="995" type="line"/>
      <point x="296" y="459"/>
      <point x="237" y="147"/>
      <point x="138" y="147" type="curve" smooth="yes"/>
      <point x="83" y="147"/>
      <point x="39" y="151"/>
      <point x="15" y="157" type="curve"/>
      <point x="25" y="0" type="line"/>
      <point x="41" y="-4"/>
      <point x="75" y="-12"/>
      <point x="105" y="-12" type="curve" smooth="yes"/>
      <point x="221" y="-12"/>
      <point x="264" y="44"/>
      <point x="297" y="122" type="curve" smooth="yes"/>
      <point x="342" y="231"/>
      <point x="387" y="484"/>
    </contour>
  </outline>
</glyph>
<glyph name="en-cy" format="2">
  <advance width="1171"/>
  <unicode hex="043D"/>
  <anchor x="1327" y="0" name="bottomright"/>
  <outline>
    <contour>
      <point x="62" y="0" type="line"/>
      <point x="495" y="0" type="line"/>
      <point x="495" y="85" type="line"/>
      <point x="348" y="101" type="line"/>
      <point x="348" y="525" type="line"/>
      <point x="823" y="525" type="line"/>
      <point x="823" y="101" type="line"/>
      <point x="675" y="85" type="line"/>
      <point x="675" y="0" type="line"/>
      <point x="1109" y="0" type="line"/>
      <point x="1109" y="85" type="line"/>
      <point x="979" y="101" type="line"/>
      <point x="979" y="995" type="line"/>
      <point x="1102" y="1025" type="line"/>
      <point x="1102" y="1110" type="line"/>
      <point x="679" y="1110" type="line"/>
      <point x="679" y="1025" type="line"/>
      <point x="823" y="995" type="line"/>
      <point x="823" y="627" type="line"/>
      <point x="348" y="627" type="line"/>
      <point x="348" y="995" type="line"/>
      <point x="490" y="1025" type="line"/>
      <point x="490" y="1110" type="line"/>
      <point x="65" y="1110" type="line"/>
      <point x="65" y="1025" type="line"/>
      <point x="191" y="995" type="line"/>
      <point x="191" y="101" type="line"/>
      <point x="62" y="85" type="line"/>
    </contour>
  </outline>
</glyph>
<glyph name="pe-cy" format="2">
  <advance width="1117"/>
  <unicode hex="043F"/>
  <anchor x="916" y="0" name="bottomright"/>
  <outline>
    <contour>
      <point x="63" y="1110" type="line"/>
      <point x="63" y="1025" type="line"/>
      <point x="189" y="995" type="line"/>
      <point x="189" y="103" type="line"/>
      <point x="62" y="85" type="line"/>
      <point x="62" y="0" type="line"/>
      <point x="477" y="0" type="line"/>
      <point x="477" y="85" type="line"/>
      <point x="345" y="103" type="line"/>
      <point x="345" y="1005" type="line"/>
      <point x="773" y="1005" type="line"/>
      <point x="773" y="103" type="line"/>
      <point x="642" y="85" type="line"/>
      <point x="642" y="0" type="line"/>
      <point x="1055" y="0" type="line"/>
      <point x="1055" y="85" type="line"/>
      <point x="929" y="103" type="line"/>
      <point x="929" y="995" type="line"/>
      <point x="1048" y="1025" type="line"/>
      <point x="1048" y="1110" type="line"/>
    </contour>
  </outline>
</glyph>
<glyph name="te-cy" format="2">
  <advance width="1049"/>
  <unicode hex="0442"/>
  <anchor x="722" y="-166" name="mark0"/>
  <outline>
    <contour>
      <point x="229" y="0" type="line"/>
      <point x="822" y="0" type="line"/>
      <point x="822" y="85" type="line"/>
      <point x="603" y="103" type="line"/>
      <point x="603" y="1009" type="line"/>
      <point x="842" y="1001" type="line"/>
      <point x="885" y="710" type="line"/>
      <point x="987" y="710" type="line"/>
      <point x="977" y="1110" type="line"/>
      <point x="70" y="1110" type="line"/>
      <point x="62" y="710" type="line"/>
      <point x="162" y="710" type="line"/>
      <point x="206" y="1001" type="line"/>
      <point x="447" y="1009" type="line"/>
      <point x="447" y="103" type="line"/>
      <point x="229" y="85" type="line"/>
    </contour>
  </outline>
</glyph>
<glyph name="ef-cy" format="2">
  <advance width="1391"/>
  <unicode hex="0444"/>
  <outline>
    <contour>
      <point x="625" y="68" type="curve"/>
      <point x="619" y="-144" type="line"/>
      <point x="619" y="-376" type="line"/>
      <point x="451" y="-400" type="line"/>
      <point x="451" y="-488" type="line"/>
      <point x="948" y="-488" type="line"/>
      <point x="948" y="-400" type="line"/>
      <point x="774" y="-376" type="line"/>
      <point x="774" y="-144" type="line"/>
      <point x="768" y="24" type="line"/>
      <point x="792" y="2"/>
      <point x="853" y="-22"/>
      <point x="911" y="-22" type="curve" smooth="yes"/>
      <point x="1195" y="-22"/>
      <point x="1337" y="248"/>
      <point x="1337" y="588" type="curve" smooth="yes"/>
      <point x="1337" y="990"/>
      <point x="1184" y="1140"/>
      <point x="982" y="1140" type="curve" smooth="yes"/>
      <point x="900" y="1140"/>
      <point x="817" y="1096"/>
      <point x="766" y="1048" type="curve"/>
      <point x="772" y="1262" type="line"/>
      <point x="772" y="1612" type="line"/>
      <point x="734" y="1638" type="line"/>
      <point x="720" y="1638" type="line"/>
      <point x="481" y="1604" type="line"/>
      <point x="481" y="1530" type="line"/>
      <point x="617" y="1512" type="line"/>
      <point x="617" y="1262" type="line"/>
      <point x="623" y="1094" type="line"/>
      <point x="591" y="1122"/>
      <point x="525" y="1140"/>
      <point x="480" y="1140" type="curve" smooth="yes"/>
      <point x="166" y="1140"/>
      <point x="54" y="872"/>
      <point x="54" y="530" type="curve" smooth="yes"/>
      <point x="54" y="128"/>
      <point x="207" y="-22"/>
      <point x="409" y="-22" type="curve" smooth="yes"/>
      <point x="521" y="-22"/>
      <point x="587" y="20"/>
    </contour>
    <contour>
      <point x="619" y="978" type="curve"/>
      <point x="619" y="152" type="line"/>
      <point x="596" y="118"/>
      <point x="552" y="94"/>
      <point x="477" y="94" type="curve" smooth="yes"/>
      <point x="316" y="94"/>
      <point x="230" y="216"/>
      <point x="230" y="558" type="curve" smooth="yes"/>
      <point x="230" y="898"/>
      <point x="314" y="1052"/>
      <point x="473" y="1052" type="curve" smooth="yes"/>
      <point x="531" y="1052"/>
      <point x="590" y="1015"/>
    </contour>
    <contour>
      <point x="772" y="140" type="curve"/>
      <point x="772" y="966" type="line"/>
      <point x="805" y="990"/>
      <point x="861" y="1024"/>
      <point x="916" y="1024" type="curve" smooth="yes"/>
      <point x="1075" y="1024"/>
      <point x="1161" y="902"/>
      <point x="1161" y="560" type="curve" smooth="yes"/>
      <point x="1161" y="220"/>
      <point x="1077" y="66"/>
      <point x="918" y="66" type="curve" smooth="yes"/>
      <point x="849" y="66"/>
      <point x="791" y="118"/>
    </contour>
  </outline>
</glyph>
<glyph name="tse-cy" format="2">
  <advance width="1207"/>
  <unicode hex="0446"/>
  <outline>
    <contour>
      <point x="996" y="-359" type="curve"/>
      <point x="1095" y="-359" type="line"/>
      <point x="1111" y="-201"/>
      <point x="1126" y="-58"/>
      <point x="1141" y="103" type="curve"/>
      <point x="976" y="103" type="line"/>
      <point x="976" y="995" type="line"/>
      <point x="1100" y="1025" type="line"/>
      <point x="1100" y="1110" type="line"/>
      <point x="676" y="1110" type="line"/>
      <point x="676" y="1025" type="line"/>
      <point x="820" y="995" type="line"/>
      <point x="820" y="103" type="line"/>
      <point x="374" y="103" type="line"/>
      <point x="374" y="997" type="line"/>
      <point x="518" y="1025" type="line"/>
      <point x="518" y="1110" type="line"/>
      <point x="94" y="1110" type="line"/>
      <point x="94" y="1025" type="line"/>
      <point x="218" y="997" type="line"/>
      <point x="218" y="103" type="line"/>
      <point x="91" y="85" type="line"/>
      <point x="91" y="0" type="line"/>
      <point x="975" y="0" type="line"/>
      <point x="978" y="-3"/>
      <point x="993" y="-320"/>
    </contour>
  </outline>
</glyph>
<glyph name="sha-cy" format="2">
  <advance width="1743"/>
  <unicode hex="0448"/>
  <anchor x="786" y="-166" name="mark0"/>
  <outline>
    <contour>
      <point x="95" y="1110" type="line"/>
      <point x="95" y="1025" type="line"/>
      <point x="244" y="995" type="line"/>
      <point x="244" y="101" type="line"/>
      <point x="91" y="81" type="line"/>
      <point x="91" y="0" type="line"/>
      <point x="1652" y="0" type="line"/>
      <point x="1652" y="81" type="line"/>
      <point x="1500" y="101" type="line"/>
      <point x="1500" y="995" type="line"/>
      <point x="1645" y="1025" type="line"/>
      <point x="1645" y="1110" type="line"/>
      <point x="1192" y="1110" type="line"/>
      <point x="1192" y="1025" type="line"/>
      <point x="1345" y="995" type="line"/>
      <point x="1345" y="102" type="line"/>
      <point x="950" y="102" type="line"/>
      <point x="950" y="995" type="line"/>
      <point x="1093" y="1025" type="line"/>
      <point x="1093" y="1110" type="line"/>
      <point x="642" y="1110" type="line"/>
      <point x="642" y="1025" type="line"/>
      <point x="795" y="995" type="line"/>
      <point x="795" y="102" type="line"/>
      <point x="399" y="102" type="line"/>
      <point x="399" y="995" type="line"/>
      <point x="551" y="1025" type="line"/>
      <point x="551" y="1110" type="line"/>
    </contour>
  </outline>
</glyph>
<glyph name="shcha-cy" format="2">
  <advance width="1742"/>
  <unicode hex="0449"/>
  <outline>
    <contour>
      <point x="1531" y="-359" type="curve"/>
      <point x="1630" y="-359" type="line"/>
      <point x="1646" y="-203"/>
      <point x="1663" y="-38"/>
      <point x="1676" y="101" type="curve"/>
      <point x="1500" y="101" type="line"/>
      <point x="1500" y="995" type="line"/>
      <point x="1645" y="1025" type="line"/>
      <point x="1645" y="1110" type="line"/>
      <point x="1192" y="1110" type="line"/>
      <point x="1192" y="1025" type="line"/>
      <point x="1345" y="995" type="line"/>
      <point x="1345" y="99" type="line"/>
      <point x="950" y="99" type="line"/>
      <point x="950" y="995" type="line"/>
      <point x="1093" y="1025" type="line"/>
      <point x="1093" y="1110" type="line"/>
      <point x="642" y="1110" type="line"/>
      <point x="642" y="1025" type="line"/>
      <point x="795" y="995" type="line"/>
      <point x="795" y="99" type="line"/>
      <point x="399" y="99" type="line"/>
      <point x="399" y="995" type="line"/>
      <point x="551" y="1025" type="line"/>
      <point x="551" y="1110" type="line"/>
      <point x="95" y="1110" type="line"/>
      <point x="95" y="1025" type="line"/>
      <point x="244" y="995" type="line"/>
      <point x="244" y="101" type="line"/>
      <point x="91" y="81" type="line"/>
      <point x="91" y="0" type="line"/>
      <point x="1510" y="0" type="line"/>
      <point x="1513" y="-3"/>
      <point x="1528" y="-320"/>
    </contour>
  </outline>
</glyph>
<glyph name="yeru-cy" format="2">
  <advance width="1493"/>
  <unicode hex="044B"/>
  <anchor x="798" y="1110" name="top"/>
  <outline>
    <contour>
      <point x="1015" y="0" type="line"/>
      <point x="1431" y="0" type="line"/>
      <point x="1431" y="85" type="line"/>
      <point x="1297" y="103" type="line"/>
      <point x="1297" y="995" type="line"/>
      <point x="1422" y="1023" type="line"/>
      <point x="1422" y="1110" type="line"/>
      <point x="1007" y="1110" type="line"/>
      <point x="1007" y="1023" type="line"/>
      <point x="1141" y="995" type="line"/>
      <point x="1141" y="103" type="line"/>
      <point x="1015" y="85" type="line"/>
    </contour>
    <component base="softsign-cy"/>
  </outline>
</glyph>
<glyph name="softsign-cy" format="2">
  <advance width="965"/>
  <unicode hex="044C"/>
  <outline>
    <contour>
      <point x="62" y="0" type="line"/>
      <point x="258" y="0" type="line" smooth="yes"/>
      <point x="316" y="0"/>
      <point x="480" y="-12"/>
      <point x="547" y="-12" type="curve" smooth="yes"/>
      <point x="779" y="-12"/>
      <point x="917" y="124"/>
      <point x="917" y="349" type="curve" smooth="yes"/>
      <point x="917" y="559"/>
      <point x="801" y="668"/>
      <point x="555" y="668" type="curve" smooth="yes"/>
      <point x="488" y="668"/>
      <point x="427" y="656"/>
      <point x="368" y="650" type="curve"/>
      <point x="368" y="995" type="line"/>
      <point x="543" y="1023" type="line"/>
      <point x="543" y="1110" type="line"/>
      <point x="65" y="1110" type="line"/>
      <point x="65" y="1023" type="line"/>
      <point x="213" y="995" type="line"/>
      <point x="213" y="101" type="line"/>
      <point x="62" y="81" type="line"/>
    </contour>
    <contour>
      <point x="529" y="83" type="curve" smooth="yes"/>
      <point x="449" y="83"/>
      <point x="397" y="83"/>
      <point x="368" y="89" type="curve"/>
      <point x="368" y="552" type="line"/>
      <point x="415" y="559"/>
      <point x="461" y="570"/>
      <point x="513" y="570" type="curve" smooth="yes"/>
      <point x="667" y="570"/>
      <point x="756" y="517"/>
      <point x="756" y="348" type="curve" smooth="yes"/>
      <point x="756" y="168"/>
      <point x="682" y="83"/>
    </contour>
  </outline>
</glyph>
<glyph name="ereversed-cy" format="2">
  <advance width="932"/>
  <unicode hex="044D"/>
  <anchor x="582" y="-166" name="mark0"/>
  <anchor x="432" y="1110" name="top"/>
  <outline>
    <contour>
      <point x="370" y="-21" type="curve" smooth="yes"/>
      <point x="754" y="-21"/>
      <point x="878" y="267"/>
      <point x="878" y="580" type="curve" smooth="yes"/>
      <point x="878" y="918"/>
      <point x="727" y="1140"/>
      <point x="410" y="1140" type="curve" smooth="yes"/>
      <point x="324" y="1140"/>
      <point x="189" y="1110"/>
      <point x="94" y="1065" type="curve"/>
      <point x="103" y="790" type="line"/>
      <point x="192" y="790" type="line"/>
      <point x="238" y="1005" type="line"/>
      <point x="269" y="1023"/>
      <point x="346" y="1041"/>
      <point x="402" y="1041" type="curve" smooth="yes"/>
      <point x="608" y="1041"/>
      <point x="712" y="869"/>
      <point x="717" y="584" type="curve"/>
      <point x="711" y="241"/>
      <point x="629" y="70"/>
      <point x="391" y="70" type="curve" smooth="yes"/>
      <point x="276" y="70"/>
      <point x="250" y="141"/>
      <point x="240" y="173" type="curve" smooth="yes"/>
      <point x="198" y="315" type="line"/>
      <point x="97" y="315" type="line"/>
      <point x="115" y="45" type="line"/>
      <point x="189" y="5"/>
      <point x="284" y="-21"/>
    </contour>
    <contour>
      <point x="341" y="510" type="line"/>
      <point x="734" y="531" type="line"/>
      <point x="734" y="624" type="line"/>
      <point x="341" y="640" type="line"/>
    </contour>
  </outline>
</glyph>
<glyph name="iu-cy" format="2">
  <advance width="1549"/>
  <unicode hex="044E"/>
  <outline>
    <contour>
      <point x="62" y="0" type="line"/>
      <point x="557" y="0" type="line"/>
      <point x="557" y="86" type="line"/>
      <point x="383" y="104" type="line"/>
      <point x="383" y="519" type="line"/>
      <point x="632" y="519" type="line"/>
      <point x="642" y="219"/>
      <point x="754" y="-22"/>
      <point x="1054" y="-22" type="curve" smooth="yes"/>
      <point x="1279" y="-22"/>
      <point x="1495" y="185"/>
      <point x="1495" y="556" type="curve" smooth="yes"/>
      <point x="1495" y="876"/>
      <point x="1386" y="1140"/>
      <point x="1072" y="1140" type="curve" smooth="yes"/>
      <point x="859" y="1140"/>
      <point x="656" y="955"/>
      <point x="633" y="621" type="curve"/>
      <point x="383" y="621" type="line"/>
      <point x="383" y="994" type="line"/>
      <point x="549" y="1024" type="line"/>
      <point x="549" y="1110" type="line"/>
      <point x="68" y="1110" type="line"/>
      <point x="68" y="1024" type="line"/>
      <point x="225" y="994" type="line"/>
      <point x="225" y="104" type="line"/>
      <point x="62" y="86" type="line"/>
    </contour>
    <contour>
      <point x="807" y="574" type="curve" smooth="yes"/>
      <point x="807" y="893"/>
      <point x="896" y="1036"/>
      <point x="1065" y="1036" type="curve" smooth="yes"/>
      <point x="1258" y="1036"/>
      <point x="1319" y="818"/>
      <point x="1319" y="544" type="curve" smooth="yes"/>
      <point x="1319" y="227"/>
      <point x="1230" y="82"/>
      <point x="1063" y="82" type="curve" smooth="yes"/>
      <point x="871" y="82"/>
      <point x="807" y="296"/>
    </contour>
  </outline>
</glyph>
<glyph name="yi-cy" format="2">
  <advance width="513"/>
  <unicode hex="0457"/>
  <anchor x="312" y="0" name="bottom"/>
  <anchor x="306" y="-166" name="mark0"/>
  <anchor x="392" y="20" name="ogonek"/>
  <anchor x="256" y="1110" name="top"/>
  <outline>
    <contour>
      <point x="55" y="1320" type="curve" smooth="yes"/>
      <point x="57" y="1320" type="line" smooth="yes"/>
      <point x="135" y="1320"/>
      <point x="175" y="1386"/>
      <point x="175" y="1451" type="curve" smooth="yes"/>
      <point x="175" y="1516"/>
      <point x="137" y="1566"/>
      <point x="71" y="1566" type="curve" smooth="yes"/>
      <point x="69" y="1566" type="line" smooth="yes"/>
      <point x="-9" y="1566"/>
      <point x="-49" y="1500"/>
      <point x="-49" y="1435" type="curve" smooth="yes"/>
      <point x="-49" y="1370"/>
      <point x="-11" y="1320"/>
    </contour>
    <contour>
      <point x="441" y="1320" type="curve" smooth="yes"/>
      <point x="443" y="1320" type="line" smooth="yes"/>
      <point x="521" y="1320"/>
      <point x="561" y="1386"/>
      <point x="561" y="1451" type="curve" smooth="yes"/>
      <point x="561" y="1516"/>
      <point x="523" y="1566"/>
      <point x="457" y="1566" type="curve" smooth="yes"/>
      <point x="455" y="1566" type="line" smooth="yes"/>
      <point x="377" y="1566"/>
      <point x="337" y="1500"/>
      <point x="337" y="1435" type="curve" smooth="yes"/>
      <point x="337" y="1370"/>
      <point x="375" y="1320"/>
    </contour>
    <component base="idotless"/>
  </outline>
</glyph>
<glyph name="lje-cy" format="2">
  <advance width="1450"/>
  <unicode hex="0459"/>
  <anchor x="657" y="-166" name="mark0"/>
  <outline>
    <contour>
      <point x="547" y="0" type="line"/>
      <point x="773" y="0" type="line"/>
      <point x="844" y="-2"/>
      <point x="965" y="-12"/>
      <point x="1035" y="-12" type="curve" smooth="yes"/>
      <point x="1266" y="-12"/>
      <point x="1402" y="124"/>
      <point x="1402" y="349" type="curve" smooth="yes"/>
      <point x="1402" y="560"/>
      <point x="1286" y="668"/>
      <point x="1041" y="668" type="curve" smooth="yes"/>
      <point x="975" y="668"/>
      <point x="910" y="657"/>
      <point x="853" y="649" type="curve"/>
      <point x="853" y="995" type="line"/>
      <point x="1028" y="1023" type="line"/>
      <point x="1028" y="1110" type="line"/>
      <point x="163" y="1110" type="line"/>
      <point x="163" y="1025" type="line"/>
      <point x="301" y="995" type="line"/>
      <point x="298" y="455"/>
      <point x="236" y="147"/>
      <point x="138" y="147" type="curve" smooth="yes"/>
      <point x="82" y="147"/>
      <point x="40" y="151"/>
      <point x="15" y="157" type="curve"/>
      <point x="25" y="0" type="line"/>
      <point x="41" y="-4"/>
      <point x="75" y="-12"/>
      <point x="105" y="-12" type="curve" smooth="yes"/>
      <point x="220" y="-12"/>
      <point x="264" y="42"/>
      <point x="298" y="124" type="curve" smooth="yes"/>
      <point x="342" y="231"/>
      <point x="386" y="484"/>
      <point x="395" y="897" type="curve"/>
      <point x="395" y="1003" type="line"/>
      <point x="698" y="1003" type="line"/>
      <point x="698" y="101" type="line"/>
      <point x="547" y="81" type="line"/>
    </contour>
    <contour>
      <point x="1014" y="83" type="curve" smooth="yes"/>
      <point x="932" y="83"/>
      <point x="886" y="83"/>
      <point x="853" y="89" type="curve"/>
      <point x="853" y="552" type="line"/>
      <point x="900" y="560"/>
      <point x="945" y="570"/>
      <point x="999" y="570" type="curve" smooth="yes"/>
      <point x="1153" y="570"/>
      <point x="1240" y="518"/>
      <point x="1240" y="350" type="curve" smooth="yes"/>
      <point x="1240" y="169"/>
      <point x="1168" y="83"/>
    </contour>
  </outline>
</glyph>
<glyph name="tshe-cy" format="2">
  <advance width="1118"/>
  <unicode hex="045B"/>
  <outline>
    <contour>
      <point x="333" y="902" type="curve"/>
      <point x="339" y="1070" type="line"/>
      <point x="339" y="1226" type="line"/>
      <point x="580" y="1226" type="line"/>
      <point x="580" y="1322" type="line"/>
      <point x="339" y="1322" type="line"/>
      <point x="339" y="1612" type="line"/>
      <point x="303" y="1638" type="line"/>
      <point x="297" y="1638" type="line"/>
      <point x="35" y="1604" type="line"/>
      <point x="35" y="1530" type="line"/>
      <point x="184" y="1512" type="line"/>
      <point x="184" y="1322" type="line"/>
      <point x="29" y="1322" type="line"/>
      <point x="29" y="1226" type="line"/>
      <point x="184" y="1226" type="line"/>
      <point x="184" y="100" type="line"/>
      <point x="71" y="86" type="line"/>
      <point x="71" y="0" type="line"/>
      <point x="463" y="0" type="line"/>
      <point x="463" y="86" type="line"/>
      <point x="341" y="102" type="line"/>
      <point x="341" y="812" type="line"/>
      <point x="425" y="876"/>
      <point x="517" y="944"/>
      <point x="631" y="944" type="curve" smooth="yes"/>
      <point x="797" y="944"/>
      <point x="801" y="834"/>
      <point x="801" y="600" type="curve" smooth="yes"/>
      <point x="801" y="102" type="line"/>
      <point x="691" y="86" type="line"/>
      <point x="691" y="0" type="line"/>
      <point x="1082" y="0" type="line"/>
      <point x="1082" y="86" type="line"/>
      <point x="961" y="102" type="line"/>
      <point x="961" y="598" type="line" smooth="yes"/>
      <point x="961" y="928"/>
      <point x="923" y="1070"/>
      <point x="701" y="1070" type="curve" smooth="yes"/>
      <point x="533" y="1070"/>
      <point x="401" y="960"/>
    </contour>
  </outline>
</glyph>
<glyph name="Yusbig-cy" format="2">
  <advance width="1759"/>
  <unicode hex="046A"/>
  <outline>
    <contour>
      <point x="20" y="0" type="line"/>
      <point x="198" y="0" type="line" smooth="yes"/>
      <point x="329" y="0"/>
      <point x="597" y="704"/>
      <point x="750" y="704" type="curve" smooth="yes"/>
      <point x="800" y="704" type="line"/>
      <point x="800" y="107" type="line"/>
      <point x="660" y="89" type="line"/>
      <point x="660" y="0" type="line"/>
      <point x="1114" y="0" type="line"/>
      <point x="1114" y="85" type="line"/>
      <point x="959" y="107" type="line"/>
      <point x="959" y="704" type="line"/>
      <point x="1009" y="704" type="line" smooth="yes"/>
      <point x="1162" y="704"/>
      <point x="1430" y="0"/>
      <point x="1561" y="0" type="curve" smooth="yes"/>
      <point x="1739" y="0" type="line"/>
      <point x="1739" y="87" type="line"/>
      <point x="1687" y="105" type="line" smooth="yes"/>
      <point x="1621" y="127"/>
      <point x="1477" y="369"/>
      <point x="1349" y="568" type="curve" smooth="yes"/>
      <point x="1237" y="741"/>
      <point x="1177" y="793"/>
      <point x="1089" y="793" type="curve" smooth="yes"/>
      <point x="1024" y="793" type="line"/>
      <point x="1449" y="1400" type="line"/>
      <point x="1439" y="1486" type="line"/>
      <point x="333" y="1486" type="line"/>
      <point x="323" y="1400" type="line"/>
      <point x="747" y="793" type="line"/>
      <point x="670" y="793" type="line" smooth="yes"/>
      <point x="582" y="793"/>
      <point x="522" y="741"/>
      <point x="410" y="568" type="curve" smooth="yes"/>
      <point x="282" y="369"/>
      <point x="138" y="128"/>
      <point x="72" y="105" type="curve" smooth="yes"/>
      <point x="20" y="87" type="line"/>
    </contour>
    <contour>
      <point x="887" y="778" type="line"/>
      <point x="499" y="1374" type="line"/>
      <point x="1273" y="1374" type="line"/>
    </contour>
  </outline>
</glyph>
<glyph name="yusbig-cy" format="2">
  <advance width="1612"/>
  <unicode hex="046B"/>
  <outline>
    <contour>
      <point x="609" y="535" type="curve" smooth="yes"/>
      <point x="730" y="535" type="line"/>
      <point x="730" y="103" type="line"/>
      <point x="593" y="85" type="line"/>
      <point x="593" y="0" type="line"/>
      <point x="1037" y="0" type="line"/>
      <point x="1037" y="85" type="line"/>
      <point x="884" y="103" type="line"/>
      <point x="884" y="535" type="line"/>
      <point x="1004" y="535" type="line" smooth="yes"/>
      <point x="1153" y="535"/>
      <point x="1301" y="0"/>
      <point x="1444" y="0" type="curve" smooth="yes"/>
      <point x="1603" y="0" type="line"/>
      <point x="1603" y="85" type="line"/>
      <point x="1539" y="103" type="line" smooth="yes"/>
      <point x="1455" y="127"/>
      <point x="1270" y="614"/>
      <point x="1076" y="614" type="curve" smooth="yes"/>
      <point x="929" y="614" type="line"/>
      <point x="1291" y="1032" type="line"/>
      <point x="1283" y="1110" type="line"/>
      <point x="330" y="1110" type="line"/>
      <point x="321" y="1032" type="line"/>
      <point x="683" y="614" type="line"/>
      <point x="536" y="614" type="line" smooth="yes"/>
      <point x="344" y="614"/>
      <point x="163" y="135"/>
      <point x="73" y="106" type="curve" smooth="yes"/>
      <point x="9" y="85" type="line"/>
      <point x="9" y="0" type="line"/>
      <point x="169" y="0" type="line" smooth="yes"/>
      <point x="313" y="0"/>
      <point x="461" y="535"/>
    </contour>
    <contour>
      <point x="495" y="1006" type="line"/>
      <point x="1118" y="1006" type="line"/>
      <point x="809" y="614" type="line"/>
      <point x="804" y="614" type="line"/>
    </contour>
  </outline>
</glyph>
<glyph name="Fita-cy" format="2">
  <advance width="1202"/>
  <unicode hex="0472"/>
  <anchor x="601" y="-21" name="bottom"/>
  <anchor x="604" y="765" name="center"/>
  <anchor x="671" y="20" name="ogonek"/>
  <anchor x="602" y="1486" name="top"/>
  <anchor x="15" y="1486" name="topleft"/>
  <anchor x="909" y="1486" name="topright"/>
  <outline>
    <contour>
      <point x="736" y="628" type="curve" smooth="yes"/>
      <point x="868" y="628"/>
      <point x="961" y="715"/>
      <point x="1019" y="796" type="curve"/>
      <point x="1012" y="881" type="line"/>
      <point x="968" y="843"/>
      <point x="878" y="748"/>
      <point x="768" y="748" type="curve" smooth="yes"/>
      <point x="663" y="748"/>
      <point x="570" y="888"/>
      <point x="434" y="888" type="curve" smooth="yes"/>
      <point x="304" y="888"/>
      <point x="215" y="801"/>
      <point x="157" y="720" type="curve"/>
      <point x="160" y="633" type="line"/>
      <point x="206" y="673"/>
      <point x="292" y="766"/>
      <point x="404" y="766" type="curve" smooth="yes"/>
      <point x="501" y="766"/>
      <point x="597" y="628"/>
    </contour>
    <component base="O"/>
  </outline>
</glyph>
<glyph name="fita-cy" format="2">
  <advance width="992"/>
  <unicode hex="0473"/>
  <anchor x="496" y="0" name="bottom"/>
  <anchor x="496" y="555" name="center"/>
  <anchor x="893" y="10" name="ogonek"/>
  <anchor x="496" y="1110" name="top"/>
  <anchor x="762" y="1110" name="topright"/>
  <outline>
    <contour>
      <point x="768" y="467" type="curve"/>
      <point x="766" y="575" type="line"/>
      <point x="734" y="556"/>
      <point x="710" y="546"/>
      <point x="664" y="546" type="curve" smooth="yes"/>
      <point x="556" y="546"/>
      <point x="499" y="656"/>
      <point x="365" y="656" type="curve" smooth="yes"/>
      <point x="307" y="656"/>
      <point x="269" y="636"/>
      <point x="225" y="612" type="curve"/>
      <point x="225" y="612"/>
      <point x="224" y="506"/>
      <point x="224" y="506" type="curve"/>
      <point x="258" y="526"/>
      <point x="287" y="536"/>
      <point x="339" y="536" type="curve" smooth="yes"/>
      <point x="453" y="536"/>
      <point x="508" y="426"/>
      <point x="650" y="426" type="curve" smooth="yes"/>
      <point x="702" y="426"/>
      <point x="734" y="442"/>
    </contour>
    <component base="o"/>
  </outline>
</glyph>
<glyph name="izhitsa-cy" format="2">
  <advance width="1007"/>
  <unicode hex="0475"/>
  <anchor x="515" y="-166" name="mark0"/>
  <outline>
    <contour>
      <point x="741" y="869" type="curve"/>
      <point x="612" y="436" type="line"/>
      <point x="530" y="124" type="line"/>
      <point x="446" y="416" type="line"/>
      <point x="269" y="997" type="line"/>
      <point x="394" y="1027" type="line"/>
      <point x="394" y="1110" type="line"/>
      <point x="12" y="1110" type="line"/>
      <point x="12" y="1027" type="line"/>
      <point x="95" y="997" type="line"/>
      <point x="440" y="-16" type="line"/>
      <point x="575" y="-16" type="line"/>
      <point x="836" y="759" type="line"/>
      <point x="880" y="903"/>
      <point x="921" y="969"/>
      <point x="961" y="986" type="curve" smooth="yes"/>
      <point x="988" y="997"/>
      <point x="1004" y="996"/>
      <point x="1022" y="994" type="curve"/>
      <point x="1022" y="1098" type="line"/>
      <point x="1010" y="1104"/>
      <point x="986" y="1110"/>
      <point x="943" y="1110" type="curve" smooth="yes"/>
      <point x="853" y="1110"/>
      <point x="791" y="1053"/>
    </contour>
  </outline>
</glyph>
<glyph name="iishorttail-cy" format="2">
  <advance width="1231"/>
  <unicode hex="048B"/>
  <anchor x="970" y="0" name="bottomright"/>
  <anchor x="588" y="1110" name="top"/>
  <outline>
    <contour>
      <point x="1011" y="-360" type="curve"/>
      <point x="1111" y="-360" type="line"/>
      <point x="1131" y="-206"/>
      <point x="1147" y="-50"/>
      <point x="1165" y="104" type="curve"/>
      <point x="945" y="104" type="line"/>
      <point x="995" y="0" type="line"/>
      <point x="1001" y="-120"/>
      <point x="1005" y="-240"/>
    </contour>
    <component base="ii-cy"/>
    <component base="brevecomb-cy" xOffset="617"/>
  </outline>
</glyph>
<glyph name="semisoftsign-cy" format="2">
  <advance width="923"/>
  <unicode hex="048D"/>
  <anchor x="559" y="-166" name="mark0"/>
  <outline>
    <contour>
      <point x="329" y="650" type="curve"/>
      <point x="329" y="1012" type="line"/>
      <point x="537" y="1012" type="line"/>
      <point x="537" y="1110" type="line"/>
      <point x="329" y="1110" type="line"/>
      <point x="329" y="1612" type="line"/>
      <point x="291" y="1638" type="line"/>
      <point x="287" y="1638" type="line"/>
      <point x="13" y="1604" type="line"/>
      <point x="13" y="1530" type="line"/>
      <point x="169" y="1512" type="line"/>
      <point x="169" y="1110" type="line"/>
      <point x="5" y="1110" type="line"/>
      <point x="5" y="1012" type="line"/>
      <point x="169" y="1012" type="line"/>
      <point x="169" y="100" type="line"/>
      <point x="27" y="82" type="line"/>
      <point x="27" y="0" type="line"/>
      <point x="237" y="0" type="line" smooth="yes"/>
      <point x="315" y="0"/>
      <point x="468" y="-12"/>
      <point x="522" y="-12" type="curve" smooth="yes"/>
      <point x="726" y="-12"/>
      <point x="875" y="118"/>
      <point x="875" y="344" type="curve" smooth="yes"/>
      <point x="875" y="558"/>
      <point x="766" y="668"/>
      <point x="502" y="668" type="curve" smooth="yes"/>
      <point x="436" y="668"/>
      <point x="367" y="660"/>
    </contour>
    <contour>
      <point x="329" y="90" type="curve"/>
      <point x="329" y="552" type="line"/>
      <point x="363" y="560"/>
      <point x="408" y="570"/>
      <point x="460" y="570" type="curve" smooth="yes"/>
      <point x="622" y="570"/>
      <point x="711" y="524"/>
      <point x="711" y="340" type="curve" smooth="yes"/>
      <point x="711" y="168"/>
      <point x="634" y="84"/>
      <point x="486" y="84" type="curve" smooth="yes"/>
      <point x="404" y="84"/>
      <point x="367" y="84"/>
    </contour>
  </outline>
</glyph>
<glyph name="Ertick-cy" format="2">
  <advance width="1135"/>
  <unicode hex="048E"/>
  <anchor x="591" y="0" name="bottom"/>
  <anchor x="609" y="-166" name="mark0"/>
  <anchor x="651" y="1486" name="top"/>
  <outline>
    <contour>
      <point x="930" y="364" type="line"/>
      <point x="1010" y="418" type="line"/>
      <point x="642" y="910" type="line"/>
      <point x="562" y="856" type="line"/>
    </contour>
    <component base="P"/>
  </outline>
</glyph>
<glyph name="gheupturn-cy" format="2">
  <advance width="881"/>
  <unicode hex="0491"/>
  <anchor x="365" y="-166" name="mark0"/>
  <outline>
    <contour>
      <point x="731" y="1428" type="line"/>
      <point x="694" y="1110" type="line"/>
      <point x="94" y="1110" type="line"/>
      <point x="94" y="1025" type="line"/>
      <point x="229" y="995" type="line"/>
      <point x="229" y="103" type="line"/>
      <point x="91" y="85" type="line"/>
      <point x="91" y="0" type="line"/>
      <point x="591" y="0" type="line"/>
      <point x="591" y="85" type="line"/>
      <point x="385" y="103" type="line"/>
      <point x="385" y="1005" type="line"/>
      <point x="824" y="1005" type="line"/>
      <point x="825" y="1428" type="line"/>
    </contour>
  </outline>
</glyph>
<glyph name="Ghestroke-cy" format="2">
  <advance width="1036"/>
  <unicode hex="0492"/>
  <anchor x="298" y="0" name="bottomright"/>
  <anchor x="490" y="744" name="center"/>
  <anchor x="632" y="1486" name="top"/>
  <outline>
    <contour>
      <point x="104" y="670" type="line"/>
      <point x="754" y="670" type="line"/>
      <point x="754" y="770" type="line"/>
      <point x="104" y="770" type="line"/>
    </contour>
    <component base="Ge-cy"/>
  </outline>
</glyph>
<glyph name="ghemiddlehook-cy" format="2">
  <advance width="1018"/>
  <unicode hex="0495"/>
  <anchor x="268" y="0" name="bottomright"/>
  <anchor x="510" y="556" name="center"/>
  <anchor x="510" y="1110" name="top"/>
  <outline>
    <contour>
      <point x="385" y="504" type="curve"/>
      <point x="385" y="410" type="line"/>
      <point x="429" y="430"/>
      <point x="495" y="462"/>
      <point x="567" y="462" type="curve" smooth="yes"/>
      <point x="737" y="462"/>
      <point x="812" y="370"/>
      <point x="812" y="134" type="curve" smooth="yes"/>
      <point x="812" y="-214"/>
      <point x="766" y="-378"/>
      <point x="604" y="-378" type="curve" smooth="yes"/>
      <point x="572" y="-378"/>
      <point x="524" y="-376"/>
      <point x="506" y="-374" type="curve"/>
      <point x="508" y="-468" type="line"/>
      <point x="528" y="-476"/>
      <point x="596" y="-482"/>
      <point x="626" y="-482" type="curve" smooth="yes"/>
      <point x="864" y="-482"/>
      <point x="970" y="-246"/>
      <point x="970" y="144" type="curve" smooth="yes"/>
      <point x="970" y="410"/>
      <point x="895" y="570"/>
      <point x="603" y="570" type="curve" smooth="yes"/>
      <point x="501" y="570"/>
      <point x="427" y="530"/>
    </contour>
    <component base="ge-cy"/>
  </outline>
</glyph>
<glyph name="Zhedescender-cy" format="2">
  <advance width="1959"/>
  <unicode hex="0496"/>
  <anchor x="1697" y="-4" name="bottomright"/>
  <anchor x="881" y="1516" name="top"/>
  <outline>
    <contour>
      <point x="1743" y="-360" type="curve"/>
      <point x="1849" y="-360" type="line"/>
      <point x="1851" y="-354"/>
      <point x="1901" y="98"/>
      <point x="1901" y="106" type="curve"/>
      <point x="1667" y="106" type="line"/>
      <point x="1671" y="0" type="line"/>
      <point x="1727" y="0" type="line"/>
      <point x="1733" y="-20"/>
      <point x="1743" y="-314"/>
    </contour>
    <component base="Zhe-cy"/>
  </outline>
</glyph>
<glyph name="zhedescender-cy" format="2">
  <advance width="1613"/>
  <unicode hex="0497"/>
  <anchor x="1800" y="0" name="bottomright"/>
  <anchor x="794" y="1110" name="top"/>
  <outline>
    <contour>
      <point x="1508" y="104" type="line"/>
      <point x="1337" y="127" type="line"/>
      <point x="1418" y="0" type="line"/>
      <point x="1420" y="0" type="line"/>
      <point x="1422" y="-14"/>
      <point x="1432" y="-316"/>
      <point x="1434" y="-360" type="curve"/>
      <point x="1542" y="-360" type="line"/>
      <point x="1542" y="-358"/>
      <point x="1596" y="96"/>
      <point x="1596" y="104" type="curve"/>
    </contour>
    <component base="zhe-cy"/>
  </outline>
</glyph>
<glyph name="Kadescender-cy" format="2">
  <advance width="1347"/>
  <unicode hex="049A"/>
  <anchor x="1134" y="0" name="bottomright"/>
  <anchor x="602" y="1516" name="top"/>
  <outline>
    <contour>
      <point x="1131" y="-360" type="curve"/>
      <point x="1237" y="-360" type="line"/>
      <point x="1255" y="-204"/>
      <point x="1271" y="-50"/>
      <point x="1289" y="106" type="curve"/>
      <point x="1083" y="106" type="line"/>
      <point x="1083" y="0" type="line"/>
      <point x="1115" y="0" type="line"/>
      <point x="1117" y="-10"/>
      <point x="1131" y="-320"/>
    </contour>
    <component base="Ka-cy"/>
  </outline>
</glyph>
<glyph name="kadescender-cy" format="2">
  <advance width="1159"/>
  <unicode hex="049B"/>
  <anchor x="1193" y="0" name="bottomright"/>
  <anchor x="624" y="556" name="center"/>
  <anchor x="624" y="1110" name="top"/>
  <outline>
    <contour>
      <point x="1022" y="106" type="line"/>
      <point x="972" y="102" type="line"/>
      <point x="936" y="0" type="line"/>
      <point x="962" y="0" type="line"/>
      <point x="964" y="-4"/>
      <point x="978" y="-320"/>
      <point x="980" y="-360" type="curve"/>
      <point x="1088" y="-360" type="line"/>
      <point x="1106" y="-206"/>
      <point x="1124" y="-50"/>
      <point x="1142" y="104" type="curve"/>
    </contour>
    <component base="ka-cy"/>
  </outline>
</glyph>
<glyph name="kaverticalstroke-cy" format="2">
  <advance width="1218"/>
  <unicode hex="049D"/>
  <outline>
    <contour>
      <point x="91" y="0" type="line"/>
      <point x="533" y="0" type="line"/>
      <point x="533" y="84" type="line"/>
      <point x="375" y="98" type="line"/>
      <point x="375" y="534" type="line"/>
      <point x="473" y="534" type="line"/>
      <point x="473" y="266" type="line"/>
      <point x="579" y="266" type="line"/>
      <point x="579" y="534" type="line"/>
      <point x="755" y="534"/>
      <point x="855" y="0"/>
      <point x="1017" y="0" type="curve" smooth="yes"/>
      <point x="1201" y="0" type="line"/>
      <point x="1201" y="80" type="line"/>
      <point x="1115" y="102" type="line"/>
      <point x="1007" y="124"/>
      <point x="889" y="506"/>
      <point x="705" y="598" type="curve"/>
      <point x="1011" y="1004" type="line"/>
      <point x="1151" y="1028" type="line"/>
      <point x="1151" y="1110" type="line"/>
      <point x="717" y="1110" type="line"/>
      <point x="717" y="1028" type="line"/>
      <point x="873" y="1004" type="line"/>
      <point x="607" y="618" type="line"/>
      <point x="579" y="618" type="line"/>
      <point x="579" y="856" type="line"/>
      <point x="473" y="856" type="line"/>
      <point x="473" y="618" type="line"/>
      <point x="375" y="618" type="line"/>
      <point x="375" y="1002" type="line"/>
      <point x="539" y="1028" type="line"/>
      <point x="539" y="1110" type="line"/>
      <point x="95" y="1110" type="line"/>
      <point x="95" y="1028" type="line"/>
      <point x="221" y="1002" type="line"/>
      <point x="221" y="98" type="line"/>
      <point x="91" y="84" type="line"/>
    </contour>
  </outline>
</glyph>
<glyph name="Kastroke-cy" format="2">
  <advance width="1157"/>
  <unicode hex="049E"/>
  <anchor x="1134" y="0" name="bottomright"/>
  <anchor x="602" y="1516" name="top"/>
  <outline>
    <contour>
      <point x="70" y="1063" type="line"/>
      <point x="506" y="1063" type="line"/>
      <point x="506" y="1163" type="line"/>
      <point x="70" y="1163" type="line"/>
    </contour>
    <component base="Ka-cy"/>
  </outline>
</glyph>
<glyph name="Kabashkir-cy" format="2">
  <advance width="1419"/>
  <unicode hex="04A0"/>
  <outline>
    <contour>
      <point x="320" y="0" type="line"/>
      <point x="774" y="0" type="line"/>
      <point x="774" y="85" type="line"/>
      <point x="619" y="107" type="line"/>
      <point x="619" y="704" type="line"/>
      <point x="699" y="704" type="line" smooth="yes"/>
      <point x="844" y="704"/>
      <point x="1097" y="0"/>
      <point x="1221" y="0" type="curve" smooth="yes"/>
      <point x="1399" y="0" type="line"/>
      <point x="1399" y="87" type="line"/>
      <point x="1347" y="105" type="line" smooth="yes"/>
      <point x="1284" y="130"/>
      <point x="1143" y="369"/>
      <point x="1019" y="568" type="curve" smooth="yes"/>
      <point x="953" y="674"/>
      <point x="896" y="754"/>
      <point x="851" y="783" type="curve"/>
      <point x="1249" y="1377" type="line"/>
      <point x="1375" y="1399" type="line"/>
      <point x="1375" y="1486" type="line"/>
      <point x="956" y="1486" type="line"/>
      <point x="956" y="1399" type="line"/>
      <point x="1111" y="1377" type="line"/>
      <point x="739" y="793" type="line"/>
      <point x="619" y="793" type="line"/>
      <point x="619" y="1377" type="line"/>
      <point x="770" y="1399" type="line"/>
      <point x="770" y="1486" type="line"/>
      <point x="64" y="1486" type="line"/>
      <point x="30" y="978" type="line"/>
      <point x="140" y="978" type="line"/>
      <point x="204" y="1384" type="line"/>
      <point x="460" y="1396" type="line"/>
      <point x="460" y="107" type="line"/>
      <point x="320" y="89" type="line"/>
    </contour>
  </outline>
</glyph>
<glyph name="kabashkir-cy" format="2">
  <advance width="1363"/>
  <unicode hex="04A1"/>
  <anchor x="1463" y="0" name="bottomright"/>
  <anchor x="894" y="556" name="center"/>
  <anchor x="1044" y="-166" name="mark0"/>
  <anchor x="894" y="1110" name="top"/>
  <outline>
    <contour>
      <point x="1281" y="105" type="line" smooth="yes"/>
      <point x="1197" y="131"/>
      <point x="1075" y="505"/>
      <point x="913" y="597" type="curve"/>
      <point x="1183" y="995" type="line"/>
      <point x="1306" y="1025" type="line"/>
      <point x="1306" y="1110" type="line"/>
      <point x="925" y="1110" type="line"/>
      <point x="925" y="1025" type="line"/>
      <point x="1055" y="995" type="line"/>
      <point x="818" y="617" type="line"/>
      <point x="646" y="617" type="line"/>
      <point x="646" y="995" type="line"/>
      <point x="787" y="1025" type="line"/>
      <point x="787" y="1110" type="line"/>
      <point x="70" y="1110" type="line"/>
      <point x="62" y="708" type="line"/>
      <point x="168" y="708" type="line"/>
      <point x="216" y="1000" type="line"/>
      <point x="492" y="1008" type="line"/>
      <point x="493" y="1009" type="line"/>
      <point x="493" y="101" type="line"/>
      <point x="361" y="85" type="line"/>
      <point x="361" y="0" type="line"/>
      <point x="799" y="0" type="line"/>
      <point x="799" y="85" type="line"/>
      <point x="646" y="101" type="line"/>
      <point x="646" y="534" type="line"/>
      <point x="773" y="534" type="line" smooth="yes"/>
      <point x="920" y="534"/>
      <point x="1048" y="0"/>
      <point x="1187" y="0" type="curve" smooth="yes"/>
      <point x="1346" y="0" type="line"/>
      <point x="1346" y="85" type="line"/>
    </contour>
  </outline>
</glyph>
<glyph name="Endescender-cy" format="2">
  <advance width="1419"/>
  <unicode hex="04A2"/>
  <anchor x="676" y="0" name="bottom"/>
  <anchor x="675" y="743" name="center"/>
  <anchor x="689" y="1486" name="top"/>
  <anchor x="-11" y="1486" name="topleft"/>
  <outline>
    <contour>
      <point x="1205" y="-360" type="curve"/>
      <point x="1309" y="-360" type="line"/>
      <point x="1312" y="-358"/>
      <point x="1362" y="102"/>
      <point x="1361" y="106" type="curve"/>
      <point x="1126" y="106" type="line"/>
      <point x="1126" y="0" type="line"/>
      <point x="1187" y="0" type="line"/>
      <point x="1189" y="-14"/>
      <point x="1203" y="-320"/>
    </contour>
    <component base="H"/>
  </outline>
</glyph>
<glyph name="pemiddlehook-cy" format="2">
  <advance width="1626"/>
  <unicode hex="04A7"/>
  <anchor x="849" y="-166" name="mark0"/>
  <anchor x="916" y="0" name="bottomright"/>
  <outline>
    <contour>
      <point x="1158" y="-482" type="curve" smooth="yes"/>
      <point x="1426" y="-482"/>
      <point x="1572" y="-242"/>
      <point x="1572" y="232" type="curve" smooth="yes"/>
      <point x="1572" y="482"/>
      <point x="1487" y="658"/>
      <point x="1179" y="658" type="curve" smooth="yes"/>
      <point x="1103" y="658"/>
      <point x="984" y="624"/>
      <point x="906" y="557" type="curve"/>
      <point x="936" y="488" type="line"/>
      <point x="996" y="520"/>
      <point x="1081" y="548"/>
      <point x="1153" y="548" type="curve" smooth="yes"/>
      <point x="1323" y="548"/>
      <point x="1412" y="456"/>
      <point x="1412" y="222" type="curve" smooth="yes"/>
      <point x="1412" y="-220"/>
      <point x="1328" y="-374"/>
      <point x="1134" y="-374" type="curve" smooth="yes"/>
      <point x="1104" y="-374"/>
      <point x="1076" y="-370"/>
      <point x="1058" y="-366" type="curve"/>
      <point x="1060" y="-468" type="line"/>
      <point x="1080" y="-476"/>
      <point x="1128" y="-482"/>
    </contour>
    <contour>
      <point x="877" y="482"/>
      <point x="877" y="-242"/>
    </contour>
    <component base="pe-cy"/>
  </outline>
</glyph>
<glyph name="Haabkhasian-cy" format="2">
  <advance width="1276"/>
  <unicode hex="04A8"/>
  <outline>
    <contour>
      <point x="589" y="-22" type="curve" smooth="yes"/>
      <point x="673" y="-22"/>
      <point x="754" y="4"/>
      <point x="821" y="56" type="curve"/>
      <point x="881" y="12"/>
      <point x="960" y="-22"/>
      <point x="1049" y="-22" type="curve" smooth="yes"/>
      <point x="1123" y="-22"/>
      <point x="1196" y="-4"/>
      <point x="1252" y="38" type="curve"/>
      <point x="1220" y="100" type="line"/>
      <point x="1186" y="80"/>
      <point x="1135" y="72"/>
      <point x="1081" y="72" type="curve" smooth="yes"/>
      <point x="1019" y="72"/>
      <point x="953" y="90"/>
      <point x="907" y="126" type="curve"/>
      <point x="1014" y="196"/>
      <point x="1198" y="398"/>
      <point x="1198" y="692" type="curve" smooth="yes"/>
      <point x="1198" y="1100"/>
      <point x="997" y="1212"/>
      <point x="849" y="1212" type="curve" smooth="yes"/>
      <point x="672" y="1212"/>
      <point x="498" y="1078"/>
      <point x="498" y="672" type="curve" smooth="yes"/>
      <point x="498" y="430"/>
      <point x="624" y="186"/>
      <point x="753" y="108" type="curve"/>
      <point x="679" y="72"/>
      <point x="638" y="72"/>
      <point x="607" y="72" type="curve" smooth="yes"/>
      <point x="404" y="72"/>
      <point x="219" y="294"/>
      <point x="219" y="732" type="curve" smooth="yes"/>
      <point x="219" y="1222"/>
      <point x="384" y="1408"/>
      <point x="573" y="1408" type="curve" smooth="yes"/>
      <point x="607" y="1408"/>
      <point x="655" y="1404"/>
      <point x="691" y="1394" type="curve"/>
      <point x="709" y="1494" type="line"/>
      <point x="673" y="1500"/>
      <point x="613" y="1502"/>
      <point x="579" y="1502" type="curve" smooth="yes"/>
      <point x="314" y="1502"/>
      <point x="42" y="1238"/>
      <point x="42" y="728" type="curve" smooth="yes"/>
      <point x="42" y="302"/>
      <point x="232" y="-22"/>
    </contour>
    <contour>
      <point x="833" y="172" type="curve"/>
      <point x="746" y="264"/>
      <point x="669" y="460"/>
      <point x="669" y="672" type="curve" smooth="yes"/>
      <point x="669" y="986"/>
      <point x="739" y="1132"/>
      <point x="847" y="1132" type="curve" smooth="yes"/>
      <point x="951" y="1132"/>
      <point x="1023" y="974"/>
      <point x="1023" y="690" type="curve" smooth="yes"/>
      <point x="1023" y="424"/>
      <point x="935" y="244"/>
    </contour>
  </outline>
</glyph>
<glyph name="Esdescender-cy" format="2">
  <advance width="1166"/>
  <unicode hex="04AA"/>
  <anchor x="703" y="0" name="bottom"/>
  <anchor x="721" y="-166" name="mark0"/>
  <anchor x="773" y="1486" name="top"/>
  <outline>
    <contour>
      <point x="589" y="-360" type="curve"/>
      <point x="701" y="-360" type="line"/>
      <point x="711" y="-246"/>
      <point x="721" y="-126"/>
      <point x="731" y="-12" type="curve"/>
      <point x="557" y="-10" type="line"/>
      <point x="563" y="-76"/>
      <point x="589" y="-354"/>
    </contour>
    <component base="C"/>
  </outline>
</glyph>
<glyph name="esdescender-cy" format="2">
  <advance width="859"/>
  <unicode hex="04AB"/>
  <anchor x="441" y="0" name="bottom"/>
  <anchor x="476" y="-166" name="mark0"/>
  <anchor x="488" y="1110" name="top"/>
  <outline>
    <contour>
      <point x="557" y="-2" type="curve"/>
      <point x="406" y="-4" type="line"/>
      <point x="417" y="-114"/>
      <point x="430" y="-236"/>
      <point x="441" y="-346" type="curve"/>
      <point x="535" y="-346" type="line"/>
      <point x="542" y="-234"/>
      <point x="550" y="-114"/>
    </contour>
    <component base="c"/>
  </outline>
</glyph>
<glyph name="Tedescender-cy" format="2">
  <advance width="1195"/>
  <unicode hex="04AC"/>
  <anchor x="614" y="0" name="bottom"/>
  <anchor x="614" y="744" name="center"/>
  <anchor x="696" y="-166" name="mark0"/>
  <anchor x="614" y="1486" name="top"/>
  <outline>
    <contour>
      <point x="829" y="-360" type="curve"/>
      <point x="933" y="-360" type="line"/>
      <point x="951" y="-204"/>
      <point x="969" y="-50"/>
      <point x="987" y="106" type="curve"/>
      <point x="621" y="106" type="line"/>
      <point x="621" y="0" type="line"/>
      <point x="813" y="0" type="line"/>
      <point x="819" y="-120"/>
      <point x="823" y="-240"/>
    </contour>
    <component base="Te-cy"/>
  </outline>
</glyph>
<glyph name="tedescender-cy" format="2">
  <advance width="1049"/>
  <unicode hex="04AD"/>
  <anchor x="722" y="-166" name="mark0"/>
  <outline>
    <contour>
      <point x="886" y="104" type="curve"/>
      <point x="548" y="104" type="line"/>
      <point x="706" y="0" type="line"/>
      <point x="712" y="-120"/>
      <point x="718" y="-240"/>
      <point x="724" y="-360" type="curve"/>
      <point x="832" y="-360" type="line"/>
      <point x="850" y="-206"/>
      <point x="868" y="-50"/>
    </contour>
    <component base="te-cy"/>
  </outline>
</glyph>
<glyph name="ustrait-cy" format="2">
  <advance width="1073"/>
  <unicode hex="04AF"/>
  <anchor x="539" y="-1" name="center"/>
  <outline>
    <contour>
      <point x="9" y="1110" type="line"/>
      <point x="9" y="1025" type="line"/>
      <point x="119" y="995" type="line"/>
      <point x="467" y="55" type="line"/>
      <point x="467" y="-375" type="line"/>
      <point x="288" y="-399" type="line"/>
      <point x="288" y="-484" type="line"/>
      <point x="827" y="-484" type="line"/>
      <point x="827" y="-399" type="line"/>
      <point x="628" y="-375" type="line"/>
      <point x="628" y="69" type="line"/>
      <point x="951" y="995" type="line"/>
      <point x="1070" y="1025" type="line"/>
      <point x="1070" y="1110" type="line"/>
      <point x="684" y="1110" type="line"/>
      <point x="684" y="1025" type="line"/>
      <point x="829" y="995" type="line"/>
      <point x="585" y="219" type="line"/>
      <point x="562" y="151" type="line"/>
      <point x="543" y="216" type="line"/>
      <point x="299" y="995" type="line"/>
      <point x="446" y="1025" type="line"/>
      <point x="446" y="1110" type="line"/>
    </contour>
  </outline>
</glyph>
<glyph name="Ustraitstroke-cy" format="2">
  <advance width="1166"/>
  <unicode hex="04B0"/>
  <anchor x="588" y="0" name="bottom"/>
  <anchor x="558" y="-166" name="mark0"/>
  <anchor x="608" y="1486" name="top"/>
  <anchor x="-12" y="1486" name="topleft"/>
  <outline>
    <contour>
      <point x="230" y="514" type="line"/>
      <point x="956" y="514" type="line"/>
      <point x="956" y="614" type="line"/>
      <point x="230" y="614" type="line"/>
    </contour>
    <component base="Y"/>
  </outline>
</glyph>
<glyph name="ustraitstroke-cy" format="2">
  <advance width="1230"/>
  <unicode hex="04B1"/>
  <anchor x="539" y="-1" name="center"/>
  <outline>
    <contour>
      <point x="955" y="92" type="line"/>
      <point x="115" y="94" type="line"/>
      <point x="115" y="0" type="line"/>
      <point x="955" y="0" type="line"/>
    </contour>
    <component base="ustrait-cy"/>
  </outline>
</glyph>
<glyph name="Hadescender-cy" format="2">
  <advance width="1324"/>
  <unicode hex="04B2"/>
  <anchor x="658" y="-166" name="mark0"/>
  <outline>
    <contour>
      <point x="1160" y="-352" type="curve"/>
      <point x="1264" y="-352" type="line"/>
      <point x="1266" y="-348"/>
      <point x="1318" y="102"/>
      <point x="1318" y="106" type="curve"/>
      <point x="1034" y="106" type="line"/>
      <point x="1034" y="0" type="line"/>
      <point x="1144" y="0" type="line"/>
      <point x="1146" y="-10"/>
      <point x="1158" y="-310"/>
    </contour>
    <component base="X"/>
  </outline>
</glyph>
<glyph name="hadescender-cy" format="2">
  <advance width="1178"/>
  <unicode hex="04B3"/>
  <anchor x="607" y="-166" name="mark0"/>
  <outline>
    <contour>
      <point x="1204" y="104" type="curve"/>
      <point x="939" y="104" type="line"/>
      <point x="1026" y="0" type="line"/>
      <point x="1030" y="-20"/>
      <point x="1044" y="-316"/>
      <point x="1046" y="-360" type="curve"/>
      <point x="1156" y="-360" type="line"/>
      <point x="1156" y="-356"/>
      <point x="1204" y="96"/>
    </contour>
    <component base="x"/>
  </outline>
</glyph>
<glyph name="tetse-cy" format="2">
  <advance width="1619"/>
  <unicode hex="04B5"/>
  <outline>
    <contour>
      <point x="1553" y="103" type="curve"/>
      <point x="1328" y="103" type="line"/>
      <point x="1328" y="995" type="line"/>
      <point x="1469" y="1025" type="line"/>
      <point x="1469" y="1110" type="line"/>
      <point x="1027" y="1110" type="line"/>
      <point x="1027" y="1025" type="line"/>
      <point x="1169" y="995" type="line"/>
      <point x="1169" y="101" type="line"/>
      <point x="586" y="101" type="line"/>
      <point x="586" y="1009" type="line"/>
      <point x="790" y="1001" type="line"/>
      <point x="836" y="679" type="line"/>
      <point x="937" y="679" type="line"/>
      <point x="921" y="1110" type="line"/>
      <point x="81" y="1110" type="line"/>
      <point x="62" y="679" type="line"/>
      <point x="164" y="679" type="line"/>
      <point x="210" y="1001" type="line"/>
      <point x="426" y="1009" type="line"/>
      <point x="426" y="103" type="line"/>
      <point x="239" y="85" type="line"/>
      <point x="239" y="0" type="line"/>
      <point x="1386" y="0" type="line"/>
      <point x="1389" y="-5"/>
      <point x="1404" y="-324"/>
      <point x="1404" y="-359" type="curve"/>
      <point x="1508" y="-359" type="line"/>
      <point x="1509" y="-355"/>
      <point x="1551" y="94"/>
    </contour>
  </outline>
</glyph>
<glyph name="Chedescender-cy" format="2">
  <advance width="1276"/>
  <unicode hex="04B6"/>
  <anchor x="1256" y="0" name="bottomright"/>
  <anchor x="607" y="744" name="center"/>
  <anchor x="585" y="1486" name="top"/>
  <outline>
    <contour>
      <point x="1060" y="-360" type="curve"/>
      <point x="1166" y="-360" type="line"/>
      <point x="1184" y="-204"/>
      <point x="1200" y="-50"/>
      <point x="1218" y="106" type="curve"/>
      <point x="881" y="106" type="line"/>
      <point x="881" y="0" type="line"/>
      <point x="1044" y="0" type="line"/>
      <point x="1046" y="-14"/>
      <point x="1060" y="-320"/>
    </contour>
    <component base="Che-cy"/>
  </outline>
</glyph>
<glyph name="chedescender-cy" format="2">
  <advance width="1190"/>
  <unicode hex="04B7"/>
  <anchor x="642" y="-166" name="mark0"/>
  <anchor x="873" y="0" name="bottomright"/>
  <anchor x="638" y="556" name="center"/>
  <anchor x="510" y="1110" name="top"/>
  <outline>
    <contour>
      <point x="1124" y="104" type="curve"/>
      <point x="900" y="104" type="line"/>
      <point x="944" y="0" type="line"/>
      <point x="946" y="-4"/>
      <point x="958" y="-320"/>
      <point x="960" y="-360" type="curve"/>
      <point x="1068" y="-360" type="line"/>
      <point x="1070" y="-358"/>
      <point x="1124" y="100"/>
    </contour>
    <component base="che-cy"/>
  </outline>
</glyph>
<glyph name="cheverticalstroke-cy" format="2">
  <advance width="1187"/>
  <unicode hex="04B9"/>
  <anchor x="680" y="-166" name="mark0"/>
  <outline>
    <contour>
      <point x="808" y="458" type="curve"/>
      <point x="808" y="102" type="line"/>
      <point x="648" y="86" type="line"/>
      <point x="648" y="0" type="line"/>
      <point x="1096" y="0" type="line"/>
      <point x="1096" y="86" type="line"/>
      <point x="968" y="102" type="line"/>
      <point x="968" y="994" type="line"/>
      <point x="1086" y="1024" type="line"/>
      <point x="1086" y="1110" type="line"/>
      <point x="666" y="1110" type="line"/>
      <point x="666" y="1024" type="line"/>
      <point x="808" y="994" type="line"/>
      <point x="808" y="556" type="line"/>
      <point x="762" y="530"/>
      <point x="700" y="512"/>
      <point x="606" y="506" type="curve"/>
      <point x="606" y="792" type="line"/>
      <point x="502" y="792" type="line"/>
      <point x="502" y="506" type="line"/>
      <point x="306" y="516"/>
      <point x="298" y="594"/>
      <point x="298" y="884" type="curve" smooth="yes"/>
      <point x="298" y="994" type="line"/>
      <point x="426" y="1024" type="line"/>
      <point x="426" y="1110" type="line"/>
      <point x="28" y="1110" type="line"/>
      <point x="28" y="1024" type="line"/>
      <point x="136" y="994" type="line"/>
      <point x="136" y="816" type="line" smooth="yes"/>
      <point x="136" y="486"/>
      <point x="212" y="390"/>
      <point x="492" y="390" type="curve" smooth="yes"/>
      <point x="502" y="390" type="line"/>
      <point x="502" y="178" type="line"/>
      <point x="606" y="178" type="line"/>
      <point x="606" y="396" type="line"/>
      <point x="698" y="406"/>
      <point x="742" y="428"/>
    </contour>
  </outline>
</glyph>
<glyph name="cheabkhasian-cy" format="2">
  <advance width="1178"/>
  <unicode hex="04BD"/>
  <anchor x="714" y="5" name="bottom"/>
  <anchor x="755" y="-171" name="mark0"/>
  <anchor x="844" y="20" name="ogonek"/>
  <anchor x="750" y="1110" name="top"/>
  <outline>
    <contour>
      <point x="331" y="570" type="curve"/>
      <point x="337" y="664" type="line"/>
      <point x="198" y="666"/>
      <point x="166" y="712"/>
      <point x="166" y="772" type="curve" smooth="yes"/>
      <point x="166" y="806"/>
      <point x="188" y="882"/>
      <point x="206" y="902" type="curve"/>
      <point x="70" y="926" type="line"/>
      <point x="50" y="912"/>
      <point x="18" y="826"/>
      <point x="18" y="772" type="curve" smooth="yes"/>
      <point x="18" y="624"/>
      <point x="158" y="572"/>
    </contour>
    <component base="e" xOffset="274"/>
  </outline>
</glyph>
<glyph name="Chedescenderabkhasian-cy" format="2">
  <advance width="1320"/>
  <unicode hex="04BE"/>
  <outline>
    <contour>
      <point x="769" y="-470" type="curve" smooth="yes"/>
      <point x="882" y="-470"/>
      <point x="949" y="-427"/>
      <point x="953" y="-306" type="curve" smooth="yes"/>
      <point x="957" y="-173"/>
      <point x="873" y="-47"/>
      <point x="830" y="-3" type="curve"/>
      <point x="753" y="-4" type="line"/>
      <point x="774" y="-41"/>
      <point x="818" y="-144"/>
      <point x="818" y="-240" type="curve" smooth="yes"/>
      <point x="818" y="-328"/>
      <point x="784" y="-342"/>
      <point x="721" y="-342" type="curve" smooth="yes"/>
      <point x="708" y="-342"/>
      <point x="678" y="-340"/>
      <point x="659" y="-337" type="curve"/>
      <point x="657" y="-455" type="line"/>
      <point x="685" y="-463"/>
      <point x="733" y="-470"/>
    </contour>
    <component base="Cheabkhasian-cy"/>
  </outline>
</glyph>
<glyph name="chedescenderabkhasian-cy" format="2">
  <advance width="1178"/>
  <unicode hex="04BF"/>
  <anchor x="714" y="5" name="bottom"/>
  <anchor x="755" y="-171" name="mark0"/>
  <anchor x="844" y="20" name="ogonek"/>
  <anchor x="750" y="1110" name="top"/>
  <outline>
    <contour>
      <point x="798" y="-19" type="curve"/>
      <point x="708" y="-15" type="line"/>
      <point x="730" y="-55"/>
      <point x="764" y="-130"/>
      <point x="764" y="-200" type="curve" smooth="yes"/>
      <point x="764" y="-322"/>
      <point x="710" y="-342"/>
      <point x="612" y="-342" type="curve" smooth="yes"/>
      <point x="592" y="-342"/>
      <point x="548" y="-336"/>
      <point x="520" y="-326" type="curve"/>
      <point x="518" y="-444" type="line"/>
      <point x="554" y="-458"/>
      <point x="614" y="-470"/>
      <point x="660" y="-470" type="curve" smooth="yes"/>
      <point x="810" y="-470"/>
      <point x="898" y="-422"/>
      <point x="904" y="-286" type="curve" smooth="yes"/>
      <point x="909" y="-178"/>
      <point x="844" y="-69"/>
    </contour>
    <component base="cheabkhasian-cy"/>
  </outline>
</glyph>
<glyph name="kahook-cy" format="2">
  <advance width="1090"/>
  <unicode hex="04C4"/>
  <outline>
    <contour>
      <point x="380" y="608" type="curve"/>
      <point x="380" y="994" type="line"/>
      <point x="516" y="1024" type="line"/>
      <point x="516" y="1110" type="line"/>
      <point x="95" y="1110" type="line"/>
      <point x="95" y="1024" type="line"/>
      <point x="226" y="994" type="line"/>
      <point x="226" y="102" type="line"/>
      <point x="91" y="86" type="line"/>
      <point x="91" y="0" type="line"/>
      <point x="526" y="0" type="line"/>
      <point x="526" y="86" type="line"/>
      <point x="380" y="102" type="line"/>
      <point x="380" y="514" type="line"/>
      <point x="430" y="536"/>
      <point x="526" y="548"/>
      <point x="574" y="548" type="curve" smooth="yes"/>
      <point x="756" y="548"/>
      <point x="872" y="472"/>
      <point x="872" y="234" type="curve" smooth="yes"/>
      <point x="872" y="-176"/>
      <point x="792" y="-372"/>
      <point x="584" y="-372" type="curve" smooth="yes"/>
      <point x="556" y="-372"/>
      <point x="548" y="-370"/>
      <point x="532" y="-366" type="curve"/>
      <point x="532" y="-468" type="line"/>
      <point x="552" y="-476"/>
      <point x="576" y="-482"/>
      <point x="606" y="-482" type="curve" smooth="yes"/>
      <point x="880" y="-482"/>
      <point x="1032" y="-206"/>
      <point x="1032" y="242" type="curve" smooth="yes"/>
      <point x="1032" y="464"/>
      <point x="948" y="620"/>
      <point x="698" y="650" type="curve"/>
      <point x="934" y="994" type="line"/>
      <point x="1052" y="1024" type="line"/>
      <point x="1052" y="1110" type="line"/>
      <point x="658" y="1110" type="line"/>
      <point x="658" y="1024" type="line"/>
      <point x="808" y="994" type="line"/>
      <point x="586" y="654" type="line"/>
      <point x="518" y="650"/>
      <point x="420" y="632"/>
    </contour>
  </outline>
</glyph>
<glyph name="eltail-cy" format="2">
  <advance width="1119"/>
  <unicode hex="04C6"/>
  <anchor x="588" y="-166" name="mark0"/>
  <outline>
    <contour>
      <point x="1053" y="0" type="line"/>
      <point x="1053" y="102" type="line"/>
      <point x="851" y="102" type="line"/>
      <point x="905" y="0" type="line"/>
      <point x="889" y="-82"/>
      <point x="843" y="-266"/>
      <point x="815" y="-360" type="curve"/>
      <point x="929" y="-360" type="line"/>
    </contour>
    <component base="el-cy"/>
  </outline>
</glyph>
<glyph name="enhook-cy" format="2">
  <advance width="1419"/>
  <unicode hex="04C8"/>
  <anchor x="739" y="-166" name="mark0"/>
  <outline>
    <contour>
      <point x="1009" y="188" type="curve" smooth="yes"/>
      <point x="1009" y="994" type="line"/>
      <point x="1129" y="1024" type="line"/>
      <point x="1129" y="1110" type="line"/>
      <point x="711" y="1110" type="line"/>
      <point x="711" y="1024" type="line"/>
      <point x="851" y="994" type="line"/>
      <point x="851" y="628" type="line"/>
      <point x="379" y="628" type="line"/>
      <point x="379" y="994" type="line"/>
      <point x="514" y="1024" type="line"/>
      <point x="514" y="1110" type="line"/>
      <point x="95" y="1110" type="line"/>
      <point x="95" y="1024" type="line"/>
      <point x="221" y="994" type="line"/>
      <point x="221" y="102" type="line"/>
      <point x="91" y="86" type="line"/>
      <point x="91" y="0" type="line"/>
      <point x="526" y="0" type="line"/>
      <point x="526" y="84" type="line"/>
      <point x="379" y="98" type="line"/>
      <point x="379" y="524" type="line"/>
      <point x="851" y="524" type="line"/>
      <point x="851" y="244" type="line" smooth="yes"/>
      <point x="851" y="-160"/>
      <point x="799" y="-282"/>
      <point x="609" y="-282" type="curve" smooth="yes"/>
      <point x="577" y="-282"/>
      <point x="553" y="-280"/>
      <point x="537" y="-276" type="curve"/>
      <point x="537" y="-380" type="line"/>
      <point x="557" y="-388"/>
      <point x="605" y="-394"/>
      <point x="633" y="-394" type="curve" smooth="yes"/>
      <point x="895" y="-394"/>
      <point x="1009" y="-212"/>
    </contour>
  </outline>
</glyph>
<glyph name="Entail-cy" format="2">
  <advance width="1419"/>
  <unicode hex="04C9"/>
  <anchor x="1608" y="0" name="bottomright"/>
  <anchor x="675" y="743" name="center"/>
  <anchor x="689" y="1486" name="top"/>
  <anchor x="-11" y="1486" name="topleft"/>
  <outline>
    <contour>
      <point x="1123" y="-360" type="curve"/>
      <point x="1237" y="-360" type="line"/>
      <point x="1241" y="-358"/>
      <point x="1357" y="-6"/>
      <point x="1361" y="0" type="curve"/>
      <point x="1361" y="102" type="line"/>
      <point x="1050" y="102" type="line"/>
      <point x="1050" y="0" type="line"/>
      <point x="1211" y="0" type="line"/>
      <point x="1181" y="-120"/>
      <point x="1153" y="-240"/>
    </contour>
    <component base="En-cy"/>
  </outline>
</glyph>
<glyph name="entail-cy" format="2">
  <advance width="1272"/>
  <unicode hex="04CA"/>
  <anchor x="808" y="-166" name="mark0"/>
  <anchor x="1327" y="0" name="bottomright"/>
  <outline>
    <contour>
      <point x="1206" y="0" type="curve"/>
      <point x="1206" y="102" type="line"/>
      <point x="1008" y="102" type="line"/>
      <point x="1058" y="0" type="line"/>
      <point x="1054" y="-16"/>
      <point x="972" y="-354"/>
      <point x="968" y="-360" type="curve"/>
      <point x="1082" y="-360" type="line"/>
      <point x="1086" y="-358"/>
      <point x="1202" y="-6"/>
    </contour>
    <component base="en-cy"/>
  </outline>
</glyph>
<glyph name="Emtail-cy" format="2">
  <advance width="1820"/>
  <unicode hex="04CD"/>
  <anchor x="988" y="0" name="bottom"/>
  <anchor x="972" y="-166" name="mark0"/>
  <anchor x="988" y="1486" name="top"/>
  <outline>
    <contour>
      <point x="1572" y="-360" type="curve"/>
      <point x="1686" y="-360" type="line"/>
      <point x="1690" y="-358"/>
      <point x="1800" y="-6"/>
      <point x="1804" y="0" type="curve"/>
      <point x="1804" y="102" type="line"/>
      <point x="1485" y="102" type="line"/>
      <point x="1485" y="0" type="line"/>
      <point x="1658" y="0" type="line"/>
      <point x="1654" y="-10"/>
      <point x="1576" y="-354"/>
    </contour>
    <component base="Em-cy"/>
  </outline>
</glyph>
<glyph name="emtail-cy" format="2">
  <advance width="1503"/>
  <unicode hex="04CE"/>
  <outline>
    <contour>
      <point x="1246" y="-360" type="line"/>
      <point x="1352" y="-360" type="line"/>
      <point x="1394" y="-240"/>
      <point x="1434" y="-120"/>
      <point x="1476" y="0" type="curve"/>
      <point x="1476" y="102" type="line"/>
      <point x="1294" y="102" type="line"/>
      <point x="1336" y="0" type="line"/>
    </contour>
    <component base="em-cy"/>
  </outline>
</glyph>
<glyph name="dzeabkhasian-cy" format="2">
  <advance width="1152"/>
  <unicode hex="04E1"/>
  <anchor x="568" y="1110" name="top"/>
  <outline>
    <contour>
      <point x="562" y="412" type="curve"/>
      <point x="1022" y="1028" type="line"/>
      <point x="990" y="1108" type="line"/>
      <point x="126" y="1108" type="line"/>
      <point x="122" y="764" type="line"/>
      <point x="238" y="764" type="line"/>
      <point x="284" y="1010" type="line"/>
      <point x="816" y="1010" type="line"/>
      <point x="366" y="366" type="line"/>
      <point x="408" y="302" type="line"/>
      <point x="724" y="328"/>
      <point x="848" y="136"/>
      <point x="848" y="-4" type="curve" smooth="yes"/>
      <point x="848" y="-260"/>
      <point x="676" y="-396"/>
      <point x="422" y="-396" type="curve" smooth="yes"/>
      <point x="362" y="-396"/>
      <point x="306" y="-380"/>
      <point x="258" y="-358" type="curve"/>
      <point x="202" y="-92" type="line"/>
      <point x="114" y="-92" type="line"/>
      <point x="120" y="-428" type="line"/>
      <point x="160" y="-446"/>
      <point x="268" y="-502"/>
      <point x="458" y="-502" type="curve" smooth="yes"/>
      <point x="760" y="-502"/>
      <point x="1018" y="-318"/>
      <point x="1018" y="0" type="curve" smooth="yes"/>
      <point x="1018" y="214"/>
      <point x="874" y="414"/>
    </contour>
    <component base="ezh"/>
  </outline>
</glyph>
<glyph name="Gestrokehook-cy" format="2">
  <advance width="1008"/>
  <unicode hex="04FA"/>
  <anchor x="270" y="0" name="bottomright"/>
  <anchor x="462" y="744" name="center"/>
  <anchor x="604" y="1486" name="top"/>
  <outline>
    <contour>
      <point x="568" y="-470" type="curve" smooth="yes"/>
      <point x="693" y="-470"/>
      <point x="772" y="-399"/>
      <point x="772" y="-276" type="curve" smooth="yes"/>
      <point x="772" y="-162"/>
      <point x="696" y="-16"/>
      <point x="644" y="84" type="curve"/>
      <point x="335" y="106" type="line"/>
      <point x="335" y="0" type="line"/>
      <point x="584" y="0" type="line"/>
      <point x="614" y="-76"/>
      <point x="632" y="-149"/>
      <point x="632" y="-198" type="curve" smooth="yes"/>
      <point x="632" y="-305"/>
      <point x="592" y="-342"/>
      <point x="520" y="-342" type="curve" smooth="yes"/>
      <point x="500" y="-342"/>
      <point x="456" y="-336"/>
      <point x="428" y="-326" type="curve"/>
      <point x="426" y="-444" type="line"/>
      <point x="462" y="-458"/>
      <point x="522" y="-470"/>
    </contour>
    <component base="Ghestroke-cy" xOffset="-28"/>
  </outline>
</glyph>
<glyph name="gestrokehook-cy" format="2">
  <advance width="886"/>
  <unicode hex="04FB"/>
  <anchor x="239" y="0" name="bottomright"/>
  <anchor x="481" y="556" name="center"/>
  <anchor x="481" y="1110" name="top"/>
  <outline>
    <contour>
      <point x="593" y="86" type="curve"/>
      <point x="355" y="102" type="line"/>
      <point x="533" y="0" type="line"/>
      <point x="557" y="-68"/>
      <point x="577" y="-136"/>
      <point x="577" y="-180" type="curve" smooth="yes"/>
      <point x="577" y="-302"/>
      <point x="543" y="-342"/>
      <point x="455" y="-342" type="curve" smooth="yes"/>
      <point x="435" y="-342"/>
      <point x="401" y="-336"/>
      <point x="373" y="-326" type="curve"/>
      <point x="371" y="-444" type="line"/>
      <point x="407" y="-458"/>
      <point x="457" y="-470"/>
      <point x="503" y="-470" type="curve" smooth="yes"/>
      <point x="643" y="-470"/>
      <point x="717" y="-394"/>
      <point x="717" y="-258" type="curve" smooth="yes"/>
      <point x="717" y="-150"/>
      <point x="643" y="-8"/>
    </contour>
    <component base="ghestroke-cy" xOffset="-29"/>
  </outline>
</glyph>
<glyph name="hahook-cy" format="2">
  <advance width="1032"/>
  <unicode hex="04FD"/>
  <anchor x="622" y="-166" name="mark0"/>
  <outline>
    <contour>
      <point x="1000" y="1028" type="line"/>
      <point x="1000" y="1110" type="line"/>
      <point x="626" y="1110" type="line"/>
      <point x="626" y="1028" type="line"/>
      <point x="760" y="1004" type="line"/>
      <point x="592" y="722" type="line"/>
      <point x="547" y="637" type="line"/>
      <point x="498" y="724" type="line"/>
      <point x="342" y="1004" type="line"/>
      <point x="468" y="1028" type="line"/>
      <point x="468" y="1110" type="line"/>
      <point x="46" y="1110" type="line"/>
      <point x="46" y="1028" type="line"/>
      <point x="144" y="1004" type="line"/>
      <point x="440" y="558" type="line"/>
      <point x="138" y="102" type="line"/>
      <point x="20" y="84" type="line"/>
      <point x="20" y="0" type="line"/>
      <point x="438" y="0" type="line"/>
      <point x="438" y="84" type="line"/>
      <point x="282" y="102" type="line"/>
      <point x="452" y="398" type="line"/>
      <point x="498" y="486" type="line"/>
      <point x="665" y="229"/>
      <point x="804" y="-47"/>
      <point x="804" y="-192" type="curve" smooth="yes"/>
      <point x="804" y="-294"/>
      <point x="762" y="-362"/>
      <point x="654" y="-376" type="curve"/>
      <point x="678" y="-482" type="line"/>
      <point x="862" y="-450"/>
      <point x="964" y="-328"/>
      <point x="964" y="-176" type="curve" smooth="yes"/>
      <point x="964" y="45"/>
      <point x="793" y="292"/>
      <point x="612" y="576" type="curve"/>
      <point x="896" y="1004" type="line"/>
    </contour>
  </outline>
</glyph>
<glyph name="hastroke-cy" format="2">
  <advance width="1040"/>
  <unicode hex="04FF"/>
  <anchor x="607" y="-166" name="mark0"/>
  <outline>
    <contour>
      <point x="859" y="629" type="line"/>
      <point x="193" y="629" type="line"/>
      <point x="193" y="509" type="line"/>
      <point x="859" y="509" type="line"/>
    </contour>
    <component base="x"/>
  </outline>
</glyph>
<glyph name="Komide-cy" format="2">
  <advance width="1093"/>
  <unicode hex="0500"/>
  <outline>
    <contour>
      <point x="505" y="-16" type="curve" smooth="yes"/>
      <point x="562" y="-16"/>
      <point x="633" y="-8"/>
      <point x="683" y="0" type="curve"/>
      <point x="1035" y="0" type="line"/>
      <point x="1035" y="86" type="line"/>
      <point x="889" y="104" type="line"/>
      <point x="889" y="1386" type="line"/>
      <point x="1029" y="1414" type="line"/>
      <point x="1029" y="1486" type="line"/>
      <point x="551" y="1486" type="line"/>
      <point x="551" y="1414" type="line"/>
      <point x="727" y="1386" type="line"/>
      <point x="727" y="884" type="line"/>
      <point x="668" y="892"/>
      <point x="592" y="904"/>
      <point x="531" y="904" type="curve" smooth="yes"/>
      <point x="243" y="904"/>
      <point x="44" y="742"/>
      <point x="44" y="422" type="curve" smooth="yes"/>
      <point x="44" y="148"/>
      <point x="207" y="-16"/>
    </contour>
    <contour>
      <point x="549" y="90" type="curve" smooth="yes"/>
      <point x="341" y="90"/>
      <point x="216" y="206"/>
      <point x="216" y="434" type="curve" smooth="yes"/>
      <point x="216" y="688"/>
      <point x="341" y="806"/>
      <point x="547" y="806" type="curve" smooth="yes"/>
      <point x="641" y="806"/>
      <point x="678" y="798"/>
      <point x="727" y="790" type="curve"/>
      <point x="727" y="106" type="line"/>
      <point x="683" y="96"/>
      <point x="617" y="90"/>
    </contour>
  </outline>
</glyph>
<glyph name="komidje-cy" format="2">
  <advance width="1531"/>
  <unicode hex="0503"/>
  <outline>
    <contour>
      <point x="1412" y="290" type="curve" smooth="yes"/>
      <point x="1412" y="519" type="line"/>
      <point x="1542" y="541" type="line"/>
      <point x="1542" y="628" type="line"/>
      <point x="1120" y="628" type="line"/>
      <point x="1120" y="541" type="line"/>
      <point x="1256" y="517" type="line"/>
      <point x="1256" y="325" type="line" smooth="yes"/>
      <point x="1256" y="165"/>
      <point x="1202" y="83"/>
      <point x="1076" y="83" type="curve" smooth="yes"/>
      <point x="950" y="83"/>
      <point x="896" y="165"/>
      <point x="896" y="327" type="curve" smooth="yes"/>
      <point x="896" y="1610" type="line"/>
      <point x="860" y="1638" type="line"/>
      <point x="856" y="1638" type="line"/>
      <point x="560" y="1604" type="line"/>
      <point x="560" y="1534" type="line"/>
      <point x="738" y="1514" type="line"/>
      <point x="738" y="1116" type="line"/>
      <point x="689" y="1130"/>
      <point x="627" y="1140"/>
      <point x="564" y="1140" type="curve" smooth="yes"/>
      <point x="254" y="1140"/>
      <point x="67" y="870"/>
      <point x="67" y="528" type="curve" smooth="yes"/>
      <point x="67" y="152"/>
      <point x="248" y="-22"/>
      <point x="446" y="-22" type="curve" smooth="yes"/>
      <point x="603" y="-22"/>
      <point x="707" y="79"/>
      <point x="766" y="163" type="curve"/>
      <point x="817" y="44"/>
      <point x="938" y="-16"/>
      <point x="1074" y="-16" type="curve" smooth="yes"/>
      <point x="1257" y="-16"/>
      <point x="1412" y="93"/>
    </contour>
    <contour>
      <point x="738" y="972" type="curve"/>
      <point x="738" y="290" type="line" smooth="yes"/>
      <point x="738" y="272"/>
      <point x="740" y="256"/>
      <point x="742" y="240" type="curve"/>
      <point x="702" y="180"/>
      <point x="622" y="103"/>
      <point x="508" y="103" type="curve" smooth="yes"/>
      <point x="360" y="103"/>
      <point x="235" y="231"/>
      <point x="238" y="556" type="curve" smooth="yes"/>
      <point x="241" y="896"/>
      <point x="376" y="1041"/>
      <point x="551" y="1041" type="curve" smooth="yes"/>
      <point x="634" y="1041"/>
      <point x="719" y="1009"/>
    </contour>
  </outline>
</glyph>
<glyph name="komizje-cy" format="2">
  <advance width="1672"/>
  <unicode hex="0505"/>
  <outline>
    <contour>
      <point x="1329" y="290" type="curve" smooth="yes"/>
      <point x="1329" y="518" type="line"/>
      <point x="1459" y="540" type="line"/>
      <point x="1459" y="628" type="line"/>
      <point x="1037" y="628" type="line"/>
      <point x="1037" y="540" type="line"/>
      <point x="1171" y="516" type="line"/>
      <point x="1171" y="324" type="line" smooth="yes"/>
      <point x="1171" y="148"/>
      <point x="1119" y="84"/>
      <point x="995" y="84" type="curve" smooth="yes"/>
      <point x="871" y="84"/>
      <point x="815" y="148"/>
      <point x="815" y="326" type="curve" smooth="yes"/>
      <point x="815" y="468"/>
      <point x="708" y="579"/>
      <point x="517" y="592" type="curve"/>
      <point x="668" y="630"/>
      <point x="761" y="739"/>
      <point x="761" y="866" type="curve" smooth="yes"/>
      <point x="761" y="1036"/>
      <point x="617" y="1134"/>
      <point x="395" y="1134" type="curve" smooth="yes"/>
      <point x="195" y="1134"/>
      <point x="171" y="1067"/>
      <point x="37" y="1067" type="curve"/>
      <point x="48" y="776" type="line"/>
      <point x="146" y="776" type="line"/>
      <point x="167" y="971" type="line"/>
      <point x="197" y="991"/>
      <point x="237" y="1039"/>
      <point x="377" y="1039" type="curve" smooth="yes"/>
      <point x="525" y="1039"/>
      <point x="589" y="965"/>
      <point x="589" y="843" type="curve" smooth="yes"/>
      <point x="589" y="729"/>
      <point x="526" y="630"/>
      <point x="367" y="626" type="curve" smooth="yes"/>
      <point x="283" y="624" type="line"/>
      <point x="283" y="508" type="line"/>
      <point x="321" y="515"/>
      <point x="331" y="518"/>
      <point x="369" y="522" type="curve"/>
      <point x="587" y="526"/>
      <point x="641" y="431"/>
      <point x="641" y="310" type="curve" smooth="yes"/>
      <point x="641" y="112"/>
      <point x="797" y="-16"/>
      <point x="995" y="-16" type="curve" smooth="yes"/>
      <point x="1175" y="-16"/>
      <point x="1329" y="92"/>
    </contour>
  </outline>
</glyph>
<glyph name="komidzje-cy" format="2">
  <advance width="1059"/>
  <unicode hex="0507"/>
  <outline>
    <contour>
      <point x="37" y="1066" type="curve"/>
      <point x="47" y="776" type="line"/>
      <point x="148" y="776" type="line"/>
      <point x="168" y="970" type="line"/>
      <point x="198" y="990"/>
      <point x="238" y="1039"/>
      <point x="378" y="1039" type="curve" smooth="yes"/>
      <point x="508" y="1039"/>
      <point x="583" y="961"/>
      <point x="583" y="844" type="curve" smooth="yes"/>
      <point x="583" y="710"/>
      <point x="506" y="636"/>
      <point x="348" y="627" type="curve" smooth="yes"/>
      <point x="264" y="622" type="line"/>
      <point x="264" y="511" type="line"/>
      <point x="302" y="515"/>
      <point x="312" y="515"/>
      <point x="350" y="522" type="curve"/>
      <point x="548" y="526"/>
      <point x="632" y="436"/>
      <point x="632" y="310" type="curve" smooth="yes"/>
      <point x="632" y="154"/>
      <point x="544" y="102"/>
      <point x="438" y="100" type="curve"/>
      <point x="438" y="0" type="line"/>
      <point x="832" y="0" type="line"/>
      <point x="840" y="-102"/>
      <point x="850" y="-284"/>
      <point x="850" y="-360" type="curve"/>
      <point x="952" y="-360" type="line"/>
      <point x="958" y="-308"/>
      <point x="1006" y="24"/>
      <point x="1006" y="100" type="curve"/>
      <point x="728" y="100" type="line"/>
      <point x="742" y="110"/>
      <point x="811" y="190"/>
      <point x="811" y="316" type="curve" smooth="yes"/>
      <point x="811" y="472"/>
      <point x="688" y="584"/>
      <point x="512" y="592" type="curve"/>
      <point x="654" y="626"/>
      <point x="755" y="737"/>
      <point x="755" y="866" type="curve" smooth="yes"/>
      <point x="755" y="1019"/>
      <point x="628" y="1134"/>
      <point x="396" y="1134" type="curve" smooth="yes"/>
      <point x="206" y="1134"/>
      <point x="151" y="1066"/>
    </contour>
  </outline>
</glyph>
<glyph name="komisje-cy" format="2">
  <advance width="1010"/>
  <unicode hex="050D"/>
  <anchor x="490" y="-166" name="mark0"/>
  <outline>
    <contour>
      <point x="897" y="290" type="curve" smooth="yes"/>
      <point x="897" y="517" type="line"/>
      <point x="1024" y="539" type="line"/>
      <point x="1024" y="628" type="line"/>
      <point x="600" y="628" type="line"/>
      <point x="600" y="539" type="line"/>
      <point x="738" y="517" type="line"/>
      <point x="738" y="325" type="line" smooth="yes"/>
      <point x="738" y="166"/>
      <point x="678" y="83"/>
      <point x="538" y="83" type="curve" smooth="yes"/>
      <point x="363" y="83"/>
      <point x="218" y="260"/>
      <point x="220" y="617" type="curve" smooth="yes"/>
      <point x="221" y="879"/>
      <point x="340" y="1043"/>
      <point x="525" y="1043" type="curve" smooth="yes"/>
      <point x="619" y="1043"/>
      <point x="693" y="1025"/>
      <point x="720" y="989" type="curve"/>
      <point x="747" y="833" type="line"/>
      <point x="854" y="833" type="line"/>
      <point x="862" y="1080" type="line"/>
      <point x="817" y="1102"/>
      <point x="672" y="1138"/>
      <point x="547" y="1138" type="curve" smooth="yes"/>
      <point x="225" y="1138"/>
      <point x="52" y="860"/>
      <point x="54" y="556" type="curve" smooth="yes"/>
      <point x="56" y="231"/>
      <point x="242" y="-16"/>
      <point x="536" y="-16" type="curve" smooth="yes"/>
      <point x="755" y="-16"/>
      <point x="897" y="93"/>
    </contour>
  </outline>
</glyph>
<glyph name="Reversedze-cy" format="2">
  <advance width="1004"/>
  <unicode hex="0510"/>
  <outline>
    <contour>
      <point x="532" y="-22" type="curve" smooth="yes"/>
      <point x="693" y="-22"/>
      <point x="792" y="50"/>
      <point x="884" y="54" type="curve"/>
      <point x="934" y="322" type="line"/>
      <point x="840" y="336" type="line"/>
      <point x="760" y="148" type="line"/>
      <point x="716" y="106"/>
      <point x="629" y="74"/>
      <point x="540" y="74" type="curve" smooth="yes"/>
      <point x="356" y="74"/>
      <point x="245" y="180"/>
      <point x="245" y="396" type="curve" smooth="yes"/>
      <point x="245" y="540"/>
      <point x="299" y="718"/>
      <point x="518" y="718" type="curve"/>
      <point x="666" y="710" type="line"/>
      <point x="666" y="830" type="line"/>
      <point x="544" y="816" type="line"/>
      <point x="416" y="816"/>
      <point x="277" y="884"/>
      <point x="277" y="1102" type="curve" smooth="yes"/>
      <point x="277" y="1294"/>
      <point x="372" y="1406"/>
      <point x="534" y="1406" type="curve" smooth="yes"/>
      <point x="642" y="1406"/>
      <point x="721" y="1366"/>
      <point x="744" y="1344" type="curve"/>
      <point x="780" y="1120" type="line"/>
      <point x="880" y="1120" type="line"/>
      <point x="896" y="1438" type="line"/>
      <point x="825" y="1458"/>
      <point x="661" y="1502"/>
      <point x="552" y="1502" type="curve" smooth="yes"/>
      <point x="273" y="1502"/>
      <point x="106" y="1360"/>
      <point x="106" y="1122" type="curve" smooth="yes"/>
      <point x="106" y="896"/>
      <point x="283" y="802"/>
      <point x="445" y="770" type="curve"/>
      <point x="190" y="758"/>
      <point x="60" y="590"/>
      <point x="60" y="386" type="curve" smooth="yes"/>
      <point x="60" y="140"/>
      <point x="209" y="-22"/>
    </contour>
  </outline>
</glyph>
<glyph name="reversedze-cy" format="2">
  <advance width="957"/>
  <unicode hex="0511"/>
  <anchor x="469" y="0" name="bottom"/>
  <anchor x="469" y="1110" name="top"/>
  <outline>
    <contour>
      <point x="524" y="-21" type="curve" smooth="yes"/>
      <point x="660" y="-21"/>
      <point x="783" y="29"/>
      <point x="847" y="59" type="curve"/>
      <point x="859" y="311" type="line"/>
      <point x="767" y="311" type="line"/>
      <point x="725" y="183" type="line"/>
      <point x="688" y="102"/>
      <point x="613" y="71"/>
      <point x="533" y="71" type="curve" smooth="yes"/>
      <point x="318" y="71"/>
      <point x="246" y="196"/>
      <point x="246" y="316" type="curve" smooth="yes"/>
      <point x="246" y="441"/>
      <point x="334" y="523"/>
      <point x="533" y="523" type="curve" smooth="yes"/>
      <point x="539" y="523"/>
      <point x="617" y="510"/>
      <point x="619" y="509" type="curve"/>
      <point x="619" y="624" type="line"/>
      <point x="547" y="626" type="line" smooth="yes"/>
      <point x="404" y="630"/>
      <point x="292" y="736"/>
      <point x="292" y="873" type="curve" smooth="yes"/>
      <point x="292" y="1002"/>
      <point x="381" y="1040"/>
      <point x="488" y="1040" type="curve" smooth="yes"/>
      <point x="615" y="1040"/>
      <point x="694" y="991"/>
      <point x="720" y="971" type="curve"/>
      <point x="739" y="776" type="line"/>
      <point x="837" y="776" type="line"/>
      <point x="846" y="1066" type="line"/>
      <point x="729" y="1069"/>
      <point x="698" y="1134"/>
      <point x="510" y="1134" type="curve" smooth="yes"/>
      <point x="304" y="1134"/>
      <point x="127" y="1008"/>
      <point x="127" y="839" type="curve" smooth="yes"/>
      <point x="127" y="677"/>
      <point x="253" y="610"/>
      <point x="412" y="582" type="curve"/>
      <point x="438" y="593" type="line"/>
      <point x="429" y="593"/>
      <point x="417" y="593"/>
      <point x="408" y="593" type="curve" smooth="yes"/>
      <point x="202" y="586"/>
      <point x="72" y="469"/>
      <point x="72" y="304" type="curve" smooth="yes"/>
      <point x="72" y="120"/>
      <point x="226" y="-21"/>
    </contour>
  </outline>
</glyph>
<glyph name="elhook-cy" format="2">
  <advance width="1214"/>
  <unicode hex="0513"/>
  <outline>
    <contour>
      <point x="917" y="12" type="curve" smooth="yes"/>
      <point x="917" y="990" type="line"/>
      <point x="1046" y="1022" type="line"/>
      <point x="1046" y="1110" type="line"/>
      <point x="227" y="1110" type="line"/>
      <point x="227" y="1024" type="line"/>
      <point x="366" y="994" type="line"/>
      <point x="364" y="456"/>
      <point x="305" y="148"/>
      <point x="201" y="148" type="curve" smooth="yes"/>
      <point x="133" y="148"/>
      <point x="109" y="154"/>
      <point x="81" y="160" type="curve"/>
      <point x="91" y="0" type="line"/>
      <point x="109" y="-4"/>
      <point x="128" y="-12"/>
      <point x="162" y="-12" type="curve" smooth="yes"/>
      <point x="298" y="-12"/>
      <point x="328" y="43"/>
      <point x="364" y="124" type="curve" smooth="yes"/>
      <point x="396" y="196"/>
      <point x="464" y="486"/>
      <point x="464" y="896" type="curve" smooth="yes"/>
      <point x="464" y="1002" type="line"/>
      <point x="775" y="1002" type="line"/>
      <point x="775" y="50" type="line"/>
      <point x="775" y="-166"/>
      <point x="741" y="-338"/>
      <point x="619" y="-376" type="curve" smooth="yes"/>
      <point x="571" y="-391"/>
      <point x="519" y="-398"/>
      <point x="499" y="-396" type="curve"/>
      <point x="507" y="-478" type="line"/>
      <point x="519" y="-486"/>
      <point x="601" y="-488"/>
      <point x="621" y="-486" type="curve" smooth="yes"/>
      <point x="813" y="-467"/>
      <point x="917" y="-320"/>
    </contour>
  </outline>
</glyph>
<glyph name="Pedescender-cy" format="2">
  <advance width="1354"/>
  <unicode hex="0524"/>
  <anchor x="907" y="0" name="bottomright"/>
  <outline>
    <contour>
      <point x="1140" y="-360" type="curve"/>
      <point x="1244" y="-360" type="line"/>
      <point x="1246" y="-358"/>
      <point x="1296" y="104"/>
      <point x="1296" y="106" type="curve"/>
      <point x="982" y="106" type="line"/>
      <point x="982" y="0" type="line"/>
      <point x="1122" y="0" type="line"/>
      <point x="1124" y="-14"/>
      <point x="1140" y="-320"/>
    </contour>
    <component base="Pe-cy"/>
  </outline>
</glyph>
<glyph name="pedescender-cy" format="2">
  <advance width="1234"/>
  <unicode hex="0525"/>
  <anchor x="916" y="0" name="bottomright"/>
  <outline>
    <contour>
      <point x="1168" y="104" type="curve"/>
      <point x="958" y="104" type="line"/>
      <point x="988" y="0" type="line"/>
      <point x="994" y="-120"/>
      <point x="998" y="-240"/>
      <point x="1004" y="-360" type="curve"/>
      <point x="1114" y="-360" type="line"/>
      <point x="1132" y="-206"/>
      <point x="1150" y="-50"/>
    </contour>
    <component base="pe-cy"/>
  </outline>
</glyph>
<glyph name="Shhadescender-cy" format="2">
  <advance width="1524"/>
  <unicode hex="0526"/>
  <anchor x="-26" y="1486" name="bottomright"/>
  <anchor x="623" y="742" name="center"/>
  <anchor x="645" y="0" name="top"/>
  <outline>
    <contour>
      <point x="1123" y="-360" type="curve"/>
      <point x="1227" y="-360" type="line"/>
      <point x="1229" y="-358"/>
      <point x="1279" y="110"/>
      <point x="1279" y="110" type="curve"/>
      <point x="931" y="110" type="line"/>
      <point x="931" y="0" type="line"/>
      <point x="1105" y="0" type="line"/>
      <point x="1107" y="-14"/>
      <point x="1123" y="-320"/>
    </contour>
    <component base="Shha-cy"/>
  </outline>
</glyph>
<glyph name="shhadescender-cy" format="2">
  <advance width="1162"/>
  <unicode hex="0527"/>
  <anchor x="586" y="0" name="bottom"/>
  <anchor x="561" y="576" name="center"/>
  <anchor x="224" y="1602" name="top"/>
  <outline>
    <contour>
      <point x="932" y="-360" type="curve"/>
      <point x="1042" y="-360" type="line"/>
      <point x="1060" y="-206"/>
      <point x="1078" y="-50"/>
      <point x="1096" y="104" type="curve"/>
      <point x="913" y="104" type="line"/>
      <point x="916" y="0" type="line"/>
      <point x="928" y="-108"/>
      <point x="932" y="-320"/>
    </contour>
    <component base="h"/>
  </outline>
</glyph>
<glyph name="EnLeftHook-cy" format="2">
  <advance width="1396"/>
  <unicode hex="0528"/>
  <outline>
    <contour>
      <point x="42" y="-346" type="line"/>
      <point x="187" y="-314"/>
      <point x="346" y="-188"/>
      <point x="385" y="42" type="curve" smooth="yes"/>
      <point x="410" y="166"/>
      <point x="405" y="328"/>
      <point x="405" y="550" type="curve" smooth="yes"/>
      <point x="405" y="711" type="line"/>
      <point x="1038" y="711" type="line"/>
      <point x="1038" y="103" type="line"/>
      <point x="891" y="85" type="line"/>
      <point x="891" y="0" type="line"/>
      <point x="1338" y="0" type="line"/>
      <point x="1338" y="85" type="line"/>
      <point x="1198" y="103" type="line"/>
      <point x="1198" y="1380" type="line"/>
      <point x="1332" y="1401" type="line"/>
      <point x="1332" y="1486" type="line"/>
      <point x="893" y="1486" type="line"/>
      <point x="893" y="1401" type="line"/>
      <point x="1038" y="1380" type="line"/>
      <point x="1038" y="815" type="line"/>
      <point x="405" y="815" type="line"/>
      <point x="405" y="1380" type="line"/>
      <point x="555" y="1401" type="line"/>
      <point x="555" y="1486" type="line"/>
      <point x="106" y="1486" type="line"/>
      <point x="106" y="1401" type="line"/>
      <point x="244" y="1380" type="line"/>
      <point x="244" y="506" type="line" smooth="yes"/>
      <point x="244" y="208"/>
      <point x="240" y="96"/>
      <point x="204" y="-18" type="curve"/>
      <point x="171" y="-152"/>
      <point x="89" y="-242"/>
      <point x="-2" y="-274" type="curve"/>
    </contour>
  </outline>
</glyph>
<glyph name="eldescender-cy" format="2">
  <advance width="1128"/>
  <unicode hex="052F"/>
  <anchor x="573" y="-166" name="mark0"/>
  <outline>
    <contour>
      <point x="1062" y="104" type="curve"/>
      <point x="852" y="104" type="line"/>
      <point x="882" y="0" type="line"/>
      <point x="884" y="-4"/>
      <point x="898" y="-320"/>
      <point x="898" y="-360" type="curve"/>
      <point x="1008" y="-360" type="line"/>
      <point x="1026" y="-206"/>
      <point x="1044" y="-50"/>
    </contour>
    <component base="el-cy"/>
  </outline>
</glyph>
<glyph name="Germandbls" format="2">
  <advance width="1434"/>
  <unicode hex="1E9E"/>
  <outline>
    <contour>
      <point x="40" y="84" type="line"/>
      <point x="40" y="0" type="line"/>
      <point x="309" y="0" type="line"/>
      <point x="309" y="926" type="line" smooth="yes"/>
      <point x="309" y="1230"/>
      <point x="482" y="1410"/>
      <point x="686" y="1410" type="curve" smooth="yes"/>
      <point x="851" y="1410"/>
      <point x="931" y="1344"/>
      <point x="966" y="1304" type="curve"/>
      <point x="719" y="852" type="line"/>
      <point x="719" y="812" type="line"/>
      <point x="837" y="752"/>
      <point x="1129" y="616"/>
      <point x="1129" y="378" type="curve" smooth="yes"/>
      <point x="1129" y="154"/>
      <point x="1024" y="72"/>
      <point x="899" y="72" type="curve" smooth="yes"/>
      <point x="811" y="72"/>
      <point x="721" y="104"/>
      <point x="691" y="148" type="curve"/>
      <point x="660" y="400" type="line"/>
      <point x="566" y="400" type="line"/>
      <point x="555" y="60" type="line"/>
      <point x="605" y="54"/>
      <point x="724" y="-22"/>
      <point x="890" y="-22" type="curve" smooth="yes"/>
      <point x="1127" y="-22"/>
      <point x="1278" y="170"/>
      <point x="1278" y="414" type="curve" smooth="yes"/>
      <point x="1278" y="708"/>
      <point x="1032" y="818"/>
      <point x="874" y="914" type="curve"/>
      <point x="1109" y="1322" type="line"/>
      <point x="1109" y="1392" type="line"/>
      <point x="1012" y="1456"/>
      <point x="899" y="1502"/>
      <point x="732" y="1502" type="curve" smooth="yes"/>
      <point x="408" y="1502"/>
      <point x="154" y="1232"/>
      <point x="154" y="890" type="curve" smooth="yes"/>
      <point x="154" y="104" type="line"/>
    </contour>
  </outline>
</glyph>
<glyph name="dagger" format="2">
  <advance width="926"/>
  <unicode hex="2020"/>
  <outline>
    <contour>
      <point x="406" y="1108" type="line"/>
      <point x="390" y="898" type="line"/>
      <point x="420" y="114" type="line"/>
      <point x="508" y="114" type="line"/>
      <point x="536" y="898" type="line"/>
      <point x="520" y="1108" type="line"/>
      <point x="786" y="1104" type="line"/>
      <point x="786" y="1228" type="line"/>
      <point x="520" y="1222" type="line"/>
      <point x="534" y="1442" type="line"/>
      <point x="534" y="1610" type="line"/>
      <point x="392" y="1610" type="line"/>
      <point x="392" y="1442" type="line"/>
      <point x="406" y="1222" type="line"/>
      <point x="140" y="1228" type="line"/>
      <point x="140" y="1104" type="line"/>
    </contour>
  </outline>
</glyph>
<glyph name="fraction" format="2">
  <advance width="392"/>
  <unicode hex="2044"/>
  <outline>
    <contour>
      <point x="558" y="1630" type="line"/>
      <point x="-290" y="-102" type="line"/>
      <point x="-166" y="-102" type="line"/>
      <point x="682" y="1630" type="line"/>
    </contour>
  </outline>
</glyph>
<glyph name="franc" format="2">
  <advance width="1189"/>
  <unicode hex="20A3"/>
  <anchor x="656" y="2" name="bottom"/>
  <anchor x="666" y="-164" name="mark0"/>
  <anchor x="716" y="1488" name="top"/>
  <outline>
    <contour>
      <point x="280" y="460" type="line"/>
      <point x="52" y="460" type="line"/>
      <point x="52" y="344" type="line"/>
      <point x="280" y="344" type="line"/>
      <point x="280" y="112" type="line"/>
      <point x="133" y="92" type="line"/>
      <point x="133" y="0" type="line"/>
      <point x="705" y="0" type="line"/>
      <point x="705" y="92" type="line"/>
      <point x="440" y="112" type="line"/>
      <point x="440" y="344" type="line"/>
      <point x="750" y="344" type="line"/>
      <point x="750" y="460" type="line"/>
      <point x="440" y="460" type="line"/>
      <point x="440" y="722" type="line"/>
      <point x="909" y="696" type="line"/>
      <point x="909" y="854" type="line"/>
      <point x="440" y="830" type="line"/>
      <point x="440" y="1390" type="line"/>
      <point x="947" y="1376" type="line"/>
      <point x="1001" y="1150" type="line"/>
      <point x="1127" y="1150" type="line"/>
      <point x="1108" y="1486" type="line"/>
      <point x="124" y="1486" type="line"/>
      <point x="124" y="1400" type="line"/>
      <point x="280" y="1378" type="line"/>
    </contour>
  </outline>
</glyph>
<glyph name="peseta" format="2">
  <advance width="1365"/>
  <unicode hex="20A7"/>
  <anchor x="656" y="0" name="bottom"/>
  <anchor x="674" y="-166" name="mark0"/>
  <anchor x="716" y="1486" name="top"/>
  <outline>
    <contour>
      <point x="195" y="1098" type="line"/>
      <point x="195" y="986" type="line"/>
      <point x="1290" y="986" type="line"/>
      <point x="1290" y="1087" type="line"/>
    </contour>
    <component base="P" xOffset="65"/>
  </outline>
</glyph>
<glyph name="euro" format="2">
  <advance width="1263"/>
  <unicode hex="20AC"/>
  <outline>
    <contour>
      <point x="781" y="-28" type="curve" smooth="yes"/>
      <point x="982" y="-28"/>
      <point x="1090" y="62"/>
      <point x="1157" y="66" type="curve"/>
      <point x="1177" y="300" type="line"/>
      <point x="1084" y="318" type="line"/>
      <point x="1035" y="158" type="line"/>
      <point x="974" y="104"/>
      <point x="911" y="62"/>
      <point x="799" y="62" type="curve" smooth="yes"/>
      <point x="580" y="62"/>
      <point x="452" y="221"/>
      <point x="417" y="530" type="curve"/>
      <point x="786" y="530" type="line"/>
      <point x="822" y="630" type="line"/>
      <point x="409" y="630" type="line"/>
      <point x="408" y="661"/>
      <point x="407" y="694"/>
      <point x="407" y="732" type="curve" smooth="yes"/>
      <point x="407" y="777"/>
      <point x="408" y="814"/>
      <point x="411" y="850" type="curve"/>
      <point x="887" y="850" type="line"/>
      <point x="922" y="950" type="line"/>
      <point x="420" y="950" type="line"/>
      <point x="464" y="1263"/>
      <point x="595" y="1430"/>
      <point x="818" y="1430" type="curve" smooth="yes"/>
      <point x="917" y="1430"/>
      <point x="1013" y="1397"/>
      <point x="1044" y="1362" type="curve"/>
      <point x="1074" y="1144" type="line"/>
      <point x="1166" y="1144" type="line"/>
      <point x="1181" y="1458" type="line"/>
      <point x="1110" y="1476"/>
      <point x="995" y="1531"/>
      <point x="841" y="1531" type="curve" smooth="yes"/>
      <point x="539" y="1531"/>
      <point x="325" y="1303"/>
      <point x="262" y="950" type="curve"/>
      <point x="91" y="950" type="line"/>
      <point x="56" y="850" type="line"/>
      <point x="247" y="850" type="line"/>
      <point x="242" y="797"/>
      <point x="239" y="747"/>
      <point x="239" y="700" type="curve"/>
      <point x="240" y="630" type="line"/>
      <point x="94" y="630" type="line"/>
      <point x="59" y="530" type="line"/>
      <point x="249" y="530" type="line"/>
      <point x="297" y="157"/>
      <point x="492" y="-28"/>
    </contour>
  </outline>
</glyph>
<glyph name="tugrik" format="2">
  <advance width="1304"/>
  <unicode hex="20AE"/>
  <anchor x="760" y="-166" name="mark0"/>
  <outline>
    <contour>
      <point x="341" y="0" type="line"/>
      <point x="989" y="0" type="line"/>
      <point x="989" y="86" type="line"/>
      <point x="739" y="104" type="line"/>
      <point x="739" y="427" type="line"/>
      <point x="1028" y="507" type="line"/>
      <point x="1028" y="605" type="line"/>
      <point x="739" y="525" type="line"/>
      <point x="739" y="773" type="line"/>
      <point x="1028" y="853" type="line"/>
      <point x="1028" y="951" type="line"/>
      <point x="739" y="871" type="line"/>
      <point x="739" y="1396" type="line"/>
      <point x="1057" y="1384" type="line"/>
      <point x="1109" y="1038" type="line"/>
      <point x="1214" y="1038" type="line"/>
      <point x="1194" y="1486" type="line"/>
      <point x="120" y="1486" type="line"/>
      <point x="90" y="1038" type="line"/>
      <point x="199" y="1038" type="line"/>
      <point x="256" y="1384" type="line"/>
      <point x="571" y="1396" type="line"/>
      <point x="571" y="835" type="line"/>
      <point x="279" y="755" type="line"/>
      <point x="279" y="657" type="line"/>
      <point x="571" y="737" type="line"/>
      <point x="571" y="489" type="line"/>
      <point x="279" y="409" type="line"/>
      <point x="279" y="311" type="line"/>
      <point x="571" y="391" type="line"/>
      <point x="571" y="104" type="line"/>
      <point x="341" y="86" type="line"/>
    </contour>
  </outline>
</glyph>
<glyph name="guarani" format="2">
  <advance width="1253"/>
  <unicode hex="20B2"/>
  <anchor x="740" y="0" name="bottom"/>
  <anchor x="768" y="-166" name="mark0"/>
  <anchor x="800" y="1486" name="top"/>
  <outline>
    <contour>
      <point x="915" y="1720" type="line"/>
      <point x="791" y="1720" type="line"/>
      <point x="791" y="1460" type="line"/>
      <point x="915" y="1460" type="line"/>
    </contour>
    <contour>
      <point x="864" y="18" type="line"/>
      <point x="745" y="18" type="line"/>
      <point x="745" y="-252" type="line"/>
      <point x="864" y="-252" type="line"/>
    </contour>
    <component base="G" xOffset="13"/>
  </outline>
</glyph>
<glyph name="manat" format="2">
  <advance width="1342"/>
  <unicode hex="20BC"/>
  <outline>
    <contour>
      <point x="661" y="1386" type="curve" smooth="yes"/>
      <point x="389" y="1386"/>
      <point x="185" y="1193"/>
      <point x="185" y="760" type="curve" smooth="yes"/>
      <point x="185" y="108" type="line"/>
      <point x="51" y="86" type="line"/>
      <point x="51" y="0" type="line"/>
      <point x="471" y="0" type="line"/>
      <point x="471" y="86" type="line"/>
      <point x="330" y="110" type="line"/>
      <point x="330" y="768" type="line" smooth="yes"/>
      <point x="330" y="1107"/>
      <point x="437" y="1288"/>
      <point x="660" y="1288" type="curve" smooth="yes"/>
      <point x="948" y="1288"/>
      <point x="1011" y="1031"/>
      <point x="1011" y="752" type="curve" smooth="yes"/>
      <point x="1011" y="108" type="line"/>
      <point x="858" y="86" type="line"/>
      <point x="858" y="0" type="line"/>
      <point x="1291" y="0" type="line"/>
      <point x="1291" y="86" type="line"/>
      <point x="1160" y="108" type="line"/>
      <point x="1160" y="734" type="line" smooth="yes"/>
      <point x="1160" y="1056"/>
      <point x="1084" y="1386"/>
    </contour>
    <contour>
      <point x="740" y="1690" type="line"/>
      <point x="593" y="1690" type="line"/>
      <point x="593" y="276" type="line"/>
      <point x="740" y="276" type="line"/>
    </contour>
  </outline>
</glyph>
<glyph name="ruble" format="2">
  <advance width="1107"/>
  <unicode hex="20BD"/>
  <outline>
    <contour>
      <point x="94" y="0" type="line"/>
      <point x="624" y="0" type="line"/>
      <point x="624" y="86" type="line"/>
      <point x="394" y="106" type="line"/>
      <point x="394" y="340" type="line"/>
      <point x="712" y="340" type="line"/>
      <point x="712" y="430" type="line"/>
      <point x="394" y="430" type="line"/>
      <point x="394" y="616" type="line"/>
      <point x="410" y="614"/>
      <point x="494" y="612"/>
      <point x="556" y="612" type="curve" smooth="yes"/>
      <point x="826" y="612"/>
      <point x="1026" y="792"/>
      <point x="1026" y="1096" type="curve" smooth="yes"/>
      <point x="1026" y="1340"/>
      <point x="931" y="1500"/>
      <point x="597" y="1500" type="curve" smooth="yes"/>
      <point x="455" y="1500"/>
      <point x="418" y="1486"/>
      <point x="315" y="1486" type="curve" smooth="yes"/>
      <point x="104" y="1486" type="line"/>
      <point x="104" y="1400" type="line"/>
      <point x="238" y="1378" type="line"/>
      <point x="238" y="710" type="line"/>
      <point x="49" y="710" type="line"/>
      <point x="49" y="616" type="line"/>
      <point x="238" y="616" type="line"/>
      <point x="238" y="430" type="line"/>
      <point x="49" y="430" type="line"/>
      <point x="49" y="340" type="line"/>
      <point x="238" y="340" type="line"/>
      <point x="238" y="104" type="line"/>
      <point x="94" y="86" type="line"/>
    </contour>
    <contour>
      <point x="558" y="710" type="curve" smooth="yes"/>
      <point x="478" y="710"/>
      <point x="425" y="710"/>
      <point x="394" y="714" type="curve"/>
      <point x="394" y="1392" type="line"/>
      <point x="440" y="1392"/>
      <point x="483" y="1404"/>
      <point x="561" y="1404" type="curve" smooth="yes"/>
      <point x="767" y="1404"/>
      <point x="860" y="1318"/>
      <point x="860" y="1100" type="curve" smooth="yes"/>
      <point x="860" y="802"/>
      <point x="717" y="710"/>
    </contour>
  </outline>
</glyph>
<glyph name="accountof" format="2">
  <advance width="2096"/>
  <unicode hex="2100"/>
  <outline>
    <contour>
      <point x="62" y="815" type="curve" smooth="yes"/>
      <point x="62" y="642"/>
      <point x="193" y="554"/>
      <point x="331" y="554" type="curve" smooth="yes"/>
      <point x="479" y="554"/>
      <point x="580" y="654"/>
      <point x="622" y="692" type="curve"/>
      <point x="622" y="628" type="line" smooth="yes"/>
      <point x="622" y="590"/>
      <point x="622" y="558"/>
      <point x="695" y="558" type="curve" smooth="yes"/>
      <point x="745" y="558"/>
      <point x="819" y="572"/>
      <point x="855" y="584" type="curve"/>
      <point x="855" y="646" type="line"/>
      <point x="751" y="646" type="line"/>
      <point x="751" y="1206" type="line" smooth="yes"/>
      <point x="751" y="1323"/>
      <point x="751" y="1536"/>
      <point x="468" y="1536" type="curve" smooth="yes"/>
      <point x="291" y="1536"/>
      <point x="148" y="1452"/>
      <point x="99" y="1412" type="curve"/>
      <point x="136" y="1320" type="line"/>
      <point x="189" y="1350"/>
      <point x="288" y="1410"/>
      <point x="420" y="1410" type="curve" smooth="yes"/>
      <point x="608" y="1410"/>
      <point x="608" y="1289"/>
      <point x="608" y="1194" type="curve" smooth="yes"/>
      <point x="608" y="1140" type="line"/>
      <point x="320" y="1132"/>
      <point x="62" y="1057"/>
    </contour>
    <contour>
      <point x="381" y="654" type="curve" smooth="yes"/>
      <point x="295" y="654"/>
      <point x="222" y="711"/>
      <point x="222" y="828" type="curve" smooth="yes"/>
      <point x="222" y="971"/>
      <point x="331" y="1054"/>
      <point x="608" y="1058" type="curve"/>
      <point x="608" y="758" type="line"/>
      <point x="539" y="705"/>
      <point x="463" y="654"/>
    </contour>
    <contour>
      <point x="1320" y="476" type="curve" smooth="yes"/>
      <point x="1320" y="192"/>
      <point x="1482" y="-4"/>
      <point x="1725" y="-4" type="curve" smooth="yes"/>
      <point x="1851" y="-4"/>
      <point x="1966" y="49"/>
      <point x="2034" y="118" type="curve"/>
      <point x="1999" y="192" type="line"/>
      <point x="1951" y="156"/>
      <point x="1858" y="114"/>
      <point x="1760" y="114" type="curve" smooth="yes"/>
      <point x="1587" y="114"/>
      <point x="1472" y="244"/>
      <point x="1479" y="530" type="curve" smooth="yes"/>
      <point x="1485" y="770"/>
      <point x="1572" y="888"/>
      <point x="1754" y="888" type="curve" smooth="yes"/>
      <point x="1812" y="888"/>
      <point x="1883" y="876"/>
      <point x="1892" y="836" type="curve" smooth="yes"/>
      <point x="1928" y="672" type="line"/>
      <point x="2011" y="672" type="line"/>
      <point x="2018" y="934" type="line"/>
      <point x="1972" y="952"/>
      <point x="1883" y="984"/>
      <point x="1776" y="984" type="curve" smooth="yes"/>
      <point x="1503" y="984"/>
      <point x="1320" y="779"/>
    </contour>
    <contour>
      <point x="1459" y="1758" type="line"/>
      <point x="1314" y="1758" type="line"/>
      <point x="791" y="-158" type="line"/>
      <point x="937" y="-158" type="line"/>
    </contour>
  </outline>
</glyph>
<glyph name="numero" format="2">
  <advance width="2430"/>
  <unicode hex="2116"/>
  <outline>
    <contour>
      <point x="301" y="104" type="line"/>
      <point x="158" y="84" type="line"/>
      <point x="158" y="0" type="line"/>
      <point x="574" y="0" type="line"/>
      <point x="574" y="84" type="line"/>
      <point x="413" y="104" type="line"/>
      <point x="413" y="1294" type="line"/>
      <point x="530" y="1026" type="line"/>
      <point x="1064" y="0" type="line"/>
      <point x="1210" y="0" type="line"/>
      <point x="1210" y="1378" type="line"/>
      <point x="1358" y="1402" type="line"/>
      <point x="1358" y="1486" type="line"/>
      <point x="946" y="1486" type="line"/>
      <point x="946" y="1402" type="line"/>
      <point x="1098" y="1378" type="line"/>
      <point x="1100" y="182" type="line"/>
      <point x="1000" y="432" type="line"/>
      <point x="465" y="1486" type="line"/>
      <point x="158" y="1486" type="line"/>
      <point x="158" y="1402" type="line"/>
      <point x="206" y="1394"/>
      <point x="253" y="1386"/>
      <point x="301" y="1378" type="curve"/>
    </contour>
    <contour>
      <point x="1799" y="536" type="curve" smooth="yes"/>
      <point x="2029" y="536"/>
      <point x="2212" y="734"/>
      <point x="2214" y="1034" type="curve" smooth="yes"/>
      <point x="2216" y="1293"/>
      <point x="2083" y="1510"/>
      <point x="1837" y="1510" type="curve" smooth="yes"/>
      <point x="1624" y="1510"/>
      <point x="1428" y="1345"/>
      <point x="1420" y="1038" type="curve" smooth="yes"/>
      <point x="1413" y="782"/>
      <point x="1543" y="536"/>
    </contour>
    <contour>
      <point x="1816" y="634" type="curve" smooth="yes"/>
      <point x="1649" y="643"/>
      <point x="1573" y="810"/>
      <point x="1573" y="1037" type="curve" smooth="yes"/>
      <point x="1573" y="1290"/>
      <point x="1667" y="1416"/>
      <point x="1821" y="1410" type="curve" smooth="yes"/>
      <point x="1983" y="1404"/>
      <point x="2059" y="1258"/>
      <point x="2059" y="1019" type="curve" smooth="yes"/>
      <point x="2059" y="764"/>
      <point x="1973" y="625"/>
    </contour>
    <contour>
      <point x="2205" y="106" type="line"/>
      <point x="1428" y="106" type="line"/>
      <point x="1428" y="0" type="line"/>
      <point x="2205" y="0" type="line"/>
    </contour>
  </outline>
</glyph>
<glyph name="servicemark" format="2">
  <advance width="1995"/>
  <unicode hex="2120"/>
  <outline>
    <contour>
      <point x="462" y="742" type="curve" smooth="yes"/>
      <point x="644" y="742"/>
      <point x="761" y="841"/>
      <point x="761" y="977" type="curve" smooth="yes"/>
      <point x="761" y="1110"/>
      <point x="652" y="1158"/>
      <point x="520" y="1204" type="curve" smooth="yes"/>
      <point x="439" y="1232"/>
      <point x="340" y="1262"/>
      <point x="340" y="1358" type="curve" smooth="yes"/>
      <point x="340" y="1426"/>
      <point x="391" y="1456"/>
      <point x="474" y="1456" type="curve" smooth="yes"/>
      <point x="526" y="1456"/>
      <point x="584" y="1444"/>
      <point x="597" y="1422" type="curve"/>
      <point x="623" y="1332" type="line"/>
      <point x="716" y="1332" type="line"/>
      <point x="716" y="1490" type="line"/>
      <point x="690" y="1500"/>
      <point x="595" y="1532"/>
      <point x="488" y="1532" type="curve" smooth="yes"/>
      <point x="325" y="1532"/>
      <point x="212" y="1458"/>
      <point x="212" y="1325" type="curve" smooth="yes"/>
      <point x="212" y="1172"/>
      <point x="363" y="1117"/>
      <point x="433" y="1094" type="curve" smooth="yes"/>
      <point x="564" y="1051"/>
      <point x="625" y="1032"/>
      <point x="625" y="945" type="curve" smooth="yes"/>
      <point x="625" y="874"/>
      <point x="583" y="818"/>
      <point x="470" y="818" type="curve" smooth="yes"/>
      <point x="411" y="818"/>
      <point x="340" y="834"/>
      <point x="321" y="860" type="curve"/>
      <point x="300" y="964" type="line"/>
      <point x="200" y="964" type="line"/>
      <point x="200" y="792" type="line"/>
      <point x="265" y="767"/>
      <point x="372" y="742"/>
    </contour>
    <contour>
      <point x="960" y="836" type="line"/>
      <point x="858" y="824" type="line"/>
      <point x="858" y="760" type="line"/>
      <point x="1136" y="760" type="line"/>
      <point x="1136" y="824" type="line"/>
      <point x="1045" y="836" type="line"/>
      <point x="1071" y="1280" type="line"/>
      <point x="1075" y="1452" type="line"/>
      <point x="1134" y="1286" type="line"/>
      <point x="1319" y="752" type="line"/>
      <point x="1405" y="752" type="line"/>
      <point x="1598" y="1344" type="line"/>
      <point x="1628" y="1448" type="line"/>
      <point x="1636" y="1226" type="line"/>
      <point x="1661" y="834" type="line"/>
      <point x="1574" y="824" type="line"/>
      <point x="1574" y="760" type="line"/>
      <point x="1895" y="760" type="line"/>
      <point x="1895" y="824" type="line"/>
      <point x="1799" y="836" type="line"/>
      <point x="1752" y="1442" type="line"/>
      <point x="1856" y="1448" type="line"/>
      <point x="1856" y="1518" type="line"/>
      <point x="1572" y="1518" type="line"/>
      <point x="1382" y="914" type="line"/>
      <point x="1329" y="1102" type="line"/>
      <point x="1190" y="1518" type="line"/>
      <point x="895" y="1518" type="line"/>
      <point x="895" y="1448" type="line"/>
      <point x="997" y="1442" type="line"/>
    </contour>
  </outline>
</glyph>
